<?xml version="1.0" encoding="utf-8"?>
<!-- Generator: Adobe Illustrator 16.0.0, SVG Export Plug-In . SVG Version: 6.00 Build 0)  -->
<!DOCTYPE svg PUBLIC "-//W3C//DTD SVG 1.1//EN" "http://www.w3.org/Graphics/SVG/1.1/DTD/svg11.dtd">
<svg version="1.1" id="Layer_1" xmlns="http://www.w3.org/2000/svg" xmlns:xlink="http://www.w3.org/1999/xlink" x="0px" y="0px"
	 width="48px" height="48px" viewBox="0 0 48 48" enable-background="new 0 0 48 48" xml:space="preserve">
<g>
	<path d="M17.126,31.31l-1.277,2.373c-0.029,0.055-0.033,0.121-0.009,0.179c0.025,0.057,0.074,0.101,0.134,0.118l2.721,0.787
		l1.04-1.04c-0.5-0.707-0.84-1.529-0.979-2.419L17.126,31.31z"/>
	<path d="M16.025,26.895c-0.059,0.019-0.105,0.063-0.129,0.12c-0.023,0.057-0.02,0.122,0.01,0.176l1.219,2.267l1.641-0.002
		c0.152-0.896,0.513-1.721,1.03-2.426l-1.019-1.019L16.025,26.895z"/>
	<path d="M23.438,24.765l-0.004-1.651l-2.276-1.255c-0.056-0.03-0.123-0.035-0.18-0.011c-0.058,0.024-0.102,0.073-0.119,0.134
		l-0.784,2.707l1.042,1.042C21.796,25.249,22.584,24.914,23.438,24.765z"/>
	<path d="M31.583,31.31l-1.629-0.002c-0.139,0.891-0.48,1.713-0.979,2.419l1.04,1.04l2.721-0.787c0.06-0.018,0.11-0.061,0.134-0.118
		c0.024-0.059,0.021-0.124-0.009-0.179L31.583,31.31z"/>
	<path d="M25.249,36.078l-0.003,1.641l2.267,1.219c0.053,0.029,0.118,0.032,0.176,0.009c0.057-0.022,0.101-0.07,0.12-0.129
		l0.883-2.753l-1.016-1.017C26.97,35.565,26.146,35.925,25.249,36.078z"/>
	<path d="M31.583,29.458l1.22-2.267c0.029-0.054,0.033-0.119,0.01-0.176c-0.023-0.057-0.071-0.101-0.129-0.12l-2.752-0.884
		l-1.019,1.019c0.518,0.705,0.877,1.53,1.03,2.426L31.583,29.458z"/>
	<path d="M21.034,35.047l-1.016,1.017l0.883,2.753c0.019,0.059,0.063,0.106,0.12,0.129c0.058,0.023,0.123,0.02,0.176-0.009
		l2.267-1.219l-0.003-1.641C22.563,35.925,21.739,35.565,21.034,35.047z"/>
	<path d="M28.634,24.689l-0.784-2.707c-0.017-0.061-0.061-0.109-0.119-0.134c-0.058-0.024-0.125-0.02-0.18,0.011l-2.276,1.255
		l-0.004,1.651c0.853,0.149,1.641,0.484,2.321,0.966L28.634,24.689z"/>
	<path d="M43.817,41.711l-1.569-27.468c-0.151-2.645-2.339-4.723-4.989-4.723H33.89V7.584c0-3.581-2.956-6.532-6.538-6.532h-5.995
		c-3.582,0-6.553,2.951-6.553,6.532V9.52H11.45c-2.649,0-4.838,2.079-4.989,4.723L4.892,41.705
		c-0.079,1.372,0.413,2.734,1.356,3.733c0.943,1,2.258,1.583,3.633,1.583h28.945c1.375,0,2.69-0.58,3.634-1.579
		C43.404,44.442,43.895,43.083,43.817,41.711z M17.895,7.584c0-1.929,1.532-3.508,3.462-3.508h5.995c1.93,0,3.446,1.579,3.446,3.508
		V9.52H17.895V7.584z M34.577,34.579c-0.243,0.577-0.727,1.007-1.327,1.181l-2.772,0.802l-0.906,2.822
		c-0.188,0.585-0.622,1.051-1.191,1.281c-0.56,0.226-1.213,0.19-1.746-0.096l-2.28-1.226l-2.281,1.226
		c-0.533,0.287-1.186,0.322-1.746,0.096c-0.569-0.229-1.003-0.696-1.191-1.281l-0.906-2.822l-2.772-0.802
		c-0.601-0.173-1.084-0.604-1.326-1.181c-0.242-0.577-0.211-1.223,0.085-1.773l1.303-2.421l-1.246-2.317
		c-0.291-0.541-0.325-1.177-0.096-1.746c0.229-0.569,0.697-1.003,1.281-1.191l2.822-0.905l0.798-2.758
		c0.175-0.605,0.609-1.09,1.19-1.331c0.572-0.237,1.241-0.199,1.783,0.1l2.303,1.27l2.302-1.27c0.542-0.299,1.211-0.336,1.783-0.1
		c0.582,0.241,1.016,0.726,1.19,1.331l0.798,2.758l2.822,0.905c0.583,0.188,1.052,0.622,1.28,1.191
		c0.229,0.569,0.195,1.205-0.096,1.746l-1.245,2.317l1.303,2.421C34.787,33.356,34.819,34.002,34.577,34.579z"/>
</g>
</svg>
