<?xml version="1.0" encoding="utf-8"?>
<!-- Generator: Adobe Illustrator 16.0.0, SVG Export Plug-In . SVG Version: 6.00 Build 0)  -->
<!DOCTYPE svg PUBLIC "-//W3C//DTD SVG 1.1//EN" "http://www.w3.org/Graphics/SVG/1.1/DTD/svg11.dtd">
<svg version="1.1" id="Layer_1" xmlns="http://www.w3.org/2000/svg" xmlns:xlink="http://www.w3.org/1999/xlink" x="0px" y="0px"
	 width="48px" height="48px" viewBox="0 0 48 48" enable-background="new 0 0 48 48" xml:space="preserve">
<g>
	<path d="M34.677,32.415c-0.989,0.286-2.021,0.438-3.078,0.438c-1.059,0-2.09-0.152-3.079-0.438l-0.459,3.21
		c-0.047,0.33,0.051,0.644,0.27,0.896s0.536,0.376,0.869,0.376h0.803v6.423c0,0.882,0.722,1.597,1.604,1.597
		c0.883,0,1.603-0.715,1.603-1.597v-6.423h0.79c0.333,0,0.65-0.124,0.869-0.376c0.218-0.252,0.315-0.565,0.269-0.896L34.677,32.415z
		"/>
	<path d="M19.296,34.507c-0.99,0.286-2.022,0.439-3.081,0.439c-1.061,0-2.092-0.153-3.082-0.44l-0.456,3.196
		c-0.047,0.329,0.051,0.673,0.27,0.925c0.218,0.252,0.535,0.406,0.868,0.406h0.769v6.378c0,0.882,0.722,1.597,1.603,1.597
		c0.882,0,1.604-0.715,1.604-1.597v-6.378h0.824c0.333,0,0.65-0.148,0.87-0.399c0.218-0.253,0.315-0.601,0.269-0.93L19.296,34.507z"
		/>
	<path d="M31.599,1.278c-2.753,0-5.278,1.253-7.251,3.339c0.611,0.569,1.182,1.204,1.707,1.893c0.286-0.195,0.632-0.31,1.004-0.31
		c0.985,0,1.785,0.799,1.785,1.784c0,0.681-0.38,1.271-0.94,1.573c1.19,2.505,1.873,5.424,1.873,8.536
		c0,4.226-1.257,8.093-3.333,11.054c1.55,1.008,3.3,1.577,5.155,1.577c6.314,0,11.434-6.592,11.434-14.724
		C43.032,7.87,37.913,1.278,31.599,1.278z"/>
	<path d="M16.215,3.37C9.899,3.37,4.78,9.964,4.78,18.094c0,8.131,5.119,14.724,11.435,14.724c6.314,0,11.434-6.593,11.434-14.724
		C27.648,9.964,22.529,3.37,16.215,3.37z M10.72,26.523c-0.21,0.093-0.429,0.137-0.644,0.137c-0.613,0-1.197-0.355-1.462-0.951
		c-3.144-7.114-0.881-12.383-0.783-12.603c0.358-0.808,1.3-1.172,2.105-0.812c0.805,0.355,1.168,1.292,0.817,2.096
		c-0.082,0.194-1.756,4.287,0.78,10.027C11.892,25.225,11.527,26.167,10.72,26.523z M11.674,11.862
		c-0.985,0-1.784-0.799-1.784-1.786c0-0.983,0.799-1.784,1.784-1.784c0.986,0,1.785,0.801,1.785,1.784
		C13.459,11.063,12.66,11.862,11.674,11.862z"/>
</g>
</svg>
