<?xml version="1.0" encoding="utf-8"?>
<!-- Generator: Adobe Illustrator 16.0.0, SVG Export Plug-In . SVG Version: 6.00 Build 0)  -->
<!DOCTYPE svg PUBLIC "-//W3C//DTD SVG 1.1//EN" "http://www.w3.org/Graphics/SVG/1.1/DTD/svg11.dtd">
<svg version="1.1" id="Layer_1" xmlns="http://www.w3.org/2000/svg" xmlns:xlink="http://www.w3.org/1999/xlink" x="0px" y="0px"
	 width="48px" height="48px" viewBox="0 0 48 48" enable-background="new 0 0 48 48" xml:space="preserve">
<g>
	<path d="M46.113,25.922c0.005-0.462-0.173-0.907-0.497-1.237l-1.371-1.4c-0.673-0.688-1.776-0.7-2.464-0.026L22.407,42.22
		c-0.33,0.322-0.519,0.765-0.524,1.227s0.174,0.907,0.498,1.237l1.371,1.4c0.673,0.688,1.776,0.7,2.464,0.026l2.293-2.244
		c1.229,1.256,3.252,1.268,4.52,0.027c1.266-1.238,1.297-3.263,0.068-4.519L45.59,27.148C45.92,26.825,46.108,26.384,46.113,25.922z
		"/>
	<path d="M14.525,14.785c0.792-0.775,1.837-1.202,2.941-1.202c0.3,0,0.594,0.032,0.88,0.095c-0.271-1.112-0.971-2.345-2.032-3.429
		L9.852,3.646C7.76,1.509,5.058,0.761,3.817,1.974L2.364,3.396c-0.596,0.583-0.769,1.55-0.479,2.687
		c0.29,1.14,1.017,2.356,2.021,3.383l6.462,6.603c0.875,0.894,1.898,1.582,2.896,1.95c-0.005-0.097-0.008-0.193-0.007-0.29
		C13.275,16.613,13.725,15.567,14.525,14.785z"/>
	<path d="M32.976,17.777c-3.715-3.881-9.641-4.479-14.042-1.664c-0.402-0.363-0.917-0.562-1.467-0.562
		c-0.586,0-1.143,0.226-1.565,0.64c-0.426,0.417-0.666,0.973-0.676,1.565c-0.008,0.537,0.175,1.044,0.517,1.446
		c-2.922,4.271-2.544,10.17,1.141,14.021c3.639,3.802,3.989,6.371,4.549,6.912l18.332-17.541
		C39.764,22.595,35.435,20.348,32.976,17.777z"/>
</g>
</svg>
