<?xml version="1.0" encoding="utf-8"?>
<!-- Generator: Adobe Illustrator 16.0.0, SVG Export Plug-In . SVG Version: 6.00 Build 0)  -->
<!DOCTYPE svg PUBLIC "-//W3C//DTD SVG 1.1//EN" "http://www.w3.org/Graphics/SVG/1.1/DTD/svg11.dtd">
<svg version="1.1" id="Layer_1" xmlns="http://www.w3.org/2000/svg" xmlns:xlink="http://www.w3.org/1999/xlink" x="0px" y="0px"
	 width="48px" height="48px" viewBox="0 0 48 48" enable-background="new 0 0 48 48" xml:space="preserve">
<g>
	<path d="M46.928,42.518L36.651,12.698c-0.411-1.19-1.533-1.991-2.8-1.991c-1.264,0.003-2.384,0.809-2.788,2.002l-5.528,16.206
		L16.832,3.659c-0.411-1.189-1.532-1.99-2.799-1.99c-1.265,0.004-2.386,0.808-2.79,2.001L1.071,33.491
		c-0.382,1.119-0.198,2.37,0.486,3.329c0.688,0.962,1.805,1.547,2.987,1.547h17.773l-1.425,4.167
		c-0.384,1.119-0.202,2.361,0.486,3.326c0.688,0.96,1.803,1.534,2.985,1.534h19.093c1.184,0,2.301-0.582,2.987-1.545
		C47.134,44.886,47.314,43.637,46.928,42.518z M30.944,25.541l5.449-1.217l1.259,3.65l-8.16,1.821L30.944,25.541z M27.968,34.267
		l11.008-2.456l1.257,3.65l-13.716,3.062L27.968,34.267z M33.863,16.981l1.209,3.507L32.47,21.07L33.863,16.981z M14.044,7.947
		l9.088,26.371H5.049L14.044,7.947z M24.87,43.347l0.123-0.356l16.562-3.696l1.397,4.053H24.87z"/>
	<circle cx="11.175" cy="30.307" r="2.425"/>
	<circle cx="15.111" cy="24.164" r="1.512"/>
	<circle cx="13.915" cy="16.167" r="2.079"/>
	<circle cx="18.796" cy="30.782" r="1.543"/>
</g>
</svg>
