<?xml version="1.0" encoding="utf-8"?>
<!-- Generator: Adobe Illustrator 16.0.0, SVG Export Plug-In . SVG Version: 6.00 Build 0)  -->
<!DOCTYPE svg PUBLIC "-//W3C//DTD SVG 1.1//EN" "http://www.w3.org/Graphics/SVG/1.1/DTD/svg11.dtd">
<svg version="1.1" id="Layer_1" xmlns="http://www.w3.org/2000/svg" xmlns:xlink="http://www.w3.org/1999/xlink" x="0px" y="0px"
	 width="48px" height="48px" viewBox="0 0 48 48" enable-background="new 0 0 48 48" xml:space="preserve">
<g>
	<path d="M46.342,8.751L39.53,1.939c-0.603-0.603-1.479-0.845-2.306-0.637c-0.827,0.209-1.483,0.837-1.728,1.653L34.103,7.6
		c0.181,0.144,0.356,0.298,0.523,0.466l5.59,5.59c0.167,0.167,0.321,0.342,0.465,0.522l4.644-1.393
		c0.816-0.245,1.444-0.901,1.652-1.728C47.187,10.23,46.945,9.354,46.342,8.751z"/>
	<path d="M8.012,34.68c-0.167-0.166-0.321-0.341-0.465-0.523L2.903,35.55c-0.817,0.245-1.444,0.901-1.653,1.729
		c-0.209,0.827,0.033,1.702,0.636,2.305l6.812,6.812c0.603,0.603,1.479,0.844,2.306,0.636c0.827-0.209,1.483-0.837,1.728-1.653
		l1.393-4.643c-0.181-0.144-0.355-0.298-0.522-0.466L8.012,34.68z"/>
	<path d="M28.751,8.538v23.566l4.761-4.759V10.234l-0.167-0.166C32.092,8.817,30.387,8.307,28.751,8.538z"/>
	<path d="M12.533,35.868V23.223l-2.506,2.496c-2.114,2.113-2.108,5.54,0.005,7.654L12.533,35.868z"/>
	<path d="M14.765,38.1l0.167,0.166c1.252,1.252,2.957,1.762,4.594,1.531V16.231l-4.761,4.759V38.1z"/>
	<path d="M21.757,13.999v24.946c0.298-0.194,0.572-0.421,0.831-0.679l3.931-3.93V9.39c-0.297,0.195-0.571,0.421-0.83,0.679
		L21.757,13.999z"/>
	<path d="M35.744,12.467v12.646l2.482-2.497c2.113-2.114,2.12-5.54,0.007-7.654L35.744,12.467z"/>
</g>
</svg>
