<?xml version="1.0" encoding="utf-8"?>
<!-- Generator: Adobe Illustrator 16.0.0, SVG Export Plug-In . SVG Version: 6.00 Build 0)  -->
<!DOCTYPE svg PUBLIC "-//W3C//DTD SVG 1.1//EN" "http://www.w3.org/Graphics/SVG/1.1/DTD/svg11.dtd">
<svg version="1.1" id="Layer_1" xmlns="http://www.w3.org/2000/svg" xmlns:xlink="http://www.w3.org/1999/xlink" x="0px" y="0px"
	 width="48px" height="48px" viewBox="0 0 48 48" enable-background="new 0 0 48 48" xml:space="preserve">
<path d="M34.352,22.57c-2.887,0-5.253,2.348-5.253,5.233v4.694c0,2.292-1.868,4.157-4.158,4.157c-2.293,0-4.161-1.865-4.161-4.157
	V6.207c0-2.885-2.343-5.233-5.229-5.233c-2.886,0-5.229,2.348-5.229,5.233v26.291c0,8.063,6.578,14.624,14.642,14.624
	c8.063,0,14.641-6.56,14.641-14.624v-4.694C39.604,24.918,37.237,22.57,34.352,22.57z M34.349,25.526c1.257,0,2.28,1.021,2.28,2.278
	v1.433L32.31,26.79C32.683,26.042,33.457,25.526,34.349,25.526z M32.073,30.82l4.522,2.563c-0.101,1.336-0.429,2.609-0.943,3.784
	l-3.998-2.268c0.271-0.75,0.419-1.558,0.419-2.4V30.82z M22.479,39.164l-2.937,3.667c-1.01-0.532-1.933-1.207-2.742-2l3.152-3.288
	C20.663,38.25,21.522,38.807,22.479,39.164z M17.568,5.107c0.181,0.327,0.283,0.702,0.283,1.1v3.064l-4.556,2.578V7.53L17.568,5.107
	z M17.852,13.604v4.317L13.296,20.5v-4.318L17.852,13.604z M17.852,22.237v4.318l-4.556,2.578v-4.318L17.852,22.237z M17.852,30.889
	v1.609c0,0.862,0.151,1.689,0.434,2.455l-3.996,2.266c-0.52-1.169-0.851-2.438-0.958-3.77L17.852,30.889z M23.534,44.08l0.13-4.588
	c0.42,0.077,0.853,0.118,1.295,0.118c0.643,0,1.265-0.086,1.856-0.246L27.2,43.95c-0.726,0.142-1.476,0.217-2.241,0.217
	C24.477,44.167,24.001,44.137,23.534,44.08z M30.739,42.631l-2.615-3.766c0.893-0.445,1.68-1.074,2.311-1.836l2.942,3.541
	C32.604,41.376,31.716,42.072,30.739,42.631z"/>
</svg>
