<?xml version="1.0" encoding="utf-8"?>
<!-- Generator: Adobe Illustrator 16.0.0, SVG Export Plug-In . SVG Version: 6.00 Build 0)  -->
<!DOCTYPE svg PUBLIC "-//W3C//DTD SVG 1.1//EN" "http://www.w3.org/Graphics/SVG/1.1/DTD/svg11.dtd">
<svg version="1.1" id="Layer_1" xmlns="http://www.w3.org/2000/svg" xmlns:xlink="http://www.w3.org/1999/xlink" x="0px" y="0px"
	 width="48px" height="48px" viewBox="0 0 48 48" enable-background="new 0 0 48 48" xml:space="preserve">
<path d="M35.617,21.533c0-2.703-2.192-4.87-4.894-4.87h-0.429c0.266-0.94,0.4-2.015,0.4-3.248c0-6.204-4.949-11.091-5.159-11.295
	l-0.002-0.002c-0.589-0.573-1.526-0.575-2.116-0.002c-0.21,0.205-5.158,5.097-5.158,11.301c0,1.063,0.109,2.189,0.42,3.247h-0.45
	c-2.703,0-4.895,2.167-4.895,4.87v6.628c0,0.376,0.177,0.73,0.478,0.956s0.69,0.296,1.051,0.191v11.301
	c0,3.537,2.868,6.391,6.403,6.391h6.418c3.536,0,6.403-2.854,6.403-6.391v-16.94c0.906-0.264,1.529-1.094,1.529-2.037V21.533z
	 M21.296,13.416c0-2.748,1.318-5.268,2.484-6.958C23.939,6.228,24.2,6.09,24.479,6.09s0.54,0.137,0.698,0.366
	c1.165,1.686,2.478,4.202,2.478,6.962c0,1.598-0.252,2.599-0.638,3.245h-1.124l-0.744-3.966c-0.061-0.325-0.344-0.56-0.674-0.56
	s-0.614,0.235-0.674,0.56l-0.744,3.966h-1.104C21.56,16.017,21.296,15.013,21.296,13.416z M31.031,40.609
	c0,1.861-1.486,3.392-3.346,3.392h-6.418c-1.86,0-3.346-1.531-3.346-3.392V28.418l13.11-3.858V40.609z"/>
</svg>
