<?xml version="1.0" encoding="utf-8"?>
<!-- Generator: Adobe Illustrator 16.0.0, SVG Export Plug-In . SVG Version: 6.00 Build 0)  -->
<!DOCTYPE svg PUBLIC "-//W3C//DTD SVG 1.1//EN" "http://www.w3.org/Graphics/SVG/1.1/DTD/svg11.dtd">
<svg version="1.1" id="Layer_1" xmlns="http://www.w3.org/2000/svg" xmlns:xlink="http://www.w3.org/1999/xlink" x="0px" y="0px"
	 width="48px" height="48px" viewBox="0 0 48 48" enable-background="new 0 0 48 48" xml:space="preserve">
<path fill="none" stroke="#FFFFFF" stroke-width="3" stroke-miterlimit="10" d="M8,39.094"/>
<g>
	<path d="M19.635,30.983c0,0.753,0.611,1.364,1.365,1.364h12.636c0.754,0,1.365-0.611,1.365-1.364v-3.857
		c0-0.753-0.611-1.364-1.365-1.364H21c-0.754,0-1.365,0.611-1.365,1.364V30.983z"/>
	<path d="M12.984,30.983c0,0.753,0.611,1.364,1.365,1.364h0.596c0.754,0,1.365-0.611,1.365-1.364v-3.857
		c0-0.753-0.611-1.364-1.365-1.364h-0.596c-0.754,0-1.365,0.611-1.365,1.364V30.983z"/>
	<path d="M44.656,41.15l-9.633-2.301L35,38.843V37c0-0.733-0.594-1.327-1.327-1.327h-1.736c-0.733,0-1.327,0.594-1.327,1.327v0.793
		L27.285,37c0-0.733-0.594-1.327-1.327-1.327h-4.223l-0.005-0.001L7.907,32.369l-3.514-0.84c-1.479-0.354-2.964,0.559-3.317,2.037
		c-0.354,1.479,0.559,2.963,2.037,3.317l40.262,9.622c0.216,0.051,0.43,0.075,0.642,0.075c1.245,0,2.374-0.851,2.676-2.113
		C47.046,42.989,46.134,41.505,44.656,41.15z"/>
	<path d="M7.496,14.334c0.268,0.555,0.587,1.064,0.95,1.52c1.007,1.259,2.359,2.109,3.945,2.409
		c0.204,0.038,0.593,0.088,0.593,0.088v2.723c0,0.753,0.611,1.364,1.365,1.364h12.253c0.01,0.007,0.02,0.014,0.03,0.021
		c0.209,0.154,0.426,0.302,0.653,0.443c0.746,0.464,1.599,0.857,2.581,1.131c0.952,0.267,2.023,0.422,3.236,0.422
		c0.514,0,1.051-0.028,1.597-0.084c1.525-0.155,2.843-0.93,3.919-1.912c1.642-1.496,2.723-3.474,3.117-4.465
		c2.537-6.387,0.917-9.776-0.888-11.495c-1.59-1.514-3.444-2.28-5.512-2.28c-1.042,0-1.958,0.187-2.766,0.348
		c-0.547,0.11-1.063,0.215-1.43,0.215c-0.165,0-0.249-0.021-0.298-0.036c-0.392-0.126-0.886-0.413-1.459-0.743
		c-1.731-1.002-4.103-2.373-8.259-2.373c-4.242,0-7.904,0-10.731,1.955c-3.593,2.483-4.043,5.51-3.788,7.61
		C6.744,12.351,7.05,13.406,7.496,14.334z M12.268,6.299c1.923-1.328,4.792-1.366,8.854-1.366c4.778,0,6.401,2.211,8.704,2.954
		c0.441,0.143,0.878,0.197,1.313,0.197c1.399,0,2.777-0.563,4.195-0.563c1.048,0,2.117,0.306,3.235,1.371
		c2.201,2.093,0.717,6.316,0.095,7.881c-0.62,1.562-2.514,4.13-4.297,4.311c-0.446,0.045-0.866,0.066-1.265,0.066
		c-7.197,0-6.93-7.01-10.778-8.007c-0.744-0.193-1.4-0.273-1.988-0.273c-3.085,0-4.335,2.214-6.629,2.214
		c-0.224,0-0.458-0.022-0.705-0.068c-1.932-0.363-2.883-2.271-3.121-4.222C9.64,8.808,10.623,7.437,12.268,6.299z"/>
</g>
</svg>
