<?xml version="1.0" encoding="utf-8"?>
<!-- Generator: Adobe Illustrator 16.0.0, SVG Export Plug-In . SVG Version: 6.00 Build 0)  -->
<!DOCTYPE svg PUBLIC "-//W3C//DTD SVG 1.1//EN" "http://www.w3.org/Graphics/SVG/1.1/DTD/svg11.dtd">
<svg version="1.1" id="Layer_1" xmlns="http://www.w3.org/2000/svg" xmlns:xlink="http://www.w3.org/1999/xlink" x="0px" y="0px"
	 width="48px" height="48px" viewBox="0 0 48 48" enable-background="new 0 0 48 48" xml:space="preserve">
<g>
	<path d="M28.66,21.417c-0.058-0.003-0.114,0.021-0.153,0.063l-1.622,1.914l0.552,1.419c0.832-0.185,1.674-0.165,2.467,0.034
		l0.554-1.256l-1.649-2.104C28.773,21.441,28.719,21.417,28.66,21.417z"/>
	<path d="M33.187,27.235l1.44-0.558l0.338-2.406c0.007-0.058,0.001-0.086-0.039-0.127c-0.042-0.042-0.098-0.066-0.157-0.06
		l-2.729,0.193l-0.554,1.225C32.172,25.943,32.699,26.373,33.187,27.235z"/>
	<path d="M33.127,32.958c-0.453,0.707-1.074,1.317-1.833,1.755l0.554,1.42l2.516,0.313c0.057,0.01,0.116-0.012,0.158-0.051
		c0.043-0.041,0.064-0.098,0.059-0.156l-0.213-2.734L33.127,32.958z"/>
	<path d="M22.855,23.69c-0.057-0.006-0.118,0.012-0.16,0.053c-0.043,0.039-0.064,0.098-0.059,0.154l0.23,2.632l1.26,0.557
		c0.432-0.649,1.008-1.209,1.701-1.63l-0.562-1.438L22.855,23.69z"/>
	<path d="M45.786,32.699L33.737,5.668C32.695,3.326,30,2.215,27.613,3.141l-7.215,2.793c-1.225-1.732-3.021-3.457-5.572-4.249
		c-4.313-1.335-7.239-0.184-8.934,1.02C3.423,4.46,1.935,7.508,1.81,11.067c-0.217,6.159,2.559,10.494,4.788,13.97
		c1.452,2.269,2.706,4.225,2.706,6.021c0,8.445-6.214,10.591-6.47,10.678c-0.773,0.245-1.201,1.071-0.956,1.842
		c0.199,0.627,0.777,1.025,1.4,1.025c0.147,0,0.297-0.02,0.445-0.069c0.084-0.026,8.518-2.826,8.518-13.476
		c0-2.656-1.539-5.059-3.168-7.603c-2.114-3.299-4.51-7.04-4.326-12.284c0.092-2.639,1.131-4.853,2.848-6.072
		c1.655-1.174,3.855-1.382,6.362-0.604c1.526,0.472,2.702,1.456,3.589,2.543l-6.063,2.349c-2.389,0.924-3.632,3.558-2.828,5.992
		l9.292,28.096c0.413,1.251,1.321,2.276,2.513,2.837c1.19,0.564,2.558,0.61,3.786,0.139l18.887-7.313
		c1.228-0.475,2.206-1.433,2.708-2.649C46.341,35.272,46.321,33.902,45.786,32.699z M19.848,11.488
		c0.202,0.782,0.999,1.254,1.786,1.054c0.786-0.203,1.261-1.003,1.059-1.785c-0.028-0.111-0.308-1.169-0.965-2.545
		c1.002,0.161,1.894,0.832,2.285,1.846c0.585,1.514-0.166,3.214-1.68,3.801c-1.516,0.587-3.218-0.166-3.804-1.681
		c-0.393-1.01-0.185-2.106,0.447-2.894C19.583,10.498,19.842,11.461,19.848,11.488z M38.239,31.634l-2.147,1.685l0.218,2.788
		c0.046,0.576-0.171,1.14-0.592,1.542c-0.184,0.176-0.397,0.312-0.634,0.403c-0.296,0.114-0.621,0.156-0.936,0.114l-2.567-0.317
		l-1.602,1.869c-0.368,0.43-0.926,0.682-1.491,0.674c-0.576-0.009-1.112-0.268-1.473-0.717l-1.744-2.159l-2.693,0.24
		c-0.583,0.051-1.151-0.162-1.557-0.584c-0.408-0.421-0.599-0.997-0.527-1.579l0.321-2.554l-1.872-1.601
		c-0.436-0.374-0.682-0.919-0.673-1.491c0.007-0.576,0.269-1.11,0.715-1.473l2.159-1.745l-0.236-2.679
		c-0.052-0.585,0.163-1.154,0.59-1.563c0.42-0.4,1.016-0.594,1.59-0.516l2.448,0.331l1.65-1.942c0.371-0.437,0.937-0.693,1.51-0.679
		c0.581,0.008,1.121,0.279,1.479,0.739l1.682,2.146l2.777-0.212c0.584-0.046,1.15,0.173,1.55,0.599
		c0.403,0.426,0.588,1.002,0.511,1.579l-0.333,2.473l1.934,1.641c0.444,0.374,0.694,0.927,0.682,1.508S38.699,31.277,38.239,31.634z
		"/>
	<path d="M35.274,28.359l-1.424,0.553c0.182,0.828,0.163,1.662-0.035,2.451l1.251,0.555l2.106-1.647
		c0.044-0.036,0.071-0.093,0.073-0.151c0.001-0.056-0.024-0.112-0.068-0.148L35.274,28.359z"/>
	<path d="M23.952,32.754l-1.422,0.552l-0.313,2.501c-0.007,0.063,0.012,0.119,0.052,0.162c0.042,0.043,0.099,0.063,0.157,0.057
		l2.643-0.23l0.556-1.261C24.95,34.086,24.375,33.484,23.952,32.754z"/>
	<path d="M27.205,35.249l-0.544,1.231l1.703,2.106c0.035,0.043,0.09,0.069,0.148,0.069c0.057,0,0.112-0.023,0.149-0.066l1.568-1.831
		l-0.558-1.431C28.837,35.495,27.995,35.461,27.205,35.249z"/>
	<path d="M23.415,28.667l-1.233-0.545l-2.105,1.698c-0.045,0.04-0.071,0.093-0.072,0.15c-0.001,0.058,0.024,0.114,0.069,0.148
		l1.831,1.568l1.432-0.554C23.166,30.298,23.202,29.457,23.415,28.667z"/>
</g>
</svg>
