<?xml version="1.0" encoding="utf-8"?>
<!-- Generator: Adobe Illustrator 16.0.0, SVG Export Plug-In . SVG Version: 6.00 Build 0)  -->
<!DOCTYPE svg PUBLIC "-//W3C//DTD SVG 1.1//EN" "http://www.w3.org/Graphics/SVG/1.1/DTD/svg11.dtd">
<svg version="1.1" id="Layer_1" xmlns="http://www.w3.org/2000/svg" xmlns:xlink="http://www.w3.org/1999/xlink" x="0px" y="0px"
	 width="48px" height="48px" viewBox="0 0 48 48" enable-background="new 0 0 48 48" xml:space="preserve">
<g>
	<path d="M38.131,21.417v-2.863c0-1.35-1.055-2.449-2.37-2.497V2.652c0-0.851-0.729-1.54-1.579-1.54
		c-0.852,0-1.581,0.689-1.581,1.54v13.405c-1.314,0.046-2.369,1.146-2.369,2.497v2.737c-0.087,0.03-0.188,0.061-0.277,0.092
		c0.675,0.843,1.26,1.74,1.756,2.684c0.731-0.19,1.494-0.292,2.282-0.292c5.001,0,9.069,4.069,9.069,9.069
		c0,5.001-4.068,9.07-9.069,9.07c-1.142,0-2.235-0.213-3.242-0.6c-0.6,0.889-1.284,1.718-2.038,2.477
		c1.597,0.771,3.387,1.204,5.28,1.204c6.708,0,12.15-5.441,12.15-12.151C46.143,27.586,42.781,23.109,38.131,21.417z"/>
	<path d="M21.808,17.872v-3.515c0-1.694-1.34-3.06-3.032-3.06H18.56V2.652c0-0.851-0.685-1.54-1.535-1.54
		c-0.852,0-1.535,0.689-1.535,1.54v8.646h-0.28c-1.693,0-3.057,1.365-3.057,3.06v3.359c-5.967,1.946-10.296,7.56-10.296,14.183
		c0,8.238,6.676,14.917,14.912,14.917c8.237,0,14.897-6.678,14.897-14.916C31.666,25.445,27.601,19.948,21.808,17.872z M7.039,31.32
		c-0.668,0-1.208-0.54-1.208-1.207c0-0.666,0.54-1.206,1.208-1.206c0.666,0,1.204,0.54,1.204,1.206
		C8.243,30.781,7.705,31.32,7.039,31.32z M12.98,23.265c-0.052,0.02-2.96,1.118-4.113,3.816c-0.198,0.459-0.645,0.737-1.115,0.737
		c-0.159,0-0.32-0.033-0.476-0.099c-0.616-0.262-0.903-0.975-0.64-1.591c1.582-3.704,5.365-5.089,5.526-5.146
		c0.634-0.227,1.325,0.104,1.549,0.735C13.938,22.346,13.61,23.039,12.98,23.265z"/>
</g>
</svg>
