<?xml version="1.0" encoding="utf-8"?>
<!-- Generator: Adobe Illustrator 16.0.0, SVG Export Plug-In . SVG Version: 6.00 Build 0)  -->
<!DOCTYPE svg PUBLIC "-//W3C//DTD SVG 1.1//EN" "http://www.w3.org/Graphics/SVG/1.1/DTD/svg11.dtd">
<svg version="1.1" id="Layer_1" xmlns="http://www.w3.org/2000/svg" xmlns:xlink="http://www.w3.org/1999/xlink" x="0px" y="0px"
	 width="48px" height="48px" viewBox="0 0 48 48" enable-background="new 0 0 48 48" xml:space="preserve">
<g>
	<path d="M38.608,5.164c-5.974-1.485-12.055,2.165-13.539,8.14l-0.963,3.875l-0.962-3.875c-1.484-5.975-7.565-9.625-13.54-8.14
		C3.63,6.647-0.035,12.718,1.45,18.691l0.862,3.479c0.532,2.139,2.716,3.443,4.854,2.912c2.139-0.532,3.459-2.708,2.929-4.844
		l-0.864-3.479c-0.423-1.698,0.618-3.424,2.315-3.846c1.7-0.422,3.427,0.616,3.85,2.313l2.077,8.364l3.646,0.93
		c0.118-0.075,1.118-0.635,2.161-0.635h1.21c1.307,0,2.393,0.575,2.393,0.575l3.885-0.989l2.049-8.245
		c0.423-1.697,2.149-2.735,3.848-2.313c1.699,0.422,2.739,2.147,2.316,3.846l-0.863,3.479c-0.531,2.136,0.788,4.312,2.927,4.844
		c2.14,0.531,4.324-0.773,4.855-2.912l0.863-3.479C48.247,12.718,44.584,6.647,38.608,5.164z M3.517,14.507l3.379,0.944
		c-0.062,0.604-0.021,1.232,0.133,1.854l0.309,1.244l-3.822-1.067C3.342,16.476,3.351,15.472,3.517,14.507z M6.626,22.892
		c-0.932,0.231-1.878-0.337-2.109-1.269l-0.264-1.061l3.649,1.017C7.765,22.203,7.286,22.727,6.626,22.892z M7.408,13.647
		l-2.833-2.082C5,10.826,5.53,10.146,6.149,9.554l2.633,2.308C8.204,12.357,7.734,12.967,7.408,13.647z M10.99,10.728
		c-0.478,0.117-0.921,0.297-1.331,0.523L8.53,7.925c0.512-0.239,1.054-0.434,1.621-0.572c0.356-0.091,0.715-0.155,1.07-0.197
		l0.75,3.422C11.646,10.597,11.317,10.647,10.99,10.728z M15.079,11.337c-0.656-0.393-1.396-0.646-2.171-0.734l1.502-3.259
		c0.846,0.208,1.654,0.539,2.4,0.979L15.079,11.337z M17.564,14.689c-0.158-0.639-0.424-1.225-0.772-1.739l2.543-2.416
		c0.601,0.773,1.079,1.652,1.405,2.617l-2.88,2.729L17.564,14.689z M19.453,22.291l-0.795-3.2l2.9-2.747l0.796,3.2L19.453,22.291z
		 M28.76,22.291l-2.901-2.747l0.795-3.2l2.901,2.747L28.76,22.291z M30.648,14.689l-0.297,1.191l-2.878-2.729
		c0.325-0.965,0.804-1.844,1.404-2.617l2.543,2.416C31.071,13.465,30.808,14.051,30.648,14.689z M33.134,11.337l-1.731-3.014
		c0.746-0.44,1.556-0.771,2.401-0.979l1.501,3.259C34.528,10.691,33.79,10.944,33.134,11.337z M38.555,11.251
		c-0.41-0.227-0.855-0.406-1.331-0.523c-0.327-0.08-0.656-0.131-0.981-0.15l0.748-3.422c0.357,0.042,0.715,0.106,1.071,0.197
		c0.568,0.139,1.11,0.333,1.621,0.572L38.555,11.251z M39.43,11.861l2.633-2.308c0.62,0.593,1.15,1.272,1.576,2.012l-2.833,2.082
		C40.479,12.967,40.01,12.357,39.43,11.861z M43.697,21.623c-0.231,0.932-1.178,1.5-2.109,1.269
		c-0.661-0.165-1.14-0.688-1.278-1.313l3.651-1.017L43.697,21.623z M44.699,17.482l-3.822,1.067l0.309-1.244
		c0.153-0.622,0.193-1.25,0.131-1.854l3.38-0.944C44.861,15.472,44.872,16.476,44.699,17.482z"/>
	<path d="M32.253,36.013l-5.401-1.375c-0.341,0.244-0.723,0.444-1.131,0.574l3.353,7.565c0.103,0.231,0.33,0.389,0.584,0.389
		c0.005,0,0.012,0,0.019,0c0.261,0,0.487-0.186,0.579-0.426l0.631-1.715c0.058-0.162,0.181-0.296,0.338-0.366
		c0.082-0.037,0.171-0.057,0.258-0.057c0.082,0,0.162,0.015,0.24,0.047l1.69,0.678c0.077,0.031,0.157,0.047,0.238,0.047
		c0.169,0,0.335-0.066,0.456-0.193c0.181-0.187,0.23-0.466,0.127-0.702L32.253,36.013z"/>
	<path d="M15.52,36.013l-1.979,4.466c-0.106,0.238-0.057,0.516,0.125,0.702c0.122,0.128,0.288,0.194,0.456,0.194
		c0.082,0,0.162-0.015,0.24-0.045l1.691-0.682c0.077-0.031,0.156-0.046,0.238-0.046c0.087,0,0.176,0.018,0.259,0.055
		c0.156,0.07,0.28,0.2,0.34,0.363l0.631,1.719c0.089,0.244,0.317,0.427,0.577,0.427c0.007,0,0.013,0,0.021,0
		c0.251,0,0.479-0.157,0.581-0.389l3.353-7.565c-0.409-0.13-0.79-0.328-1.133-0.573L15.52,36.013z"/>
	<path d="M19.221,31.346v-3.4c0-0.719,0.193-1.396,0.524-1.981l-6.958-1.774c-0.596-0.151-1.219-0.02-1.704,0.357
		c-0.485,0.378-0.76,0.957-0.76,1.573v6.867c0,0.614,0.275,1.194,0.761,1.571c0.485,0.376,1.114,0.509,1.71,0.357l6.866-1.752
		C19.384,32.616,19.221,31.999,19.221,31.346z"/>
	<path d="M36.71,24.547c-0.486-0.378-1.126-0.51-1.722-0.355l-6.97,1.772c0.329,0.586,0.507,1.263,0.507,1.981v3.4
		c0,0.653-0.147,1.271-0.424,1.819l6.876,1.751c0.596,0.151,1.242,0.021,1.729-0.357c0.485-0.377,0.784-0.957,0.784-1.572v-6.869
		C37.49,25.504,37.194,24.925,36.71,24.547z"/>
	<path d="M24.524,33.661c1.279,0,2.314-1.037,2.314-2.315v-3.393c0-1.279-1.035-2.315-2.314-2.315H23.29
		c-1.279,0-2.316,1.036-2.316,2.315v3.393c0,1.278,1.037,2.315,2.316,2.315H24.524z"/>
</g>
</svg>
