<?xml version="1.0" encoding="utf-8"?>
<!-- Generator: Adobe Illustrator 16.0.0, SVG Export Plug-In . SVG Version: 6.00 Build 0)  -->
<!DOCTYPE svg PUBLIC "-//W3C//DTD SVG 1.1//EN" "http://www.w3.org/Graphics/SVG/1.1/DTD/svg11.dtd">
<svg version="1.1" id="Layer_1" xmlns="http://www.w3.org/2000/svg" xmlns:xlink="http://www.w3.org/1999/xlink" x="0px" y="0px"
	 width="48px" height="48px" viewBox="0 0 48 48" enable-background="new 0 0 48 48" xml:space="preserve">
<g>
	<path d="M38.238,18.587c-1.134-0.771-5.504-3.285-14.165-3.285c-8.663,0-13.032,2.515-14.166,3.285
		c-0.825,0.562-1.318,1.493-1.318,2.491s0.494,1.931,1.32,2.491c1.132,0.771,5.504,3.283,14.164,3.283
		c8.658,0,13.03-2.513,14.164-3.283c0.824-0.561,1.318-1.493,1.318-2.491S39.063,19.148,38.238,18.587z M24.073,23.841
		c-5.986,0-9.911-1.318-11.84-2.379c-0.14-0.077-0.227-0.224-0.227-0.384s0.087-0.307,0.227-0.384
		c1.928-1.061,5.853-2.38,11.84-2.38c5.986,0,9.911,1.318,11.839,2.379c0.14,0.077,0.227,0.225,0.227,0.385
		c0,0.159-0.087,0.307-0.227,0.384C33.984,22.521,30.06,23.841,24.073,23.841z"/>
	<path d="M47.15,21.078c0-7.54-9.382-12.806-22.97-12.806S1.21,13.538,1.21,21.078c0,0.696,0,3.328,0,4.017
		c0,7.54,9.383,12.805,22.971,12.805s23.022-5.265,23.022-12.805C47.203,24.403,47.15,21.771,47.15,21.078z M40.153,28.159
		c-1.441,0.791-1.72,2.882-6.228,4.555s-7.107-1.211-10.41-1.211c-2.834,0-2.927,3.35-7.063,2.326
		c-4.136-1.022-3.781-4.544-5.297-4.874c-1.517-0.33-1.209,1.296-3.16,1.002c-1.952-0.294-2.092-4.236-2.509-5.747
		c-0.227-0.821-1.479-2.283-1.479-3.132c0-5.674,8.438-9.793,20.065-9.793c11.41,0,19.75,3.967,20.056,9.479
		C44.944,25.59,41.594,27.37,40.153,28.159z"/>
	<circle cx="8.784" cy="26.255" r="1.302"/>
	<circle cx="17.196" cy="29.787" r="1.301"/>
	<circle cx="32.811" cy="29.276" r="1.301"/>
	<circle cx="41.873" cy="23.001" r="1.301"/>
	<circle cx="22.518" cy="29.218" r="1"/>
	<circle cx="28.675" cy="30.101" r="0.883"/>
	<circle cx="38.126" cy="25.99" r="0.9"/>
	<circle cx="40.223" cy="17.44" r="0.667"/>
	<circle cx="30.219" cy="13.976" r="0.66"/>
	<circle cx="27.258" cy="13.637" r="0.907"/>
	<circle cx="36.244" cy="14.854" r="0.877"/>
	<circle cx="20.054" cy="13.637" r="0.907"/>
	<circle cx="13.595" cy="14.53" r="0.86"/>
	<circle cx="9.517" cy="16.667" r="0.732"/>
	<circle cx="6.693" cy="19.423" r="0.79"/>
</g>
</svg>
