<?xml version="1.0" encoding="utf-8"?>
<!-- Generator: Adobe Illustrator 16.0.0, SVG Export Plug-In . SVG Version: 6.00 Build 0)  -->
<!DOCTYPE svg PUBLIC "-//W3C//DTD SVG 1.1//EN" "http://www.w3.org/Graphics/SVG/1.1/DTD/svg11.dtd">
<svg version="1.1" id="Layer_1" xmlns="http://www.w3.org/2000/svg" xmlns:xlink="http://www.w3.org/1999/xlink" x="0px" y="0px"
	 width="48px" height="48px" viewBox="0 0 48 48" enable-background="new 0 0 48 48" xml:space="preserve">
<g>
	<path d="M20.547,11.603c0.381,0.345,0.675,0.749,0.892,1.182c0.876-0.037,1.776-0.063,2.727-0.064
		c0.95,0.001,1.851,0.028,2.727,0.064c0.218-0.433,0.511-0.837,0.891-1.182l2.839-2.574c-2.042-0.206-4.094-0.313-6.245-0.323V8.705
		c0,0-0.371,0-0.445,0v0.001c-2.078,0.011-4.192,0.118-6.233,0.323L20.547,11.603z"/>
	<path d="M3.811,4.631l12.703,11.448c0.385,0.345,0.865,0.516,1.343,0.516c0.551,0,1.097-0.224,1.493-0.664
		c0.743-0.824,0.677-2.094-0.147-2.836L6.499,1.648C5.675,0.905,4.404,0.973,3.663,1.795C2.92,2.62,2.986,3.889,3.811,4.631z"/>
	<path d="M40.369,11.076l-3.449,3.11c3.412,0.92,5.202,2.041,5.351,2.643c-0.28,1.085-6.264,4.051-18.105,4.064
		C12.324,20.88,6.34,17.914,6.061,16.829c0.148-0.602,1.938-1.722,5.351-2.643l-3.449-3.11c-3.561,1.323-5.911,3.217-5.911,5.731
		c0,0.024,0.028,22.392,0.028,22.392C2.485,44.498,13.543,46.947,23.931,47l0.445,0v0c10.463-0.052,21.458-2.501,21.864-7.801
		c0,0,0.029-22.368,0.029-22.392C46.27,14.293,43.93,12.399,40.369,11.076z M5.899,28.978V23.46
		c1.039,0.402,2.321,0.791,3.697,1.148L5.899,28.978z M24.165,40.191L13.979,25.502c4.665,1.208,15.438,1.133,20.37,0L24.165,40.191
		z M42.407,28.978l-3.697-4.37c1.376-0.358,2.658-0.747,3.697-1.148V28.978z"/>
	<path d="M28.981,15.931c0.396,0.44,0.942,0.664,1.492,0.664c0.478,0,0.959-0.171,1.344-0.516L44.52,4.631
		c0.824-0.742,0.891-2.012,0.147-2.836c-0.741-0.823-2.011-0.89-2.836-0.147L29.128,13.095
		C28.305,13.837,28.237,15.107,28.981,15.931z"/>
</g>
</svg>
