<?xml version="1.0" encoding="utf-8"?>
<!-- Generator: Adobe Illustrator 16.0.0, SVG Export Plug-In . SVG Version: 6.00 Build 0)  -->
<!DOCTYPE svg PUBLIC "-//W3C//DTD SVG 1.1//EN" "http://www.w3.org/Graphics/SVG/1.1/DTD/svg11.dtd">
<svg version="1.1" id="Layer_1" xmlns="http://www.w3.org/2000/svg" xmlns:xlink="http://www.w3.org/1999/xlink" x="0px" y="0px"
	 width="48px" height="48px" viewBox="0 0 48 48" enable-background="new 0 0 48 48" xml:space="preserve">
<path d="M44.597,17.985v-1.214c0-0.858-0.695-1.554-1.554-1.554H32.202V6.68h0.03c0.962,0,1.741-0.78,1.741-1.741V2.973
	c0-0.961-0.779-1.741-1.741-1.741H17.233c-0.962,0-1.741,0.78-1.741,1.741v1.966c0,0.961,0.779,1.741,1.741,1.741h0.03v8.537H6.422
	c-0.858,0-1.554,0.696-1.554,1.554v1.214c0,2.857,2.314,5.176,5.176,5.194v18.223c-2.861,0.018-5.176,2.336-5.176,5.194V47h39.729
	v-0.404c0-2.858-2.314-5.176-5.176-5.194V23.179C42.282,23.161,44.597,20.842,44.597,17.985z M33.473,38.917h-5.161
	c1.055-0.726,1.489-1.798,1.489-2.869c0-2.039-2.21-2.151-2.534-5.429c-0.032-0.318-0.435-0.439-0.623-0.181
	c-0.593,0.813-1.348,2.342-0.78,4.396c0,0-2.819-1.031-0.863-4.022c0.939-1.437,0.045-4.266-0.268-4.266s-0.047,1.985-1.697,3.504
	c-3.613,3.324-3.271,7.278-1.166,8.867h-5.877V23.162h17.48V38.917z"/>
</svg>
