<?xml version="1.0" encoding="utf-8"?>
<!-- Generator: Adobe Illustrator 16.0.0, SVG Export Plug-In . SVG Version: 6.00 Build 0)  -->
<!DOCTYPE svg PUBLIC "-//W3C//DTD SVG 1.1//EN" "http://www.w3.org/Graphics/SVG/1.1/DTD/svg11.dtd">
<svg version="1.1" id="Layer_1" xmlns="http://www.w3.org/2000/svg" xmlns:xlink="http://www.w3.org/1999/xlink" x="0px" y="0px"
	 width="48px" height="48px" viewBox="0 0 48 48" enable-background="new 0 0 48 48" xml:space="preserve">
<g>
	<path d="M46.947,42.263l-6.398-9.962h1.16c0.633,0,1.215-0.354,1.512-0.914c0.299-0.559,0.264-1.246-0.091-1.771l-5.382-8.007
		h1.168c0.633,0,1.214-0.342,1.512-0.9c0.298-0.559,0.264-1.232-0.089-1.758l-5.547-8.274c-0.317-0.475-0.852-0.759-1.423-0.759
		c-0.572,0-1.105,0.286-1.423,0.76l-3.229,4.82v-0.318c0-0.874-0.715-1.589-1.589-1.589h-3.44c-0.703,0-1.312,0.466-1.521,1.106
		l-5.853-8.733c-0.411-0.613-1.102-0.982-1.84-0.982c-0.738,0-1.429,0.368-1.84,0.981l-4.606,6.875
		c-0.515,0.767-0.506,1.767,0.054,2.534c0.433,0.592,1.164,0.892,1.896,0.892h0.119L9.811,16.7
		c-2.484,0.475-4.416,2.535-4.678,5.143L4.92,23.971l-0.209,0.311c-0.353,0.526-0.389,1.205-0.09,1.764
		c0.024,0.045,0.051,0.088,0.079,0.131L4.296,30.22c-0.04,0.396,0.017,0.794,0.157,1.16l-3.558,5.542
		c-0.337,0.527-0.361,1.199-0.062,1.75c0.301,0.55,0.877,0.894,1.505,0.894h3.212v4.464c0,1.315,1.076,2.391,2.391,2.391h2.201
		l0.099-9.584c0.014-1.328,1.096-2.396,2.423-2.393l3.678,0.009c1.338,0.003,2.419,1.092,2.412,2.429l-0.045,9.539h13.668
		c1.013,0,1.875-0.617,2.22-1.508h10.908c0.627,0,1.203-0.347,1.504-0.897S47.285,42.791,46.947,42.263z M29.47,40.365
		c0,0.681-0.555,1.257-1.235,1.257h-4.678c-0.683,0-1.215-0.576-1.215-1.257v-4.679c0-0.683,0.532-1.261,1.215-1.261h4.678
		c0.681,0,1.235,0.578,1.235,1.261V40.365z M6.828,30.93c-0.115,0-0.226-0.072-0.301-0.155c-0.077-0.086-0.114-0.216-0.104-0.331
		l0.838-8.388c0.188-1.885,1.759-3.327,3.651-3.327h18.511c1.894,0,3.463,1.439,3.652,3.323l0.836,8.377
		c0.013,0.114-0.025,0.255-0.104,0.339c-0.076,0.085-0.187,0.161-0.299,0.161H6.828z"/>
	<path d="M11.649,37.079v9.341h5.688v-9.341c0-0.7-0.567-1.267-1.267-1.267h-3.155C12.217,35.813,11.649,36.379,11.649,37.079z"/>
	<path d="M41.828,10.394c2.934,0,5.313-2.377,5.313-5.311c0-2.029-1.139-3.792-2.811-4.686c0.396,0.746,0.626,1.597,0.626,2.502
		c0,2.933-2.379,5.312-5.313,5.312c-0.904,0-1.756-0.228-2.501-0.626C38.036,9.256,39.799,10.394,41.828,10.394z"/>
</g>
</svg>
