<?xml version="1.0" encoding="utf-8"?>
<!-- Generator: Adobe Illustrator 16.0.0, SVG Export Plug-In . SVG Version: 6.00 Build 0)  -->
<!DOCTYPE svg PUBLIC "-//W3C//DTD SVG 1.1//EN" "http://www.w3.org/Graphics/SVG/1.1/DTD/svg11.dtd">
<svg version="1.1" id="Layer_1" xmlns="http://www.w3.org/2000/svg" xmlns:xlink="http://www.w3.org/1999/xlink" x="0px" y="0px"
	 width="48px" height="48px" viewBox="0 0 48 48" enable-background="new 0 0 48 48" xml:space="preserve">
<path d="M45.007,22.904l-7.379-7.362c1.897-0.7,3.239-2.523,3.239-4.659V6.302c0-2.739-2.201-5.004-4.94-5.004H6.355
	c-2.738,0-5.01,2.265-5.01,5.004v4.581c0,2.739,2.272,4.994,5.01,4.994l0.422-0.001v19.993c0,5.596,4.503,10.168,10.099,10.168
	h8.438c5.596,0,10.121-4.572,10.121-10.168v-4.833c0-0.578,0.354-1.098,0.889-1.319c0.533-0.221,1.146-0.117,1.556,0.312h0.003
	c1.966,1.929,5.155,1.964,7.122-0.002C46.97,28.059,46.973,24.87,45.007,22.904z M6.372,11.875c-0.538,0-0.953-0.424-0.953-0.961
	V6.331c0-0.538,0.415-0.96,0.953-0.96h29.594c0.538,0,0.97,0.422,0.97,0.96v4.583c0,0.537-0.432,0.961-0.97,0.961H6.372z"/>
</svg>
