<?xml version="1.0" encoding="utf-8"?>
<!-- Generator: Adobe Illustrator 16.0.0, SVG Export Plug-In . SVG Version: 6.00 Build 0)  -->
<!DOCTYPE svg PUBLIC "-//W3C//DTD SVG 1.1//EN" "http://www.w3.org/Graphics/SVG/1.1/DTD/svg11.dtd">
<svg version="1.1" id="Layer_1" xmlns="http://www.w3.org/2000/svg" xmlns:xlink="http://www.w3.org/1999/xlink" x="0px" y="0px"
	 width="48px" height="48px" viewBox="0 0 48 48" enable-background="new 0 0 48 48" xml:space="preserve">
<path d="M47.15,18.702c0-6.415-5.201-11.616-11.616-11.616c-5.729,0-10.488,4.15-11.441,9.606c-0.953-5.456-5.711-9.606-11.44-9.606
	c-6.416,0-11.616,5.201-11.616,11.616c-0.34,9.443,14.546,25.081,22.921,25.112c0.044,0,0.227,0,0.272,0
	C32.604,43.783,47.49,28.146,47.15,18.702z M4.264,17.563c0-1.301,1.055-2.354,2.355-2.354s2.354,1.054,2.354,2.354
	s-1.054,2.356-2.354,2.356S4.264,18.863,4.264,17.563z M22.373,38.106c-0.381,0.64-1.059,0.997-1.754,0.997
	c-0.352,0-0.708-0.091-1.033-0.283c-0.348-0.206-8.571-5.15-13.138-15.102c-0.469-1.021-0.02-2.229,1.002-2.699
	c1.022-0.469,2.231-0.021,2.701,1.002c4.015,8.749,11.437,13.248,11.511,13.293C22.627,35.891,22.946,37.139,22.373,38.106z"/>
</svg>
