<?xml version="1.0" encoding="utf-8"?>
<!-- Generator: Adobe Illustrator 16.0.0, SVG Export Plug-In . SVG Version: 6.00 Build 0)  -->
<!DOCTYPE svg PUBLIC "-//W3C//DTD SVG 1.1//EN" "http://www.w3.org/Graphics/SVG/1.1/DTD/svg11.dtd">
<svg version="1.1" id="Layer_1" xmlns="http://www.w3.org/2000/svg" xmlns:xlink="http://www.w3.org/1999/xlink" x="0px" y="0px"
	 width="48px" height="48px" viewBox="0 0 48 48" enable-background="new 0 0 48 48" xml:space="preserve">
<path d="M42.988,42.886c-0.006,0-0.013,0-0.02,0c-0.099,0-3.599,0.05-8.377,0.081v-1.913h1.126c1.779,0,3.254-1.435,3.254-3.215
	v-0.161c1.274-0.434,2.53-1.283,3.386-2.446c1.286-1.75,1.734-4.19,1.154-6.219c-0.26-0.908-0.53-1.823-0.79-2.717
	c-0.856-2.946-1.926-6.611-1.927-7.354l0.154-14.36c0.015-1.284-0.604-2.069-1.141-2.617C38.857,0.988,37.589,1,36.979,1h-9.222
	c-2.243,0-3.95,1.598-3.97,3.731L23.68,15.879c-0.019,2.052-1.68,3.674-3.781,3.674h-4.455c-6.1,0-11.031,5.015-11.031,11.228v0.399
	c0,1.801,0.709,3.567,1.973,4.846c1.264,1.279,3.007,2.013,4.797,2.013l4.371-0.006l0.008,4.97c-2.389-0.017-4.169-0.048-5.108-0.1
	c-3.046-0.169-3.506-4.212-3.525-4.405c-0.106-1.114-1.097-1.943-2.213-1.833c-1.118,0.102-1.944,1.091-1.843,2.209
	c0.243,2.67,2.089,7.798,7.341,8.09c1.678,0.093,5.925,0.124,10.83,0.124c9.402,0,21.219-0.114,21.967-0.121
	c1.123-0.011,2.024-0.938,2.014-2.061C45.012,43.791,44.103,42.886,42.988,42.886z M37.743,18.924c0,1.136,0.74,3.732,2.046,8.224
	c0.259,0.89,0.524,1.802,0.782,2.705c0.27,0.944,0.11,2.124-0.382,3.079h-4.323V4.026h0.835c0.594,0,1.074,0.482,1.072,1.075
	L37.743,18.924z M7.438,30.782c0-3.958,2.74-7.272,6.38-8.047c0.205,1.719,0.39,3.316,0.404,3.483c0,0.946,0.861,1.69,1.842,1.493
	c0.769-0.155,1.263-0.914,1.194-1.695c-0.026-0.313-0.113-1.126-0.394-3.436h2.222l1.029,3.312c0.203,0.654,0.806,1.07,1.457,1.07
	c0.206,0,0.421-0.047,0.629-0.135c0.709-0.299,1.054-1.114,0.826-1.849l-0.863-2.783c0.573-0.194,1.108-0.459,1.599-0.786
	l2.629,2.37c0.291,0.263,0.657,0.392,1.021,0.392c0.416,0,0.832-0.17,1.133-0.503c0.563-0.626,0.515-1.59-0.111-2.154l-2.591-2.335
	c0.223-0.388,0.407-0.8,0.549-1.233l2.739,0.22c0.041,0.003,0.082,0.005,0.124,0.005c0.785,0,1.453-0.605,1.518-1.403
	c0.067-0.84-0.558-1.575-1.397-1.642l-2.637-0.231l0.025-2.666h2.989c0.701,0,1.356-0.455,1.519-1.136
	c0.24-1.011-0.517-1.89-1.481-1.89h-2.997l0.011-4.106c0.002-0.591,0.481-1.07,1.073-1.07h4.962v28.906H7.853
	c-0.273-0.558-0.415-1.142-0.415-1.75V30.782z M19.622,43.02l-0.017-4.993l6.129-0.013c0.094,1.696,1.491,3.04,3.211,3.04h1.586
	v1.938C26.947,43.01,23.046,43.024,19.622,43.02z"/>
</svg>
