<?xml version="1.0" encoding="utf-8"?>
<!-- Generator: Adobe Illustrator 16.0.0, SVG Export Plug-In . SVG Version: 6.00 Build 0)  -->
<!DOCTYPE svg PUBLIC "-//W3C//DTD SVG 1.1//EN" "http://www.w3.org/Graphics/SVG/1.1/DTD/svg11.dtd">
<svg version="1.1" id="Layer_1" xmlns="http://www.w3.org/2000/svg" xmlns:xlink="http://www.w3.org/1999/xlink" x="0px" y="0px"
	 width="48px" height="48px" viewBox="0 0 48 48" enable-background="new 0 0 48 48" xml:space="preserve">
<g>
	<path d="M28.09,43.103c-0.336-0.181-0.956-0.502-1.227-0.698c-3.708-2.211-3.75-6.04-3.75-6.04
		c0.042-0.666-0.438-1.268-1.109-1.356c-2.706-0.36-1.924,6.733,2.537,10.412c0.387,0.364,1.041,0.825,1.509,1.166
		C28.327,48.262,30.813,44.574,28.09,43.103z"/>
	<path d="M40.703,21.194c-1.339-0.256-3.022-0.523-4.841-0.682c1.988-3.857,3.322-7.953,4.072-10.616
		c0.372-1.326-0.849-2.551-2.177-2.178c-2.511,0.707-6.296,1.935-9.955,3.739C26.495,7.64,24.71,4.144,23.448,1.89
		c-0.678-1.209-2.434-1.201-3.108,0c-1.263,2.254-3.047,5.75-4.354,9.567c-3.658-1.805-7.444-3.032-9.955-3.739
		C4.708,7.346,3.48,8.565,3.854,9.896c0.749,2.663,2.083,6.759,4.071,10.616c-5.16,0.449-5.858,0.828-6.193,1.885
		c-0.194,0.62-0.033,1.295,0.42,1.761c1.73,1.781,4.381,4.252,7.324,6.079c-2.682,1.793-3.503,2.49-3.233,3.708
		c0.143,0.649,0.638,1.161,1.281,1.328c7.133,1.853,11.555,0.675,13.967-1.205c-0.605-3.975,0.829-3.517-8.603-0.92
		c-0.296,0.083-0.458-0.343-0.179-0.477l5.992-2.906c0.638-0.31,0.593-1.236-0.076-1.482l-7.041-2.561
		c-0.3-0.11-0.164-0.564,0.148-0.49l6.446,1.563c0.752,0.183,1.304-0.703,0.809-1.297l-7.489-8.988
		c-0.086-0.104-0.077-0.257,0.022-0.35c0.099-0.093,0.252-0.092,0.351,0.001l7.504,7.118c0.512,0.487,1.365,0.121,1.359-0.592
		c-0.072-6.45,0.463-12.409,0.795-13.759c0.095-0.378,0.634-0.376,0.728,0c0.474,1.904,0.811,9.013,0.796,11.129
		c0.023,2.354-0.234,3.065,0.483,3.377c0.297,0.129,0.641,0.068,0.875-0.155l7.505-7.118c0.234-0.22,0.576,0.106,0.373,0.349
		L24.8,25.498c-0.491,0.59,0.054,1.481,0.809,1.297l6.447-1.563c0.312-0.076,0.448,0.38,0.147,0.49
		c-6.771,2.463-7.523,2.403-7.57,3.277c-0.016,0.322,0.162,0.625,0.453,0.766l5.992,2.906c0.278,0.134,0.119,0.561-0.18,0.477
		c-9.494-2.614-8.003-2.992-8.603,0.92c2.407,1.873,6.823,3.062,13.968,1.205c0.643-0.167,1.138-0.679,1.281-1.328
		c0.286-1.289-0.697-2.013-3.232-3.708c2.943-1.826,5.593-4.297,7.324-6.079C42.617,23.147,42.077,21.459,40.703,21.194z"/>
</g>
</svg>
