<?xml version="1.0" encoding="utf-8"?>
<!-- Generator: Adobe Illustrator 16.0.0, SVG Export Plug-In . SVG Version: 6.00 Build 0)  -->
<!DOCTYPE svg PUBLIC "-//W3C//DTD SVG 1.1//EN" "http://www.w3.org/Graphics/SVG/1.1/DTD/svg11.dtd">
<svg version="1.1" id="Layer_1" xmlns="http://www.w3.org/2000/svg" xmlns:xlink="http://www.w3.org/1999/xlink" x="0px" y="0px"
	 width="48px" height="48px" viewBox="0 0 48 48" enable-background="new 0 0 48 48" xml:space="preserve">
<g>
	<path d="M20.675,12.223c-0.164,0.096-4.007,2.4-2.92,7.914c0.096,0.485,0.521,0.82,0.997,0.82c0.065,0,0.132-0.005,0.199-0.019
		c0.552-0.108,0.909-0.644,0.801-1.195c-0.796-4.034,1.819-5.683,1.951-5.762c0.481-0.285,0.645-0.904,0.363-1.388
		C21.784,12.105,21.16,11.941,20.675,12.223z"/>
	<circle cx="19.516" cy="23.31" r="1.134"/>
	<path d="M31.98,10.005c-0.831-0.845-1.775-1.529-2.799-2.059l0.015-1.801h12.317c1.406,0,2.544-1.166,2.544-2.571
		c0-1.405-1.139-2.57-2.544-2.57H6.695c-1.405,0-2.544,1.166-2.544,2.57c0,1.406,1.139,2.571,2.544,2.571h12.469l-0.014,1.759
		c-3.57,1.811-6.042,5.502-6.077,9.759c-0.022,2.771,1.004,7.633,2.439,11.566c2.224,6.095,5.061,9.196,8.431,9.224
		c3.399,0,6.273-3.063,8.585-9.105c1.497-3.906,2.598-8.749,2.619-11.513C35.173,14.889,34.047,12.106,31.98,10.005z M23.986,35.37
		c-0.006,0-0.011,0-0.018,0c-4.41,0-7.877-13.297-7.842-17.707c0.035-4.387,3.603-7.91,7.98-7.91c0.023,0,0.046,0,0.068,0
		c4.412,0,7.957,3.629,7.921,8.039C32.061,22.196,28.389,35.37,23.986,35.37z"/>
	<path d="M25.024,40.948c-0.257-0.205-0.564-0.345-0.92-0.345l0,0l0,0c-0.355,0-0.671,0.141-0.928,0.345
		c-0.352,0.279-0.568,0.731-0.568,1.218v3.184c0,0.487,0.216,0.94,0.568,1.22c0.257,0.204,0.573,0.346,0.928,0.346l0,0l0,0
		c0.355,0,0.663-0.143,0.92-0.346c0.352-0.28,0.56-0.732,0.56-1.22v-3.184C25.584,41.679,25.376,41.228,25.024,40.948z"/>
	<path d="M11.076,19.946c0-0.844-0.683-1.534-1.526-1.534H6.366c-0.844,0-1.528,0.69-1.528,1.534c0,0.843,0.684,1.533,1.528,1.533
		H9.55C10.394,21.479,11.076,20.79,11.076,19.946z"/>
	<path d="M12.102,33.194l-2.252,2.252c-0.595,0.597-0.595,1.563,0,2.158c0.299,0.298,0.689,0.448,1.081,0.448
		c0.389,0,0.781-0.15,1.079-0.448l2.252-2.252c0.596-0.597,0.596-1.563,0-2.159C13.664,32.598,12.698,32.598,12.102,33.194z"/>
	<path d="M41.843,18.413h-3.185c-0.843,0-1.526,0.69-1.526,1.534c0,0.843,0.683,1.533,1.526,1.533h3.185
		c0.843,0,1.527-0.69,1.527-1.533C43.37,19.103,42.686,18.413,41.843,18.413z"/>
	<path d="M36.106,33.194c-0.597-0.596-1.562-0.596-2.159,0c-0.596,0.596-0.596,1.562,0,2.159l2.252,2.252
		c0.298,0.298,0.689,0.448,1.079,0.448c0.391,0,0.781-0.15,1.08-0.448c0.596-0.596,0.596-1.562,0-2.158L36.106,33.194z"/>
</g>
</svg>
