<?xml version="1.0" encoding="utf-8"?>
<!-- Generator: Adobe Illustrator 16.0.0, SVG Export Plug-In . SVG Version: 6.00 Build 0)  -->
<!DOCTYPE svg PUBLIC "-//W3C//DTD SVG 1.1//EN" "http://www.w3.org/Graphics/SVG/1.1/DTD/svg11.dtd">
<svg version="1.1" id="Layer_1" xmlns="http://www.w3.org/2000/svg" xmlns:xlink="http://www.w3.org/1999/xlink" x="0px" y="0px"
	 width="48px" height="48px" viewBox="0 0 48 48" enable-background="new 0 0 48 48" xml:space="preserve">
<path d="M41.609,6.082c-3.2-3.2-7.454-4.962-11.979-4.962c-4.526,0-8.78,1.763-11.978,4.961c-3.2,3.199-4.963,7.453-4.963,11.979
	c0,3.856,1.292,7.51,3.65,10.488L1.753,43.133c-0.803,0.802-0.803,2.102,0,2.904c0.4,0.401,0.926,0.601,1.451,0.601
	c0.526,0,1.052-0.2,1.452-0.601l14.601-14.601c2.958,2.303,6.565,3.566,10.375,3.566c4.524,0,8.778-1.763,11.978-4.962
	c3.199-3.199,4.961-7.454,4.961-11.979C46.571,13.535,44.808,9.28,41.609,6.082z M38.023,7.047c-3.93,3.14-6.347,6.985-7.54,9.248
	c-0.529-0.256-1.144-0.262-1.676-0.017c-1.489-4.465-1.061-8.902-0.354-12.021C28.842,4.225,29.234,4.2,29.629,4.2
	C32.706,4.2,35.621,5.208,38.023,7.047z M18.682,9.578c3.09,4.033,6.924,6.538,9.121,7.752c-0.204,0.512-0.178,1.088,0.064,1.586
	c-4.423,1.58-8.856,1.243-12.021,0.583c-0.049-0.476-0.077-0.956-0.077-1.44C15.769,14.946,16.8,11.997,18.682,9.578z
	 M21.351,29.159c0.054-0.114,0.096-0.233,0.127-0.354c3.837-3.136,6.193-6.882,7.309-8.973c0.473,0.225,1.011,0.252,1.499,0.079
	c1.607,4.377,1.324,8.78,0.699,11.946c-0.447,0.042-0.898,0.066-1.354,0.066C26.603,31.922,23.732,30.943,21.351,29.159z
	 M40.54,26.596c-3.162-3.957-7.023-6.378-9.218-7.541c0.296-0.504,0.35-1.106,0.16-1.647c4.396-1.591,8.811-1.29,11.944-0.671
	c0.042,0.438,0.064,0.878,0.064,1.324C43.49,21.197,42.446,24.167,40.54,26.596z"/>
</svg>
