<?xml version="1.0" encoding="utf-8"?>
<!-- Generator: Adobe Illustrator 16.0.0, SVG Export Plug-In . SVG Version: 6.00 Build 0)  -->
<!DOCTYPE svg PUBLIC "-//W3C//DTD SVG 1.1//EN" "http://www.w3.org/Graphics/SVG/1.1/DTD/svg11.dtd">
<svg version="1.1" id="Layer_1" xmlns="http://www.w3.org/2000/svg" xmlns:xlink="http://www.w3.org/1999/xlink" x="0px" y="0px"
	 width="48px" height="48px" viewBox="0 0 48 48" enable-background="new 0 0 48 48" xml:space="preserve">
<path d="M37.422,10.316c-0.395-1.21-1.465-2.082-2.729-2.223l-4.946-0.552l-2.053-4.533c-0.525-1.159-1.687-1.907-2.957-1.907
	S22.306,1.85,21.78,3.009l-2.053,4.533l-4.945,0.552c-1.266,0.141-2.336,1.014-2.728,2.222c-0.395,1.209-0.041,2.544,0.899,3.401
	l3.677,3.354l-1.003,4.875c-0.258,1.246,0.241,2.534,1.271,3.282c0.446,0.323,0.97,0.513,1.508,0.578l-1.516,4.645l-0.011,0.004
	l0.005,0.014L12.9,42.679c-0.321,0.985-0.151,2.108,0.459,2.95C13.969,46.467,14.951,47,15.986,47h16.935
	c1.027,0,2.004-0.527,2.612-1.352c0.607-0.825,0.791-1.919,0.49-2.902L32.215,30.4l0.018-0.011l-0.178-0.516l-1.246-4.035
	c0.639-0.028,1.248-0.231,1.771-0.61c1.026-0.748,1.524-2.036,1.269-3.28l-1.003-4.877l3.678-3.354
	C37.46,12.859,37.813,11.525,37.422,10.316z M27.951,26.633l-7.543,2.604l1.527-4.682l2.802-1.594l2.523,1.436L27.951,26.633z
	 M24.737,19.55l-5.793,3.296c-0.078,0.044-0.17,0.079-0.303-0.018c-0.088-0.064-0.132-0.175-0.109-0.282l1.345-6.529l-4.924-4.491
	c-0.082-0.073-0.111-0.188-0.078-0.294c0.034-0.103,0.126-0.178,0.235-0.188l6.624-0.739l2.748-6.07c0.091-0.201,0.419-0.201,0.51,0
	l2.748,6.07l6.626,0.739c0.108,0.011,0.2,0.087,0.233,0.189c0.034,0.104,0.003,0.22-0.077,0.293l-4.925,4.491l1.345,6.529
	c0.022,0.107-0.021,0.219-0.108,0.283c-0.132,0.096-0.222,0.062-0.303,0.017L24.737,19.55z M18.49,35.113l0.005,0.016L29.41,31.36
	l1.021,3.312l-13.218,4.352L18.49,35.113z M33.188,43.603c0.025,0.085,0.011,0.213-0.044,0.284
	c-0.052,0.071-0.135,0.146-0.224,0.146H18.008l13.883-4.602L33.188,43.603z"/>
</svg>
