<?xml version="1.0" encoding="utf-8"?>
<!-- Generator: Adobe Illustrator 16.0.0, SVG Export Plug-In . SVG Version: 6.00 Build 0)  -->
<!DOCTYPE svg PUBLIC "-//W3C//DTD SVG 1.1//EN" "http://www.w3.org/Graphics/SVG/1.1/DTD/svg11.dtd">
<svg version="1.1" id="Layer_1" xmlns="http://www.w3.org/2000/svg" xmlns:xlink="http://www.w3.org/1999/xlink" x="0px" y="0px"
	 width="48px" height="48px" viewBox="0 0 48 48" enable-background="new 0 0 48 48" xml:space="preserve">
<g>
	<g>
		<path d="M12.347,10.884c-0.401,0.014-0.73,0.305-0.808,0.684c-0.242,0.039-0.479,0.125-0.69,0.254
			c-0.428,0.263-0.732,0.684-0.849,1.17l-0.027,0.111c0.138-0.007,0.276-0.014,0.415-0.014c0.557,0,1.115,0.066,1.659,0.197
			c0.689,0.165,1.34,0.429,1.933,0.774l0.027-0.109c0.19-0.796-0.153-1.594-0.803-2.018c0.018-0.073,0.026-0.146,0.025-0.224
			C13.212,11.239,12.817,10.869,12.347,10.884z"/>
		<path d="M34.85,30.8l0.049,0.101c0.506-0.47,1.081-0.866,1.719-1.177c0.635-0.312,1.3-0.522,1.985-0.633l-0.051-0.103
			c-0.359-0.735-1.135-1.132-1.903-1.045c-0.033-0.066-0.074-0.13-0.126-0.188c-0.311-0.353-0.85-0.388-1.206-0.074
			c-0.301,0.266-0.368,0.699-0.186,1.041c-0.163,0.184-0.29,0.398-0.371,0.636C34.598,29.833,34.63,30.35,34.85,30.8z"/>
		<path d="M46.738,14.954c-0.214-0.686-0.794-1.194-1.501-1.315C19.808,9.297,4.919,1.422,4.771,1.343
			C3.844,0.842,2.686,1.191,2.187,2.122C1.688,3.051,2.035,4.206,2.964,4.706c0.59,0.317,14.057,7.457,37.743,11.993
			c-5.951,4.996-20.54,15.915-38.184,19.554c-1.032,0.213-1.696,1.223-1.484,2.256c0.187,0.902,0.981,1.523,1.869,1.523
			c0.127,0,0.256-0.012,0.387-0.039c24.129-4.978,42.195-22.367,42.952-23.105C46.762,16.388,46.951,15.64,46.738,14.954z"/>
	</g>
	<path d="M7.715,31.345c2.594,0.765,6.887-6.61,7.722-9.945c0.519-2.07-0.325-4.157-1.93-5.36c-0.551-0.414-1.193-0.726-1.904-0.896
		c-0.407-0.098-0.814-0.146-1.215-0.146c-1.827,0-3.487,0.828-4.336,2.345C3.571,21.778,5.112,30.577,7.715,31.345z M7.383,23.21
		c-0.096,0.396-0.492,0.638-0.89,0.543C6.1,23.66,5.856,23.262,5.949,22.865c0.096-0.396,0.493-0.639,0.89-0.543
		C7.235,22.415,7.478,22.813,7.383,23.21z M9.362,17.254c-0.086,0.028-2.114,0.546-2.207,3.368c-0.01,0.258-0.222,0.296-0.478,0.296
		c-0.005,0-0.01,0-0.016,0c-0.263,0-0.47-0.054-0.462-0.318c0.115-3.521,2.765-4.288,2.878-4.322
		c0.257-0.079,0.52,0.106,0.597,0.358C9.753,16.888,9.612,17.176,9.362,17.254z"/>
	<path d="M43.52,32.444c-1.101-1.346-2.881-1.87-4.68-1.551c-0.394,0.07-0.786,0.188-1.17,0.356
		c-0.671,0.291-1.249,0.711-1.719,1.215c-1.369,1.465-1.835,3.667-0.962,5.615c1.405,3.138,6.921,9.647,9.342,8.441
		C46.759,45.311,46.737,36.378,43.52,32.444z M43.615,37.484c0.374-0.163,0.808,0.007,0.971,0.379c0.161,0.375-0.009,0.81-0.38,0.97
		c-0.375,0.163-0.808-0.007-0.971-0.379C43.072,38.08,43.241,37.646,43.615,37.484z M39.828,32.382
		c0.032-0.262,0.259-0.49,0.525-0.457c0.117,0.014,2.86,0.306,3.589,3.752c0.055,0.26-0.14,0.349-0.398,0.395
		c-0.006,0.001-0.011,0.002-0.016,0.003c-0.252,0.045-0.467,0.044-0.521-0.208c-0.585-2.763-2.673-2.918-2.763-2.931
		C39.984,32.902,39.796,32.644,39.828,32.382z"/>
</g>
</svg>
