<?xml version="1.0" encoding="utf-8"?>
<!-- Generator: Adobe Illustrator 16.0.0, SVG Export Plug-In . SVG Version: 6.00 Build 0)  -->
<!DOCTYPE svg PUBLIC "-//W3C//DTD SVG 1.1//EN" "http://www.w3.org/Graphics/SVG/1.1/DTD/svg11.dtd">
<svg version="1.1" id="Layer_1" xmlns="http://www.w3.org/2000/svg" xmlns:xlink="http://www.w3.org/1999/xlink" x="0px" y="0px"
	 width="48px" height="48px" viewBox="0 0 48 48" enable-background="new 0 0 48 48" xml:space="preserve">
<circle fill="#3F3F3F" cx="43.811" cy="34.305" r="1.754"/>
<g>
	<path d="M43.101,30.121h-2.302c0.483,1.306,0.748,2.786,0.748,4.311c0,1.524-0.265,3.003-0.748,4.309h2.302
		c2.196,0,3.942-1.746,3.942-3.944v-0.741C47.043,31.859,45.297,30.121,43.101,30.121z"/>
	<path d="M16.198,9.664c1.452,0.398,2.8,1.03,4.001,1.864l0.605-2.212c0.581-2.12-0.665-4.309-2.785-4.89L17.306,4.23
		c-1.018-0.279-2.104-0.143-3.021,0.38c-0.918,0.522-1.59,1.388-1.868,2.406l-0.608,2.215c0.312-0.022,0.625-0.035,0.939-0.035
		C13.908,9.197,15.07,9.354,16.198,9.664z"/>
	<path d="M28.516,23.476c-0.765,0-1.724,0.079-2.814,0.228c-0.071,0.612-0.187,1.223-0.346,1.829
		c7.505-1.433,10.704,3.811,10.838,4.037c0.438,0.741,0.193,1.698-0.548,2.136c-0.248,0.147-0.522,0.217-0.793,0.217
		c-0.528,0-1.045-0.269-1.338-0.754c-0.104-0.169-2.337-3.649-7.753-2.539c-0.505,0.103-1.008-0.055-1.366-0.382
		c-1.677,4.018-5.05,10.099-8.904,14.405c4.943,1.695,10.255,2.724,13.024,2.724c6.048,0,10.952-4.902,10.952-10.95
		C39.468,28.379,34.563,23.476,28.516,23.476z"/>
	<path d="M15.649,11.668c-5.832-1.6-11.856,1.833-13.457,7.665c-1.599,5.833-1.675,24.646,4.159,26.245
		c5.832,1.601,15.364-14.62,16.963-20.452C24.914,19.293,21.483,13.268,15.649,11.668z M6.203,28.396
		c-0.227,0.828-1.082,1.315-1.911,1.088c-0.827-0.227-1.315-1.082-1.087-1.91c0.228-0.828,1.082-1.315,1.909-1.088
		C5.944,26.713,6.431,27.569,6.203,28.396z M10.934,16.546c-0.201,0.061-4.141,1.303-4.498,6.807
		c-0.054,0.825-0.739,1.458-1.554,1.458c-0.033,0-0.069-0.001-0.103-0.003c-0.86-0.056-1.511-0.798-1.455-1.657
		c0.507-7.808,6.521-9.539,6.776-9.609c0.835-0.227,1.687,0.262,1.915,1.093C12.24,15.461,11.758,16.315,10.934,16.546z"/>
</g>
</svg>
