<?xml version="1.0" encoding="utf-8"?>
<!-- Generator: Adobe Illustrator 16.0.0, SVG Export Plug-In . SVG Version: 6.00 Build 0)  -->
<!DOCTYPE svg PUBLIC "-//W3C//DTD SVG 1.1//EN" "http://www.w3.org/Graphics/SVG/1.1/DTD/svg11.dtd">
<svg version="1.1" id="Layer_1" xmlns="http://www.w3.org/2000/svg" xmlns:xlink="http://www.w3.org/1999/xlink" x="0px" y="0px"
	 width="48px" height="48px" viewBox="0 0 48 48" enable-background="new 0 0 48 48" xml:space="preserve">
<g>
	<path d="M28.127,1.032H6.82c-3.205,0-5.831,2.599-5.831,5.805v34.676c0,3.02,2.475,5.487,5.495,5.487h22.402
		c3.204,0,5.821-2.619,5.821-5.824V7.594C34.707,3.973,31.75,1.032,28.127,1.032z M30.919,40.235c0,1.462-1.176,2.641-2.637,2.641
		H7.105c-1.287,0-2.328-1.034-2.328-2.322V7.774c0-1.463,1.183-2.68,2.646-2.68h20.142c1.857,0,3.354,1.54,3.354,3.396V40.235z"/>
	<path d="M8.758,12.355h8.148c0.831,0,1.504-0.688,1.504-1.518c0-0.829-0.673-1.515-1.504-1.515H8.758
		c-0.831,0-1.504,0.686-1.504,1.515C7.254,11.668,7.928,12.355,8.758,12.355z"/>
	<path d="M27.456,15.446H8.758c-0.831,0-1.504,0.655-1.504,1.486c0,0.83,0.673,1.484,1.504,1.484h18.698
		c0.831,0,1.504-0.654,1.504-1.484C28.96,16.102,28.287,15.446,27.456,15.446z"/>
	<path d="M22.933,21.51H8.758c-0.831,0-1.504,0.686-1.504,1.518c0,0.828,0.673,1.514,1.504,1.514h14.175
		c0.832,0,1.504-0.686,1.504-1.514C24.437,22.195,23.765,21.51,22.933,21.51z"/>
	<path d="M44.886,5.734h-2.06C42.2,2.721,41.41,0.949,40.552,0.949c-2.03,0-3.676,9.955-3.676,22.246
		c0,5.037,0.277,9.639,0.743,13.404h5.868c0.465-3.766,0.743-8.367,0.743-13.408c0-0.226-0.001-0.444-0.002-0.671h0.659
		c1.04,0,1.857-0.858,1.857-1.896V7.578C46.743,6.539,45.925,5.734,44.886,5.734z"/>
	<path d="M39.907,39.007h-1.935c0.506,3.085,1.168,5.187,1.845,6.031v1.281c0,0.386,0.329,0.699,0.715,0.699
		c0.388,0,0.716-0.313,0.716-0.699v-1.281c0.752-0.847,1.378-3.02,1.884-6.031h-1.935H39.907z"/>
</g>
</svg>
