<?xml version="1.0" encoding="utf-8"?>
<!-- Generator: Adobe Illustrator 16.0.0, SVG Export Plug-In . SVG Version: 6.00 Build 0)  -->
<!DOCTYPE svg PUBLIC "-//W3C//DTD SVG 1.1//EN" "http://www.w3.org/Graphics/SVG/1.1/DTD/svg11.dtd">
<svg version="1.1" id="Layer_1" xmlns="http://www.w3.org/2000/svg" xmlns:xlink="http://www.w3.org/1999/xlink" x="0px" y="0px"
	 width="48px" height="48px" viewBox="0 0 48 48" enable-background="new 0 0 48 48" xml:space="preserve">
<path d="M46.378,14.057c-0.532-1.158-1.5-2.059-2.696-2.502L38.551,9.65l0.856-0.911l3.515,0.528
	c0.075,0.013,0.149,0.018,0.223,0.018c0.72,0,1.352-0.527,1.462-1.261c0.122-0.81-0.436-1.563-1.244-1.685l-1.49-0.224l0.775-0.825
	c0.56-0.597,0.531-1.532-0.064-2.092c-0.598-0.561-1.535-0.532-2.093,0.064l-1.731,1.842L36.54,3.163
	c-0.616-0.538-1.55-0.477-2.089,0.14c-0.538,0.615-0.476,1.551,0.14,2.089l2.14,1.872l-1.192,1.269L32.8,7.516
	c-0.906-0.336-1.913,0.126-2.25,1.032L30.344,9.09l-5.583-2.805l0.746-2.645c0.222-0.786-0.237-1.604-1.023-1.826
	c-0.787-0.227-1.605,0.236-1.827,1.022l-0.589,2.094l-3.931-1.976c-0.729-0.369-1.62-0.072-1.987,0.657
	c-0.367,0.729-0.073,1.621,0.658,1.987l2.855,1.436l-2.209,1.071c-0.735,0.356-1.043,1.242-0.686,1.979
	c0.256,0.527,0.783,0.835,1.333,0.835c0.217,0,0.437-0.048,0.646-0.149l4.249-2.062l6.292,3.163l-2.758,7.25
	c-0.198,0.521-0.697,0.864-1.253,0.864H8.013c-1.289,0-2.4,0.715-2.994,1.762L1.346,27.36c-0.448,0.684-0.256,1.603,0.428,2.05
	c0.25,0.163,0.531,0.24,0.809,0.24c0.483,0,0.956-0.234,1.24-0.67l0.735-1.123v17.255c0,0.841,0.681,1.522,1.521,1.522h3.865
	c0.84,0,1.522-0.682,1.522-1.522v-8.799c0-0.841,0.681-1.522,1.521-1.522h12.748c0.841,0,1.522,0.682,1.522,1.522v8.799
	c0,0.841,0.682,1.522,1.522,1.522h3.865c0.84,0,1.522-0.682,1.522-1.522l2.066-23.615c0.036-0.418,0.266-0.793,0.62-1.017
	c0.354-0.224,0.791-0.271,1.183-0.124l2.092,0.774c2.487,0.925,5.252-0.343,6.176-2.831l0.21-0.568
	C46.959,16.536,46.909,15.215,46.378,14.057z"/>
</svg>
