<?xml version="1.0" encoding="utf-8"?>
<!-- Generator: Adobe Illustrator 16.0.0, SVG Export Plug-In . SVG Version: 6.00 Build 0)  -->
<!DOCTYPE svg PUBLIC "-//W3C//DTD SVG 1.1//EN" "http://www.w3.org/Graphics/SVG/1.1/DTD/svg11.dtd">
<svg version="1.1" id="Layer_1" xmlns="http://www.w3.org/2000/svg" xmlns:xlink="http://www.w3.org/1999/xlink" x="0px" y="0px"
	 width="48px" height="48px" viewBox="0 0 48 48" enable-background="new 0 0 48 48" xml:space="preserve">
<g>
	<path d="M37.515,27.886l-8.816-2.248c-0.603,0.506-1.31,0.893-2.083,1.124l6.038,13.62c0.178,0.399,0.579,0.652,1.017,0.638
		c0.438-0.014,0.822-0.291,0.973-0.702l1.063-2.881c0.101-0.272,0.307-0.493,0.573-0.611c0.266-0.117,0.567-0.122,0.837-0.015
		l2.848,1.148c0.406,0.163,0.871,0.064,1.174-0.25c0.304-0.315,0.387-0.782,0.209-1.182L37.515,27.886z"/>
	<path d="M10.314,27.886l-3.832,8.642c-0.177,0.4-0.095,0.867,0.21,1.182c0.303,0.314,0.768,0.413,1.173,0.25l2.849-1.147
		c0.27-0.108,0.571-0.103,0.836,0.014c0.265,0.118,0.472,0.338,0.572,0.611l1.063,2.881c0.152,0.41,0.536,0.688,0.974,0.702
		c0.437,0.014,0.839-0.239,1.017-0.638l6.038-13.62c-0.773-0.232-1.48-0.618-2.083-1.124L10.314,27.886z"/>
	<path d="M17.019,21.139v-5.73c0-1.135,0.328-2.195,0.888-3.094L5.206,9.08C4.203,8.824,3.131,9.046,2.313,9.681
		C1.496,10.316,1,11.294,1,12.33v11.574c0,1.035,0.496,2.013,1.313,2.648c0.818,0.635,1.891,0.857,2.895,0.602l12.533-3.194
		C17.28,23.122,17.019,22.16,17.019,21.139z"/>
	<path d="M45.517,9.681c-0.818-0.635-1.892-0.857-2.895-0.602l-12.693,3.235c0.56,0.899,0.883,1.958,0.883,3.094v5.73
		c0,1.021-0.266,1.983-0.726,2.82l12.529,3.194c1.003,0.256,2.084,0.033,2.903-0.602c0.816-0.636,1.312-1.613,1.312-2.648V12.33
		C46.83,11.293,46.334,10.316,45.517,9.681z"/>
	<path d="M28.854,21.153v-5.725c0-2.154-1.746-3.901-3.9-3.901h-2.077c-2.154,0-3.9,1.747-3.9,3.901v5.725
		c0,2.154,1.746,3.901,3.9,3.901h2.077C27.108,25.054,28.854,23.308,28.854,21.153z"/>
</g>
</svg>
