<?xml version="1.0" encoding="utf-8"?>
<!-- Generator: Adobe Illustrator 16.0.0, SVG Export Plug-In . SVG Version: 6.00 Build 0)  -->
<!DOCTYPE svg PUBLIC "-//W3C//DTD SVG 1.1//EN" "http://www.w3.org/Graphics/SVG/1.1/DTD/svg11.dtd">
<svg version="1.1" id="Layer_1" xmlns="http://www.w3.org/2000/svg" xmlns:xlink="http://www.w3.org/1999/xlink" x="0px" y="0px"
	 width="48px" height="48px" viewBox="0 0 48 48" enable-background="new 0 0 48 48" xml:space="preserve">
<g>
	<path d="M16.551,22.918h8.708c0.393,0,0.684-0.274,0.684-0.666v-4.417H15.824v4.417C15.824,22.644,16.158,22.918,16.551,22.918z"/>
	<path d="M46.35,11.81c-0.458-0.999-1.294-1.776-2.325-2.159l-7.887-2.927L33.76,3.444c-0.151-0.209-0.417-0.298-0.663-0.218
		c-0.247,0.08-0.409,0.31-0.409,0.568v3.319l-3.454,9.52c-0.17,0.447-0.605,1.201-1.085,1.201h-0.22v2.964
		c1.202,1.139,2.125,1.653,2.682,1.419c1.114-0.468,1.651-3.494,1.753-6.071c-0.513-0.328-0.853-0.903-0.853-1.558
		c0-1.021,0.828-1.85,1.849-1.85s1.85,0.829,1.85,1.85c0,0.66-0.346,1.239-0.867,1.565c-0.081,2.526-0.576,6.881-2.962,7.883
		c-0.344,0.145-0.701,0.218-1.068,0.218c-0.792,0-1.641-0.328-2.56-1.007c-0.395,0.991-1.364,1.703-2.495,1.703h-8.708
		c-1.48,0-2.668-1.219-2.668-2.699v-4.417h-0.62c-0.854,0-1.49,0.111-1.905,0.453c-0.181,0.123-0.345,0.277-0.481,0.464l-6.923,9.49
		c-0.641,0.88-0.449,2.114,0.431,2.757c0.35,0.255,0.757,0.377,1.161,0.377c0.608,0,1.213-0.279,1.599-0.809l3.643-4.988V37.95
		c-2.634-0.853-4.468-2.052-4.468-3.602c0-1.362-1.105-2.359-2.467-2.359s-2.466,1.038-2.466,2.398
		c0,9.903,18.403,10.062,20.501,10.062h0.175c0.061,0,0.122,0,0.185,0c2.769,0,8.251,0.099,13.057-0.895
		c8.779-1.815,10.621-5.874,10.621-9.058c0-1.36-1.103-2.481-2.464-2.481c-1.362,0-2.465,1.069-2.465,2.431
		c0,2.041-2.524,3.212-5.129,3.912L37.6,18.383c0.032-0.357,0.23-0.763,0.536-0.956c0.305-0.192,0.682-0.272,1.02-0.146l1.804,0.647
		c2.145,0.796,4.53-0.305,5.326-2.452l0.182-0.499C46.851,13.945,46.808,12.807,46.35,11.81z M22.063,39.505h-0.176
		c-1.955,0-4.146-0.155-6.243-0.465c0.005-0.157-0.005-0.313-0.005-0.447v-7.591c0-0.725,1.19-1.338,1.915-1.338h10.994
		c0.725,0,1.923,0.613,1.923,1.338v7.591c0,0.2-0.009,0.442,0.006,0.684C27.211,39.574,24.034,39.505,22.063,39.505z"/>
</g>
</svg>
