<?xml version="1.0" encoding="utf-8"?>
<!-- Generator: Adobe Illustrator 16.0.0, SVG Export Plug-In . SVG Version: 6.00 Build 0)  -->
<!DOCTYPE svg PUBLIC "-//W3C//DTD SVG 1.1//EN" "http://www.w3.org/Graphics/SVG/1.1/DTD/svg11.dtd">
<svg version="1.1" id="Layer_1" xmlns="http://www.w3.org/2000/svg" xmlns:xlink="http://www.w3.org/1999/xlink" x="0px" y="0px"
	 width="48px" height="48px" viewBox="0 0 48 48" enable-background="new 0 0 48 48" xml:space="preserve">
<g>
	<path d="M24.615,36.031c0.981,0,1.879-0.369,2.567-0.967c0.54-0.47,0.171-1.369-0.545-1.369h-4.045
		c-0.716,0-1.086,0.899-0.545,1.369C22.735,35.662,23.633,36.031,24.615,36.031z"/>
	<path d="M41.501,17.806c0-2.579-2.049-4.689-4.595-4.819c-2.531-5.78-7.028-11.961-12.147-11.961c-0.063,0-0.126,0.001-0.188,0.003
		c-0.062-0.001-0.125-0.003-0.188-0.003c-2.761,0-5.337,1.797-7.522,4.359c-1.154-0.834-2.571-1.326-4.104-1.326
		c-3.875,0-7.017,3.142-7.017,7.017c0,2.013,0.848,3.827,2.205,5.106c-0.182,0.507-0.281,1.054-0.281,1.624v1.946
		c0,1.262,0.492,2.411,1.288,3.272c-0.266,1.147-0.398,2.342-0.398,3.569c0,2.375,0.567,5.084,1.606,7.731
		c0.027,0.153,0.079,0.306,0.156,0.451c0.023,0.042,0.048,0.087,0.076,0.125c2.586,6.169,7.695,11.831,13.999,11.831
		c0.06,0,0.298,0,0.357,0c6.303,0,11.412-5.662,13.999-11.831c0.026-0.038,0.052-0.081,0.077-0.123
		c0.076-0.146,0.128-0.299,0.156-0.452c1.039-2.646,1.608-5.357,1.608-7.731c0-1.228-0.124-2.422-0.39-3.569
		c0.797-0.861,1.302-2.011,1.302-3.272V17.806z M9.407,14.099c-0.722-0.8-1.162-1.86-1.162-3.022c0-2.491,2.02-4.511,4.511-4.511
		c0.961,0,1.851,0.302,2.581,0.813c-1.212,1.756-2.258,3.705-3.092,5.609C11.17,13.042,10.187,13.451,9.407,14.099z M24.744,43.739
		c-0.018,0-0.355,0-0.373,0c-4.412,0-8.495-4.059-10.821-8.961c4.13-2.036,7.852-2.922,11.015-2.922s6.88,0.89,11.009,2.925
		C33.249,39.684,29.156,43.739,24.744,43.739z M36.684,31.956c-4.46-2.162-8.505-3.034-11.994-3.105h-0.286
		c-3.419,0.071-7.512,0.943-11.972,3.105c-0.567-1.798-0.875-3.633-0.875-5.357c0-0.708,0.063-1.404,0.175-2.081
		c0.246,0.04,0.505,0.058,0.764,0.058h7.674c-0.068,0.285-0.104,0.539-0.104,0.831c0,1.291,0.714,2.338,1.595,2.338
		s1.595-1.047,1.595-2.338c0-0.292-0.037-0.546-0.104-0.831h2.837c-0.065,0.285-0.104,0.539-0.104,0.831
		c0,1.291,0.714,2.338,1.596,2.338c0.88,0,1.593-1.047,1.593-2.338c0-0.292-0.036-0.546-0.104-0.831h7.674
		c0.259,0,0.513-0.02,0.761-0.06c0.111,0.677,0.166,1.375,0.166,2.083C37.569,28.322,37.25,30.158,36.684,31.956z M38.438,19.752
		c0,0.997-0.801,1.832-1.796,1.832H12.495c-0.995,0-1.769-0.834-1.769-1.832v-1.946c0-0.998,0.773-1.779,1.769-1.779h24.147
		c0.995,0,1.796,0.781,1.796,1.779V19.752z"/>
</g>
</svg>
