<?xml version="1.0" encoding="utf-8"?>
<!-- Generator: Adobe Illustrator 16.0.0, SVG Export Plug-In . SVG Version: 6.00 Build 0)  -->
<!DOCTYPE svg PUBLIC "-//W3C//DTD SVG 1.1//EN" "http://www.w3.org/Graphics/SVG/1.1/DTD/svg11.dtd">
<svg version="1.1" id="Layer_1" xmlns="http://www.w3.org/2000/svg" xmlns:xlink="http://www.w3.org/1999/xlink" x="0px" y="0px"
	 width="48px" height="48px" viewBox="0 0 48 48" enable-background="new 0 0 48 48" xml:space="preserve">
<g>
	<path d="M23.924,20.598c0.813,0,1.48-0.659,1.48-1.474v-2.083c0-0.813-0.668-1.473-1.48-1.473c-0.813,0-1.48,0.659-1.48,1.473
		v2.083C22.443,19.938,23.11,20.598,23.924,20.598z"/>
	<path d="M31.085,22.677h-2.083c-0.813,0-1.474,0.667-1.474,1.479c0,0.815,0.661,1.482,1.474,1.482h2.083
		c0.813,0,1.474-0.667,1.474-1.482C32.559,23.344,31.897,22.677,31.085,22.677z"/>
	<path d="M15.316,24.156c0,0.815,0.661,1.482,1.474,1.482h2.084c0.813,0,1.472-0.667,1.472-1.482c0-0.813-0.659-1.479-1.472-1.479
		H16.79C15.978,22.677,15.316,23.344,15.316,24.156z"/>
	<path d="M23.924,27.779c-0.813,0-1.48,0.66-1.48,1.474v2.082c0,0.815,0.667,1.475,1.48,1.475c0.813,0,1.48-0.659,1.48-1.475v-2.082
		C25.404,28.439,24.736,27.779,23.924,27.779z"/>
	<path d="M28.797,26.967l-2.776-2.778l2.778-2.778c0.575-0.574,0.575-1.507,0-2.082c-0.576-0.575-1.507-0.575-2.084,0l-2.778,2.777
		l-2.776-2.776c-0.576-0.576-1.508-0.576-2.083,0c-0.576,0.574-0.576,1.507,0,2.084l2.776,2.775l-2.776,2.778
		c-0.576,0.574-0.576,1.508,0,2.083c0.288,0.287,0.664,0.432,1.04,0.432c0.379,0,0.755-0.145,1.043-0.432l2.776-2.777l2.778,2.777
		c0.287,0.287,0.664,0.432,1.041,0.432s0.754-0.145,1.041-0.432C29.373,28.475,29.373,27.541,28.797,26.967z"/>
	<path d="M10.845,6.16c0.813,0,1.479-0.66,1.479-1.473V2.604c0-0.813-0.667-1.474-1.479-1.474c-0.813,0-1.482,0.661-1.482,1.474
		v2.083C9.362,5.5,10.031,6.16,10.845,6.16z"/>
	<path d="M14.449,9.721c0,0.813,0.659,1.479,1.474,1.479h2.083c0.813,0,1.472-0.667,1.472-1.479c0-0.814-0.659-1.482-1.472-1.482
		h-2.083C15.108,8.238,14.449,8.906,14.449,9.721z"/>
	<path d="M3.711,11.2h2.083c0.813,0,1.473-0.667,1.473-1.479c0-0.814-0.66-1.482-1.473-1.482H3.711
		c-0.813,0-1.475,0.668-1.475,1.482C2.236,10.533,2.897,11.2,3.711,11.2z"/>
	<path d="M12.324,14.815c0-0.813-0.667-1.473-1.479-1.473c-0.813,0-1.482,0.66-1.482,1.473v2.084c0,0.813,0.669,1.474,1.482,1.474
		c0.813,0,1.479-0.661,1.479-1.474V14.815z"/>
	<path d="M8.773,9.753l-2.776,2.776c-0.576,0.576-0.576,1.508,0,2.083c0.287,0.289,0.665,0.432,1.041,0.432
		c0.377,0,0.755-0.143,1.042-0.432l2.777-2.776l2.776,2.776c0.287,0.289,0.666,0.432,1.042,0.432s0.755-0.143,1.042-0.432
		c0.576-0.575,0.576-1.507,0-2.083L12.94,9.753l2.779-2.778c0.574-0.577,0.574-1.508,0-2.084c-0.577-0.575-1.509-0.575-2.084,0
		l-2.778,2.778L8.08,4.891c-0.575-0.574-1.509-0.574-2.083,0c-0.576,0.577-0.576,1.509,0,2.084L8.773,9.753z"/>
	<path d="M10.845,29.758c-0.813,0-1.482,0.66-1.482,1.475v2.083c0,0.813,0.669,1.473,1.482,1.473c0.813,0,1.479-0.659,1.479-1.473
		v-2.083C12.324,30.418,11.657,29.758,10.845,29.758z"/>
	<path d="M18.006,36.867h-2.083c-0.814,0-1.474,0.667-1.474,1.48s0.659,1.48,1.474,1.48h2.083c0.813,0,1.472-0.667,1.472-1.48
		S18.818,36.867,18.006,36.867z"/>
	<path d="M7.267,38.348c0-0.813-0.66-1.48-1.473-1.48H3.711c-0.813,0-1.475,0.667-1.475,1.48s0.661,1.48,1.475,1.48h2.083
		C6.606,39.828,7.267,39.161,7.267,38.348z"/>
	<path d="M10.845,41.97c-0.813,0-1.482,0.659-1.482,1.475v2.082c0,0.814,0.669,1.474,1.482,1.474c0.813,0,1.479-0.659,1.479-1.474
		v-2.082C12.324,42.629,11.657,41.97,10.845,41.97z"/>
	<path d="M12.94,38.379l2.779-2.778c0.574-0.574,0.574-1.507,0-2.082c-0.577-0.576-1.509-0.576-2.084,0l-2.778,2.778L8.08,33.52
		c-0.575-0.575-1.509-0.575-2.083,0c-0.576,0.575-0.576,1.507,0,2.084l2.776,2.775l-2.776,2.778c-0.576,0.574-0.576,1.507,0,2.083
		c0.287,0.287,0.665,0.433,1.041,0.433c0.377,0,0.755-0.146,1.042-0.433l2.777-2.777l2.776,2.777
		c0.287,0.287,0.666,0.433,1.042,0.433s0.755-0.146,1.042-0.433c0.576-0.576,0.576-1.509,0-2.083L12.94,38.379z"/>
	<path d="M37.003,6.16c0.814,0,1.482-0.66,1.482-1.473V2.604c0-0.813-0.668-1.474-1.482-1.474c-0.813,0-1.48,0.661-1.48,1.474v2.083
		C35.522,5.5,36.19,6.16,37.003,6.16z"/>
	<path d="M29.869,11.2h2.084c0.813,0,1.473-0.667,1.473-1.479c0-0.814-0.659-1.482-1.473-1.482h-2.084
		c-0.813,0-1.472,0.668-1.472,1.482C28.397,10.533,29.057,11.2,29.869,11.2z"/>
	<path d="M40.609,9.721c0,0.813,0.659,1.479,1.472,1.479h2.084c0.813,0,1.475-0.667,1.475-1.479c0-0.814-0.661-1.482-1.475-1.482
		h-2.084C41.269,8.238,40.609,8.906,40.609,9.721z"/>
	<path d="M38.485,14.815c0-0.813-0.668-1.473-1.482-1.473c-0.813,0-1.48,0.66-1.48,1.473v2.084c0,0.813,0.668,1.474,1.48,1.474
		c0.814,0,1.482-0.661,1.482-1.474V14.815z"/>
	<path d="M34.935,9.753l-2.777,2.776c-0.575,0.576-0.575,1.508,0,2.083c0.287,0.289,0.666,0.432,1.042,0.432
		s0.755-0.143,1.042-0.432l2.777-2.776l2.776,2.776c0.287,0.289,0.665,0.432,1.042,0.432s0.754-0.143,1.041-0.432
		c0.576-0.575,0.576-1.507,0-2.083l-2.775-2.776l2.775-2.778c0.576-0.575,0.576-1.507,0-2.084c-0.574-0.574-1.507-0.574-2.083,0
		l-2.776,2.778L34.24,4.891c-0.576-0.575-1.507-0.575-2.084,0c-0.574,0.576-0.574,1.507,0,2.084L34.935,9.753z"/>
	<path d="M35.522,31.232v2.083c0,0.813,0.668,1.473,1.48,1.473c0.814,0,1.482-0.659,1.482-1.473v-2.083
		c0-0.814-0.668-1.475-1.482-1.475C36.19,29.758,35.522,30.418,35.522,31.232z"/>
	<path d="M33.426,38.348c0-0.813-0.659-1.48-1.473-1.48h-2.084c-0.813,0-1.472,0.667-1.472,1.48s0.659,1.48,1.472,1.48h2.084
		C32.767,39.828,33.426,39.161,33.426,38.348z"/>
	<path d="M44.165,36.867h-2.084c-0.813,0-1.472,0.667-1.472,1.48s0.659,1.48,1.472,1.48h2.084c0.813,0,1.475-0.667,1.475-1.48
		S44.979,36.867,44.165,36.867z"/>
	<path d="M37.003,41.97c-0.813,0-1.48,0.659-1.48,1.475v2.082c0,0.814,0.668,1.474,1.48,1.474c0.814,0,1.482-0.659,1.482-1.474
		v-2.082C38.485,42.629,37.817,41.97,37.003,41.97z"/>
	<path d="M39.103,38.379l2.775-2.775c0.576-0.577,0.576-1.509,0-2.084c-0.574-0.575-1.507-0.575-2.083,0l-2.776,2.777l-2.778-2.778
		c-0.576-0.576-1.507-0.576-2.084,0c-0.574,0.575-0.574,1.508,0,2.082l2.778,2.778l-2.777,2.778c-0.575,0.574-0.575,1.507,0,2.083
		c0.287,0.287,0.666,0.433,1.042,0.433s0.755-0.146,1.042-0.433l2.777-2.777l2.776,2.777c0.287,0.287,0.665,0.433,1.042,0.433
		s0.754-0.146,1.041-0.433c0.576-0.576,0.576-1.509,0-2.083L39.103,38.379z"/>
</g>
</svg>
