<?xml version="1.0" encoding="utf-8"?>
<!-- Generator: Adobe Illustrator 16.0.0, SVG Export Plug-In . SVG Version: 6.00 Build 0)  -->
<!DOCTYPE svg PUBLIC "-//W3C//DTD SVG 1.1//EN" "http://www.w3.org/Graphics/SVG/1.1/DTD/svg11.dtd">
<svg version="1.1" id="Layer_1" xmlns="http://www.w3.org/2000/svg" xmlns:xlink="http://www.w3.org/1999/xlink" x="0px" y="0px"
	 width="48px" height="48px" viewBox="0 0 48 48" enable-background="new 0 0 48 48" xml:space="preserve">
<path d="M46.166,29.07l-2.849-5.293l2.724-5.065c0.634-1.183,0.711-2.574,0.209-3.817c-0.5-1.245-1.523-2.194-2.799-2.604
	l-6.17-1.979l-1.745-6.03c-0.381-1.323-1.331-2.383-2.603-2.91c-1.252-0.518-2.713-0.436-3.898,0.217L24,4.364l-5.035-2.776
	c-1.185-0.653-2.646-0.735-3.898-0.217c-1.272,0.527-2.221,1.587-2.603,2.91l-1.745,6.03l-6.17,1.979
	c-1.277,0.41-2.299,1.359-2.8,2.604c-0.501,1.244-0.425,2.635,0.21,3.817l2.724,5.065L1.835,29.07
	c-0.647,1.204-0.715,2.617-0.185,3.878c0.529,1.261,1.587,2.201,2.9,2.582l6.062,1.754l1.98,6.169
	c0.41,1.278,1.358,2.299,2.604,2.801c1.225,0.494,2.653,0.416,3.818-0.21L24,43.363l4.986,2.682c1.165,0.625,2.593,0.704,3.818,0.21
	c1.245-0.502,2.194-1.522,2.604-2.801l1.98-6.169l6.063-1.754c1.312-0.381,2.37-1.321,2.9-2.582
	C46.88,31.688,46.812,30.274,46.166,29.07z M26.014,7.879l4.977-2.745c0.121-0.066,0.267-0.075,0.393-0.022
	c0.127,0.053,0.223,0.16,0.261,0.292l1.713,5.919l-2.277,2.277c-1.487-1.053-3.21-1.786-5.075-2.111L26.014,7.879z M32.127,25.793
	c-0.198,0.845-0.522,1.641-0.952,2.368l-2.371-2.372L32.127,25.793z M28.669,21.739l2.388-2.387c0.458,0.73,0.806,1.534,1.025,2.391
	L28.669,21.739z M25.998,15.627c0.766,0.201,1.49,0.504,2.158,0.899l-2.165,2.164L25.998,15.627z M25.971,28.684l2.38,2.38
	c-0.73,0.458-1.532,0.806-2.387,1.025L25.971,28.684z M22.036,32.089c-0.855-0.22-1.657-0.568-2.387-1.025l2.38-2.38L22.036,32.089z
	 M22.01,18.69l-2.165-2.164c0.667-0.395,1.392-0.698,2.158-0.899L22.01,18.69z M16.355,5.405c0.039-0.133,0.134-0.239,0.261-0.292
	c0.126-0.053,0.272-0.043,0.393,0.022l4.977,2.745l0.008,3.61c-1.864,0.326-3.587,1.059-5.075,2.111l-2.277-2.277L16.355,5.405z
	 M15.918,21.743c0.219-0.857,0.567-1.661,1.025-2.391l2.388,2.387L15.918,21.743z M19.195,25.79l-2.371,2.372
	c-0.43-0.728-0.754-1.523-0.952-2.368L19.195,25.79z M11.625,33.36L5.676,31.64c-0.132-0.039-0.239-0.134-0.292-0.259
	c-0.053-0.127-0.045-0.27,0.02-0.392l2.792-5.188l3.563-0.004c0.304,1.947,1.05,3.746,2.142,5.289L11.625,33.36z M11.783,21.747
	L8.194,21.75l-2.667-4.956c-0.064-0.119-0.072-0.26-0.021-0.386c0.051-0.125,0.154-0.221,0.282-0.262l6.02-1.931l2.227,2.226
	C12.902,17.983,12.116,19.787,11.783,21.747z M17.095,42.478c-0.116,0.063-0.26,0.07-0.384,0.02
	c-0.125-0.05-0.221-0.153-0.262-0.282l-1.932-6.02l2.222-2.223c1.542,1.132,3.344,1.918,5.304,2.252l0.008,3.586L17.095,42.478z
	 M31.551,42.216c-0.042,0.129-0.137,0.232-0.262,0.282c-0.124,0.05-0.268,0.043-0.384-0.02l-4.957-2.666l0.008-3.586
	c1.96-0.334,3.763-1.12,5.304-2.252l2.222,2.223L31.551,42.216z M36.194,14.216l6.02,1.931c0.128,0.041,0.23,0.137,0.282,0.262
	c0.049,0.126,0.042,0.267-0.021,0.386l-2.667,4.956l-3.589-0.003c-0.333-1.96-1.119-3.764-2.251-5.305L36.194,14.216z M42.617,31.38
	c-0.053,0.125-0.162,0.221-0.293,0.259l-5.949,1.721l-2.274-2.274c1.092-1.543,1.838-3.342,2.142-5.289l3.563,0.004l2.792,5.188
	C42.663,31.111,42.67,31.253,42.617,31.38z"/>
</svg>
