<?xml version="1.0" encoding="utf-8"?>
<!-- Generator: Adobe Illustrator 16.0.0, SVG Export Plug-In . SVG Version: 6.00 Build 0)  -->
<!DOCTYPE svg PUBLIC "-//W3C//DTD SVG 1.1//EN" "http://www.w3.org/Graphics/SVG/1.1/DTD/svg11.dtd">
<svg version="1.1" id="Layer_1" xmlns="http://www.w3.org/2000/svg" xmlns:xlink="http://www.w3.org/1999/xlink" x="0px" y="0px"
	 width="48px" height="48px" viewBox="0 0 48 48" enable-background="new 0 0 48 48" xml:space="preserve">
<g>
	<path d="M43.768,41.695V7.449c0-3.407-2.762-6.169-6.169-6.169H10.165c-3.407,0-6.169,2.762-6.169,6.169v34.246l-0.598,0.004
		c-1.23,0.009-2.223,1.009-2.223,2.24v0.775c0,1.237,1.003,2.24,2.241,2.24l41.001-0.019c1.237,0,2.239-1.003,2.239-2.24v-0.761
		c0-1.237-1.003-2.24-2.24-2.24H43.768z M39.598,30.035v5.677c0,1.237-1.003,2.24-2.24,2.24H10.405c-1.237,0-2.24-1.003-2.24-2.24
		v-5.677c0-1.237,1.003-2.24,2.24-2.24h26.953C38.595,27.795,39.598,28.798,39.598,30.035z M37.358,24.588h-9.6
		c-1.237,0-2.24-1.003-2.24-2.24V7.69c0-1.237,1.003-2.24,2.24-2.24h9.6c1.237,0,2.24,1.003,2.24,2.24v14.659
		C39.598,23.585,38.595,24.588,37.358,24.588z M22.31,7.69v14.659c0,1.237-1.003,2.24-2.24,2.24h-9.666
		c-1.237,0-2.24-1.003-2.24-2.24V7.69c0-1.237,1.003-2.24,2.24-2.24h9.666C21.307,5.45,22.31,6.453,22.31,7.69z"/>
	<circle cx="11.736" cy="10.552" r="0.773"/>
	<circle cx="14.09" cy="15.58" r="1.411"/>
	<circle cx="16.619" cy="9.884" r="1.672"/>
	<circle cx="19.699" cy="16.161" r="1.407"/>
	<circle cx="19.277" cy="30.726" r="0.986"/>
	<circle cx="25.603" cy="30.726" r="0.986"/>
	<circle cx="14.73" cy="32.195" r="1.468"/>
	<circle cx="17.769" cy="22.111" r="1.149"/>
	<circle cx="12.708" cy="20.784" r="0.972"/>
	<circle cx="28.362" cy="8.996" r="0.784"/>
	<circle cx="34.779" cy="9.769" r="1.557"/>
	<circle cx="31.449" cy="13.156" r="1.599"/>
	<circle cx="35.484" cy="16.285" r="0.705"/>
	<circle cx="29.772" cy="18.401" r="1.41"/>
	<circle cx="35.223" cy="20.749" r="0.937"/>
	<circle cx="30.321" cy="22.548" r="0.863"/>
	<circle cx="32.515" cy="30.38" r="1.332"/>
	<circle cx="37.174" cy="30.726" r="0.986"/>
	<circle cx="29.196" cy="33.816" r="0.835"/>
</g>
</svg>
