<?xml version="1.0" encoding="utf-8"?>
<!-- Generator: Adobe Illustrator 16.0.0, SVG Export Plug-In . SVG Version: 6.00 Build 0)  -->
<!DOCTYPE svg PUBLIC "-//W3C//DTD SVG 1.1//EN" "http://www.w3.org/Graphics/SVG/1.1/DTD/svg11.dtd">
<svg version="1.1" id="Layer_1" xmlns="http://www.w3.org/2000/svg" xmlns:xlink="http://www.w3.org/1999/xlink" x="0px" y="0px"
	 width="48px" height="48px" viewBox="0 0 48 48" enable-background="new 0 0 48 48" xml:space="preserve">
<g>
	<path d="M45.789,18.61c0-0.642-0.505-1.146-1.419-1.545c-4.92,2.477-13.987,3.237-19.567,3.237c-5.577,0-14.639-0.761-19.56-3.234
		c-0.906,0.398-1.399,0.902-1.399,1.542c0,1.469,2.621,2.79,6.813,3.71c-1.477,2.469-2.332,5.354-2.332,8.437
		c0,9.088,7.393,16.481,16.481,16.481c9.088,0,16.481-7.394,16.481-16.481c0-3.082-0.847-5.968-2.323-8.437
		C43.155,21.4,45.789,20.079,45.789,18.61z M24.804,44.195c-7.424,0-13.442-6.015-13.442-13.438c0-2.931,0.938-5.643,2.531-7.853
		c3.179,0.466,6.914,0.732,10.91,0.732c3.997,0,7.732-0.267,10.911-0.732c1.592,2.21,2.53,4.922,2.53,7.853
		C38.243,38.181,32.228,44.195,24.804,44.195z"/>
	<path d="M38.454,14.824V4.926c0-2.203-1.804-4.001-4.009-4.001H15.161c-2.205,0-3.956,1.798-3.956,4.001v9.911
		c3.298,0.783,7.952,1.409,13.597,1.409C30.479,16.246,35.152,15.613,38.454,14.824z"/>
	<circle cx="18.958" cy="27.543" r="2.18"/>
	<path d="M25.655,32.185c0-1.738-1.41-3.15-3.151-3.15c-0.231,0-8.286,2.805-8.286,2.805c-0.141,0.053-0.237,0.188-0.237,0.338
		s0.09,0.286,0.23,0.338c0,0,8.025,2.821,8.293,2.821C24.245,35.336,25.655,33.926,25.655,32.185z"/>
	<circle cx="19.506" cy="37.259" r="1.633"/>
	<circle cx="27.38" cy="27.543" r="2.18"/>
	<circle cx="24.26" cy="39.357" r="1.633"/>
	<circle cx="29.013" cy="37.259" r="1.633"/>
</g>
</svg>
