<?xml version="1.0" encoding="utf-8"?>
<!-- Generator: Adobe Illustrator 16.0.0, SVG Export Plug-In . SVG Version: 6.00 Build 0)  -->
<!DOCTYPE svg PUBLIC "-//W3C//DTD SVG 1.1//EN" "http://www.w3.org/Graphics/SVG/1.1/DTD/svg11.dtd">
<svg version="1.1" id="Layer_1" xmlns="http://www.w3.org/2000/svg" xmlns:xlink="http://www.w3.org/1999/xlink" x="0px" y="0px"
	 width="48px" height="48px" viewBox="0 0 48 48" enable-background="new 0 0 48 48" xml:space="preserve">
<g>
	<path d="M33.523,16.439c0-0.877-0.711-1.609-1.587-1.609h-2.521c-0.114-0.35-0.27-0.759-0.463-1.111l1.782-1.777
		c0.62-0.62,0.62-1.623,0-2.242c-0.62-0.62-1.625-0.618-2.244,0l-1.79,1.783c-0.352-0.192-0.708-0.349-1.128-0.463V8.499
		c0-0.876-0.698-1.587-1.575-1.587s-1.575,0.711-1.575,1.587v2.521c-0.42,0.114-0.772,0.271-1.124,0.464l-1.784-1.782
		c-0.62-0.619-1.625-0.62-2.246,0c-0.155,0.154-0.272,0.334-0.35,0.525c-0.006,0.017-0.011,0.033-0.017,0.049
		c-0.012,0.032-0.024,0.064-0.034,0.096c-0.131,0.442-0.066,0.931,0.196,1.326c0.058,0.087,0.126,0.171,0.204,0.249l1.782,1.772
		c-0.193,0.353-0.348,0.762-0.463,1.111h-2.521c-0.876,0-1.587,0.734-1.587,1.609c0,0.877,0.711,1.611,1.587,1.611h2.521
		c0.115,0.35,0.271,0.753,0.463,1.105l-1.782,1.775c-0.62,0.619-0.62,1.621,0,2.241s1.625,0.617,2.244-0.001l1.787-1.784
		c0.352,0.193,0.704,0.347,1.124,0.463v2.521c0,0.876,0.698,1.587,1.575,1.587s1.575-0.711,1.575-1.587v-2.521
		c0.42-0.116,0.776-0.271,1.127-0.464l1.786,1.783c0.423,0.422,1.026,0.557,1.563,0.401c0.005-0.001,0.011-0.001,0.015-0.003
		c0.01-0.003,0.02-0.007,0.03-0.01c0.234-0.074,0.456-0.204,0.641-0.389c0.078-0.078,0.146-0.161,0.204-0.25
		c0.205-0.31,0.289-0.674,0.253-1.03c-0.035-0.353-0.187-0.696-0.457-0.966l-1.782-1.768c0.193-0.353,0.349-0.756,0.463-1.105h2.521
		C32.812,18.051,33.523,17.316,33.523,16.439z"/>
	<path d="M13.809,19.171l-4.463,2.068c-0.795,0.368-1.141,1.313-0.772,2.108c0.268,0.578,0.841,0.92,1.441,0.92
		c0.223,0,0.45-0.047,0.667-0.148l4.462-2.066c0.795-0.369,1.142-1.313,0.772-2.108C15.549,19.15,14.603,18.801,13.809,19.171z"/>
	<path d="M20.735,24.55c-0.778-0.406-1.736-0.103-2.14,0.677l-2.268,4.364c-0.404,0.778-0.102,1.736,0.677,2.142
		c0.233,0.121,0.483,0.178,0.729,0.178c0.574,0,1.128-0.311,1.41-0.855l2.268-4.365C21.816,25.912,21.514,24.954,20.735,24.55z"/>
	<path d="M38.653,21.239l-4.462-2.068c-0.797-0.368-1.74-0.021-2.108,0.773c-0.369,0.796-0.023,1.739,0.772,2.108l4.463,2.066
		c0.216,0.102,0.443,0.148,0.666,0.148c0.6,0,1.173-0.342,1.441-0.92C39.794,22.552,39.448,21.607,38.653,21.239z"/>
	<path d="M29.404,25.227c-0.404-0.779-1.364-1.082-2.14-0.677c-0.778,0.404-1.081,1.362-0.677,2.14l2.267,4.365
		c0.283,0.545,0.837,0.855,1.41,0.855c0.247,0,0.497-0.057,0.73-0.178c0.778-0.405,1.081-1.363,0.677-2.142L29.404,25.227z"/>
	<path d="M9.346,11.632l4.463,2.066c0.216,0.102,0.443,0.147,0.667,0.147c0.599,0,1.173-0.341,1.441-0.92
		c0.369-0.795,0.023-1.739-0.772-2.107L10.682,8.75c-0.796-0.367-1.74-0.021-2.107,0.772C8.205,10.319,8.551,11.262,9.346,11.632z"
		/>
	<path d="M18.595,7.644c0.283,0.545,0.836,0.855,1.41,0.855c0.247,0,0.497-0.057,0.73-0.179c0.778-0.404,1.081-1.362,0.677-2.141
		l-2.268-4.363c-0.404-0.778-1.362-1.084-2.14-0.678c-0.779,0.403-1.081,1.361-0.677,2.141L18.595,7.644z"/>
	<path d="M33.524,13.846c0.223,0,0.451-0.046,0.667-0.147l4.462-2.066c0.795-0.37,1.142-1.313,0.772-2.109
		c-0.368-0.794-1.313-1.143-2.107-0.772l-4.463,2.068c-0.795,0.368-1.142,1.313-0.772,2.107
		C32.351,13.505,32.925,13.846,33.524,13.846z"/>
	<path d="M27.264,8.32c0.233,0.122,0.483,0.179,0.73,0.179c0.574,0,1.127-0.311,1.41-0.855l2.268-4.364
		c0.404-0.779,0.101-1.737-0.677-2.141c-0.777-0.406-1.736-0.101-2.14,0.678L26.587,6.18C26.183,6.958,26.486,7.916,27.264,8.32z"/>
	<path d="M23.996,31.117c-1.168,0-2.135,0.947-2.135,2.115v11.641c0,1.168,0.967,2.116,2.135,2.116c1.169,0,2.135-0.948,2.135-2.116
		V33.232C26.131,32.064,25.165,31.117,23.996,31.117z"/>
</g>
</svg>
