<?xml version="1.0" encoding="utf-8"?>
<!-- Generator: Adobe Illustrator 16.0.0, SVG Export Plug-In . SVG Version: 6.00 Build 0)  -->
<!DOCTYPE svg PUBLIC "-//W3C//DTD SVG 1.1//EN" "http://www.w3.org/Graphics/SVG/1.1/DTD/svg11.dtd">
<svg version="1.1" id="Layer_1" xmlns="http://www.w3.org/2000/svg" xmlns:xlink="http://www.w3.org/1999/xlink" x="0px" y="0px"
	 width="48px" height="48px" viewBox="0 0 48 48" enable-background="new 0 0 48 48" xml:space="preserve">
<g>
	<path d="M16.67,20.627c-0.052,0.017-0.093,0.055-0.114,0.105c-0.02,0.051-0.017,0.106,0.009,0.155l1.077,2.003l1.45-0.001
		c0.135-0.793,0.452-1.521,0.91-2.145l-0.9-0.898L16.67,20.627z"/>
	<path d="M17.643,24.527l-1.127,2.095c-0.026,0.05-0.029,0.107-0.008,0.159c0.021,0.05,0.065,0.089,0.118,0.104l2.404,0.695
		l0.919-0.92c-0.441-0.623-0.743-1.351-0.865-2.136L17.643,24.527z"/>
	<path d="M21.095,27.829l-0.897,0.897l0.78,2.432c0.017,0.053,0.055,0.095,0.105,0.114c0.051,0.021,0.108,0.019,0.155-0.008
		l2.003-1.077l-0.003-1.449C22.446,28.604,21.718,28.286,21.095,27.829z"/>
	<path d="M23.218,18.745l-0.002-1.46l-2.011-1.108c-0.049-0.025-0.108-0.03-0.159-0.008c-0.051,0.021-0.09,0.063-0.106,0.117
		l-0.692,2.392l0.92,0.92C21.769,19.173,22.465,18.876,23.218,18.745z"/>
	<path d="M27.809,18.678l-0.692-2.392c-0.015-0.054-0.054-0.097-0.105-0.117c-0.051-0.022-0.11-0.018-0.159,0.008l-2.011,1.108
		l-0.003,1.46c0.753,0.131,1.449,0.428,2.05,0.853L27.809,18.678z"/>
	<path d="M30.415,22.891l1.078-2.003c0.025-0.049,0.029-0.104,0.009-0.155c-0.021-0.051-0.063-0.089-0.115-0.105l-2.432-0.78
		l-0.9,0.898c0.458,0.624,0.775,1.352,0.909,2.145L30.415,22.891z"/>
	<path d="M30.414,24.527l-1.439-0.002c-0.124,0.785-0.424,1.513-0.866,2.136l0.919,0.92l2.403-0.695
		c0.053-0.016,0.097-0.055,0.119-0.104c0.021-0.052,0.018-0.109-0.008-0.159L30.414,24.527z"/>
	<path d="M34.902,9.257H13.155c-1.003,0-1.857,0.855-1.857,1.859v25.208c0,1.005,0.854,1.781,1.857,1.781h21.747
		c1.004,0,1.8-0.776,1.8-1.781V11.116C36.702,10.112,35.906,9.257,34.902,9.257z M33.059,27.415
		c-0.214,0.51-0.641,0.889-1.172,1.043l-2.449,0.708l-0.801,2.493c-0.166,0.517-0.549,0.928-1.051,1.131
		c-0.495,0.2-1.072,0.168-1.542-0.085l-2.015-1.083l-2.014,1.083c-0.471,0.253-1.048,0.285-1.543,0.085
		c-0.503-0.203-0.887-0.614-1.052-1.131l-0.8-2.493l-2.449-0.708c-0.53-0.154-0.958-0.533-1.171-1.043s-0.187-1.081,0.075-1.567
		l1.151-2.139l-1.101-2.046c-0.257-0.478-0.288-1.04-0.085-1.543c0.203-0.503,0.616-0.887,1.131-1.052l2.493-0.8l0.705-2.437
		c0.154-0.534,0.537-0.962,1.051-1.176c0.505-0.209,1.096-0.176,1.575,0.088l2.034,1.122l2.034-1.122
		c0.479-0.264,1.069-0.297,1.576-0.088c0.514,0.214,0.897,0.642,1.051,1.176l0.705,2.437l2.493,0.8
		c0.516,0.165,0.929,0.549,1.132,1.052c0.203,0.503,0.171,1.065-0.085,1.543l-1.1,2.046l1.151,2.139
		C33.245,26.334,33.272,26.905,33.059,27.415z"/>
	<path d="M43.246,7.152c0.577-0.203,0.948-0.749,0.948-1.36V2.083c0-0.796-0.617-1.437-1.414-1.437h-0.823
		c-0.612,0-1.156,0.383-1.36,0.96c-0.396,1.12-1.465,1.921-2.721,1.921c-1.255,0-2.324-0.801-2.72-1.921
		c-0.203-0.576-0.749-0.96-1.359-0.96h-1.071c-0.612,0-1.156,0.383-1.36,0.96c-0.396,1.12-1.465,1.921-2.721,1.921
		c-1.256,0-2.324-0.801-2.72-1.921c-0.203-0.576-0.749-0.96-1.359-0.96h-1.071c-0.612,0-1.156,0.383-1.36,0.96
		c-0.396,1.12-1.465,1.921-2.721,1.921c-1.256,0-2.324-0.801-2.72-1.921c-0.204-0.576-0.749-0.96-1.359-0.96h-1.071
		c-0.612,0-1.156,0.383-1.36,0.96c-0.396,1.12-1.464,1.921-2.721,1.921s-2.324-0.801-2.72-1.921c-0.204-0.576-0.749-0.96-1.36-0.96
		H5.277c-0.796,0-1.471,0.641-1.471,1.437v3.709c0,0.612,0.399,1.157,0.976,1.36c1.121,0.396,1.931,1.465,1.931,2.721
		s-0.813,2.323-1.934,2.72c-0.576,0.204-0.973,0.75-0.973,1.36v1.07c0,0.612,0.399,1.156,0.976,1.36
		c1.121,0.396,1.931,1.465,1.931,2.721c0,1.257-0.813,2.324-1.934,2.721c-0.576,0.203-0.973,0.748-0.973,1.359v1.07
		c0,0.612,0.399,1.157,0.976,1.36c1.121,0.396,1.931,1.465,1.931,2.721s-0.814,2.324-1.934,2.721
		c-0.576,0.203-0.973,0.749-0.973,1.359v1.071c0,0.611,0.399,1.156,0.976,1.359c1.121,0.396,1.931,1.465,1.931,2.722
		c0,1.256-0.814,2.323-1.934,2.72c-0.576,0.204-0.973,0.748-0.973,1.359v3.709c0,0.797,0.675,1.447,1.471,1.447h0.824
		c0.612,0,1.156-0.388,1.36-0.963c0.396-1.122,1.464-1.926,2.72-1.926c1.257,0,2.325,0.805,2.721,1.926
		c0.204,0.575,0.749,0.963,1.36,0.963h1.071c0.611,0,1.155-0.388,1.359-0.963c0.396-1.122,1.464-1.926,2.72-1.926
		c1.256,0,2.325,0.805,2.721,1.926c0.204,0.575,0.749,0.963,1.36,0.963h1.071c0.611,0,1.156-0.388,1.359-0.963
		c0.396-1.122,1.464-1.926,2.72-1.926c1.257,0,2.325,0.805,2.721,1.926c0.204,0.575,0.749,0.963,1.36,0.963h1.071
		c0.611,0,1.155-0.388,1.359-0.963c0.396-1.122,1.465-1.926,2.72-1.926c1.256,0,2.325,0.805,2.721,1.926
		c0.204,0.575,0.749,0.963,1.36,0.963h0.823c0.796,0,1.414-0.65,1.414-1.447v-3.709c0-0.611-0.371-1.154-0.948-1.359
		c-1.12-0.396-1.915-1.464-1.915-2.72c0-1.257,0.791-2.325,1.912-2.722c0.577-0.203,0.951-0.748,0.951-1.359v-1.071
		c0-0.61-0.371-1.155-0.948-1.359c-1.12-0.396-1.915-1.465-1.915-2.721s0.791-2.325,1.912-2.721c0.577-0.203,0.951-0.749,0.951-1.36
		v-1.07c0-0.611-0.371-1.154-0.948-1.359c-1.12-0.396-1.915-1.464-1.915-2.721c0-1.256,0.791-2.324,1.912-2.721
		c0.577-0.204,0.951-0.748,0.951-1.36v-1.07c0-0.61-0.371-1.155-0.948-1.36c-1.12-0.396-1.922-1.464-1.922-2.72
		S42.126,7.548,43.246,7.152z M39.027,36.39c0,2.279-1.849,4.129-4.128,4.129H13.187c-2.28,0-4.128-1.85-4.128-4.129V11.146
		c0-2.28,1.848-4.127,4.128-4.127h21.712c2.28,0,4.128,1.847,4.128,4.127V36.39z"/>
	<path d="M24.819,28.738l-0.003,1.449l2.002,1.077c0.047,0.026,0.105,0.028,0.155,0.008c0.051-0.02,0.089-0.062,0.106-0.114
		l0.78-2.432l-0.897-0.897C26.339,28.286,25.611,28.604,24.819,28.738z"/>
</g>
</svg>
