<?xml version="1.0" encoding="utf-8"?>
<!-- Generator: Adobe Illustrator 16.0.0, SVG Export Plug-In . SVG Version: 6.00 Build 0)  -->
<!DOCTYPE svg PUBLIC "-//W3C//DTD SVG 1.1//EN" "http://www.w3.org/Graphics/SVG/1.1/DTD/svg11.dtd">
<svg version="1.1" id="Layer_1" xmlns="http://www.w3.org/2000/svg" xmlns:xlink="http://www.w3.org/1999/xlink" x="0px" y="0px"
	 width="48px" height="48px" viewBox="0 0 48 48" enable-background="new 0 0 48 48" xml:space="preserve">
<g>
	<path d="M21.31,24.889c0.606-0.441,0.899-1.195,0.748-1.93l-1.271-6.174l4.657-4.248c0.554-0.505,0.761-1.287,0.529-2
		c-0.232-0.713-0.859-1.224-1.604-1.307l-6.265-0.698l-2.6-5.741c-0.309-0.683-0.989-1.121-1.738-1.121s-1.43,0.438-1.739,1.121
		l-2.6,5.741L3.163,9.23C2.418,9.313,1.791,9.824,1.56,10.537c-0.232,0.713-0.025,1.495,0.529,2l4.658,4.248l-1.272,6.174
		c-0.151,0.734,0.141,1.488,0.748,1.929s1.414,0.485,2.065,0.115l5.479-3.117l5.479,3.117C19.896,25.374,20.704,25.329,21.31,24.889
		z"/>
	<path d="M46.478,18.596c-0.148-0.455-0.549-0.782-1.025-0.835l-4.004-0.446l-1.663-3.671c-0.197-0.437-0.632-0.717-1.111-0.717
		s-0.913,0.28-1.111,0.717l-1.662,3.671l-4.004,0.446c-0.476,0.053-0.877,0.38-1.025,0.835c-0.148,0.455-0.016,0.955,0.338,1.277
		l2.977,2.716l-0.813,3.947c-0.097,0.47,0.09,0.951,0.478,1.233c0.387,0.281,0.904,0.311,1.32,0.073l3.501-1.992l3.503,1.992
		c0.417,0.237,0.933,0.208,1.32-0.073c0.387-0.281,0.574-0.764,0.478-1.233l-0.813-3.947l2.977-2.716
		C46.494,19.551,46.626,19.051,46.478,18.596z"/>
	<path d="M31.576,35.14l-4.637-0.517l-1.925-4.251c-0.229-0.505-0.732-0.829-1.287-0.829s-1.058,0.324-1.287,0.829l-1.924,4.251
		l-4.637,0.517c-0.551,0.061-1.015,0.439-1.187,0.967s-0.019,1.106,0.392,1.48l3.447,3.145l-0.941,4.571
		c-0.112,0.543,0.104,1.102,0.553,1.428s1.047,0.359,1.529,0.085l4.055-2.307l4.056,2.307c0.482,0.274,1.081,0.241,1.529-0.085
		c0.449-0.326,0.666-0.885,0.553-1.428l-0.941-4.571l3.447-3.145c0.41-0.374,0.563-0.953,0.392-1.48S32.127,35.2,31.576,35.14z"/>
</g>
</svg>
