<?xml version="1.0" encoding="utf-8"?>
<!-- Generator: Adobe Illustrator 16.0.0, SVG Export Plug-In . SVG Version: 6.00 Build 0)  -->
<!DOCTYPE svg PUBLIC "-//W3C//DTD SVG 1.1//EN" "http://www.w3.org/Graphics/SVG/1.1/DTD/svg11.dtd">
<svg version="1.1" id="Layer_1" xmlns="http://www.w3.org/2000/svg" xmlns:xlink="http://www.w3.org/1999/xlink" x="0px" y="0px"
	 width="48px" height="48px" viewBox="0 0 48 48" enable-background="new 0 0 48 48" xml:space="preserve">
<path d="M45.158,22.179H40.83l3.418-2.735c0.647-0.518,0.752-1.461,0.234-2.108c-0.517-0.646-1.462-0.752-2.108-0.233l-6.346,5.077
	h-2.903l5.071-3.89c0.657-0.505,0.781-1.446,0.277-2.104c-0.505-0.657-1.446-0.781-2.103-0.277l-8.173,6.271h-2.947l5.07-3.89
	c0.657-0.505,0.781-1.446,0.277-2.104s-1.446-0.781-2.103-0.277l-8.173,6.271H7.973l4.804-4.353l10.268-0.842
	c0.826-0.068,1.44-0.792,1.373-1.618c-0.068-0.824-0.794-1.423-1.618-1.372l-6.37,0.522l2.213-2.005l7.126-0.706
	c0.825-0.082,1.426-0.816,1.345-1.642c-0.082-0.823-0.821-1.435-1.641-1.344l-3.094,0.307l4.584-4.153
	c0.819-0.742,0.881-2.007,0.14-2.825c-0.743-0.818-2.007-0.881-2.825-0.14l-4.921,4.458l0.54-3.731
	c0.119-0.82-0.45-1.581-1.27-1.699c-0.816-0.118-1.581,0.449-1.699,1.27l-1.06,7.321l-2.252,2.04l1.074-6.657
	c0.132-0.818-0.424-1.588-1.242-1.72c-0.821-0.141-1.588,0.424-1.72,1.241l-1.67,10.36l-8.446,7.651
	c-0.819,0.742-0.881,2.007-0.14,2.825c0.245,0.27,0.548,0.447,0.872,0.551c0.288,0.16,0.614,0.26,0.967,0.26h12.347l-0.023,7.01
	l-1.989-1.145c-0.415-0.239-0.932-0.213-1.321,0.066s-0.578,0.761-0.484,1.23l0.792,3.951l-2.992,2.701
	c-0.355,0.32-0.49,0.82-0.345,1.276c0.146,0.456,0.545,0.785,1.021,0.841l4.002,0.467l1.644,3.679
	c0.196,0.438,0.629,0.72,1.108,0.723c0.479,0.002,0.915-0.276,1.115-0.711l1.682-3.663l4.007-0.428
	c0.477-0.051,0.879-0.375,1.029-0.83s0.021-0.955-0.332-1.28l-2.964-2.729l0.833-3.941c0.099-0.469-0.085-0.952-0.472-1.236
	c-0.386-0.283-0.903-0.314-1.32-0.08l-2.015,1.134l0.023-7.034h1.618l8.193,6.555c0.276,0.222,0.607,0.329,0.936,0.329
	c0.44,0,0.876-0.192,1.172-0.563c0.518-0.647,0.413-1.591-0.234-2.108l-5.265-4.213h3.073l8.194,6.555
	c0.276,0.222,0.607,0.329,0.936,0.329c0.44,0,0.876-0.192,1.172-0.563c0.518-0.647,0.413-1.591-0.234-2.108l-5.265-4.213h3.162
	l6.555,4.813c0.268,0.196,0.578,0.291,0.887,0.291c0.461,0,0.916-0.212,1.21-0.612c0.49-0.668,0.347-1.606-0.321-2.097l-3.262-2.395
	h3.974c1.104,0,2-0.896,2-2S46.263,22.179,45.158,22.179z"/>
</svg>
