<?xml version="1.0" encoding="utf-8"?>
<!-- Generator: Adobe Illustrator 16.0.0, SVG Export Plug-In . SVG Version: 6.00 Build 0)  -->
<!DOCTYPE svg PUBLIC "-//W3C//DTD SVG 1.1//EN" "http://www.w3.org/Graphics/SVG/1.1/DTD/svg11.dtd">
<svg version="1.1" id="Layer_1" xmlns="http://www.w3.org/2000/svg" xmlns:xlink="http://www.w3.org/1999/xlink" x="0px" y="0px"
	 width="48px" height="48px" viewBox="0 0 48 48" enable-background="new 0 0 48 48" xml:space="preserve">
<g>
	<path d="M45.297,23.231c1.511-1.378,2.08-3.524,1.447-5.47c-0.631-1.944-2.353-3.347-4.386-3.573l-8.526-0.951
		c-0.674-0.075-1.267-0.506-1.547-1.123l-3.538-7.815c-0.844-1.862-2.71-3.065-4.754-3.065c-2.045,0-3.911,1.203-4.755,3.065
		l-3.538,7.815c-0.28,0.617-0.873,1.048-1.547,1.123l-8.525,0.951c-2.033,0.227-3.754,1.63-4.385,3.573
		c-0.633,1.945-0.065,4.092,1.446,5.47l6.339,5.781c0.501,0.457,0.728,1.153,0.591,1.817l-1.731,8.404
		c-0.412,2.002,0.391,4.071,2.044,5.272c1.627,1.186,3.898,1.313,5.649,0.315l7.456-4.241c0.582-0.332,1.332-0.331,1.912-0.001
		l7.456,4.242c0.786,0.447,1.679,0.684,2.582,0.684c1.109,0,2.171-0.346,3.068-0.998c1.655-1.201,2.457-3.271,2.044-5.273
		l-1.73-8.404c-0.137-0.664,0.089-1.36,0.59-1.818L45.297,23.231z M36.328,26.126c-1.514,1.381-2.198,3.484-1.784,5.491l1.73,8.404
		c0.104,0.504-0.098,1.025-0.514,1.327c-0.411,0.299-0.98,0.33-1.422,0.079l-7.458-4.243c-0.878-0.498-1.876-0.762-2.886-0.762
		c-1.01,0-2.008,0.264-2.887,0.763l-7.456,4.242c-0.442,0.251-1.013,0.218-1.422-0.079c-0.417-0.302-0.619-0.824-0.515-1.328
		l1.731-8.403c0.413-2.007-0.271-4.11-1.785-5.49l-6.34-5.782c-0.38-0.347-0.523-0.886-0.363-1.377
		c0.159-0.489,0.592-0.841,1.104-0.898l8.525-0.951c2.036-0.226,3.826-1.526,4.672-3.394l3.538-7.814
		c0.212-0.468,0.682-0.771,1.197-0.771c0.515,0,0.985,0.304,1.197,0.771l3.538,7.814c0.846,1.867,2.636,3.168,4.671,3.394
		l8.526,0.951c0.512,0.058,0.946,0.41,1.104,0.899s0.016,1.029-0.365,1.377L36.328,26.126z"/>
	<circle cx="24.997" cy="14.092" r="2.014"/>
	<circle cx="12.183" cy="20.5" r="1.342"/>
	<circle cx="20.969" cy="21.537" r="1.648"/>
	<circle cx="17.613" cy="33.344" r="1.983"/>
	<circle cx="22.617" cy="29.226" r="1.343"/>
	<circle cx="30.794" cy="34.778" r="2.075"/>
	<circle cx="35.981" cy="21.842" r="1.343"/>
	<circle cx="29.512" cy="24.526" r="1.892"/>
</g>
</svg>
