<?xml version="1.0" encoding="utf-8"?>
<!-- Generator: Adobe Illustrator 16.0.0, SVG Export Plug-In . SVG Version: 6.00 Build 0)  -->
<!DOCTYPE svg PUBLIC "-//W3C//DTD SVG 1.1//EN" "http://www.w3.org/Graphics/SVG/1.1/DTD/svg11.dtd">
<svg version="1.1" id="Layer_1" xmlns="http://www.w3.org/2000/svg" xmlns:xlink="http://www.w3.org/1999/xlink" x="0px" y="0px"
	 width="48px" height="48px" viewBox="0 0 48 48" enable-background="new 0 0 48 48" xml:space="preserve">
<g>
	<path d="M45.131,25.205c1.931-1.761,2.656-4.504,1.85-6.99c-0.808-2.485-3.007-4.278-5.605-4.568l-7.169-0.799
		c-0.462-0.052-0.868-0.347-1.061-0.771l-2.977-6.572c-1.077-2.38-3.462-3.918-6.075-3.919c-2.614,0-4.999,1.538-6.076,3.918
		l-2.978,6.574c-0.192,0.424-0.599,0.719-1.061,0.771l-7.168,0.799c-2.597,0.29-4.797,2.083-5.605,4.568
		c-0.807,2.485-0.081,5.229,1.85,6.989l5.33,4.861c0.345,0.313,0.5,0.791,0.406,1.247l-1.455,7.066
		c-0.527,2.559,0.498,5.205,2.611,6.741c1.147,0.833,2.503,1.274,3.922,1.274c1.154,0,2.295-0.302,3.298-0.873l6.27-3.567
		c0.4-0.227,0.913-0.227,1.312,0l6.269,3.567c2.239,1.273,5.142,1.109,7.22-0.402c2.114-1.536,3.14-4.182,2.612-6.742l-1.456-7.064
		c-0.094-0.456,0.062-0.934,0.406-1.248L45.131,25.205z M37.778,27.848c-1.122,1.023-1.629,2.583-1.322,4.07l1.456,7.064
		c0.289,1.409-0.275,2.865-1.438,3.71c-1.144,0.831-2.741,0.921-3.972,0.221l-6.27-3.567c-1.301-0.74-2.976-0.74-4.278,0
		l-6.271,3.567c-1.23,0.701-2.829,0.61-3.972-0.221c-1.163-0.845-1.727-2.302-1.438-3.709l1.455-7.066
		c0.307-1.487-0.2-3.047-1.322-4.069l-5.33-4.861c-1.063-0.969-1.462-2.478-1.018-3.845c0.444-1.368,1.655-2.354,3.084-2.514
		l7.168-0.799c1.509-0.168,2.835-1.131,3.461-2.514l2.978-6.574c0.593-1.31,1.905-2.156,3.344-2.156c1.438,0,2.75,0.847,3.343,2.156
		l2.977,6.572c0.626,1.383,1.952,2.347,3.461,2.515l7.169,0.799c1.43,0.16,2.64,1.146,3.084,2.514s0.045,2.877-1.018,3.846
		L37.778,27.848z"/>
	<path d="M40.381,18.406l-8.039-0.896c-1.279-0.143-2.404-0.96-2.937-2.133l-3.337-7.369c-0.345-0.761-1.107-1.252-1.942-1.252
		s-1.598,0.491-1.942,1.253l-3.336,7.368c-0.531,1.173-1.656,1.991-2.937,2.134l-8.037,0.896c-0.829,0.092-1.532,0.665-1.793,1.464
		c-0.256,0.793-0.023,1.669,0.593,2.231l5.976,5.45c0.952,0.868,1.382,2.19,1.122,3.452l-1.631,7.918
		c-0.171,0.821,0.157,1.669,0.835,2.159c0.664,0.483,1.595,0.535,2.308,0.128l7.028-4c1.104-0.628,2.524-0.628,3.63,0l7.032,4
		c0.321,0.182,0.686,0.278,1.054,0.278c0.454,0,0.888-0.141,1.254-0.408c0.678-0.492,1.005-1.34,0.834-2.155l-1.633-7.921
		c-0.261-1.262,0.169-2.585,1.122-3.453l5.977-5.448c0.616-0.562,0.85-1.438,0.592-2.238C41.914,19.07,41.21,18.498,40.381,18.406z
		 M33.583,25.333c-1.731,1.578-2.512,3.983-2.038,6.276l1.245,6.044l-5.365-3.052c-1.004-0.571-2.145-0.873-3.299-0.873
		s-2.295,0.302-3.299,0.873l-5.362,3.052l1.244-6.045c0.473-2.292-0.309-4.696-2.038-6.274l-4.56-4.159l6.132-0.684
		c2.327-0.259,4.372-1.746,5.337-3.878l2.546-5.623l2.547,5.624c0.967,2.132,3.012,3.618,5.337,3.876l6.135,0.684L33.583,25.333z"/>
</g>
</svg>
