<?xml version="1.0" encoding="utf-8"?>
<!-- Generator: Adobe Illustrator 16.0.0, SVG Export Plug-In . SVG Version: 6.00 Build 0)  -->
<!DOCTYPE svg PUBLIC "-//W3C//DTD SVG 1.1//EN" "http://www.w3.org/Graphics/SVG/1.1/DTD/svg11.dtd">
<svg version="1.1" id="Layer_1" xmlns="http://www.w3.org/2000/svg" xmlns:xlink="http://www.w3.org/1999/xlink" x="0px" y="0px"
	 width="48px" height="48px" viewBox="0 0 48 48" enable-background="new 0 0 48 48" xml:space="preserve">
<g>
	<path d="M42.951,16.677c-0.305,0-0.619,0.048-0.928,0.148l-8.985,2.795l-6.301-5.589c-0.335-0.305-0.755-0.502-1.21-0.585
		c-0.165-0.03-0.333-0.046-0.504-0.046c-0.4,0-0.812,0.083-1.206,0.251c-1.031,0.44-1.771,1.382-1.875,2.415L21.049,24.7
		l-8.319,4.532c-0.996,0.536-1.622,1.538-1.602,2.555s0.665,1.865,1.671,2.164l8.433,2.542l1.152,8.392
		c0.136,0.986,0.9,1.754,1.941,1.944c0.167,0.031,0.337,0.046,0.507,0.046c0.891,0,1.794-0.407,2.396-1.105l6.102-7.066l9.038,0.651
		c0.073,0.006,0.146,0.009,0.218,0.009c1.004,0,2-0.518,2.579-1.357c0.631-0.895,0.681-1.998,0.136-2.816
		c0.024,0.036,0.047,0.073,0.069,0.11l0-0.002c0,0.001,0,0.001,0,0.001l-4.43-7.584l4.118-7.425
		c0.532-0.954,0.456-2.045-0.208-2.795c-0.356-0.408-0.849-0.673-1.397-0.773C43.291,16.692,43.122,16.677,42.951,16.677z
		 M36.892,27.193l-0.066,0.118c-0.444,0.8-0.4,1.781,0.112,2.539l0.076,0.112l3.803,5.624l-7.847-0.565l-0.111-0.008
		c-0.765-0.055-1.512,0.255-2.013,0.836l-0.072,0.084l-5.134,5.944l-0.896-6.521l-0.019-0.141c-0.129-0.941-0.796-1.721-1.706-1.995
		l-0.136-0.041l-6.311-1.901l6.652-3.625l0.102-0.056c0.703-0.383,1.172-1.087,1.254-1.884l0.012-0.115l0.777-7.53
		c0.006-0.002,0.007-0.003,0.013-0.005l5.378,4.77l0.093,0.083c0.636,0.563,1.521,0.754,2.333,0.502l0.119-0.037l6.895-2.158
		L36.892,27.193z"/>
	<path d="M4.196,20.499c1.359,2.327,5.742,9.833,5.742,9.833c0.371-0.982,1.113-1.846,2.103-2.379l7.642-4.163l0.813-7.873
		c0.156-1.54,1.236-2.955,2.75-3.602c0.572-0.244,1.169-0.368,1.777-0.368c0.258,0,0.516,0.023,0.766,0.069
		c0.728,0.133,1.391,0.456,1.919,0.934l5.682,5.038l8.197-2.549c0.659-0.211,1.355-0.266,2.018-0.164l-5.745-9.836
		c-0.072-0.123-1.045-1.627-3.082-1.021l-8.985,2.795L19.49,1.625c-0.787-0.844-4.24-1.297-4.796,2.035l-0.891,8.634l-8.319,4.532
		C5.483,16.826,2.838,18.172,4.196,20.499z"/>
	<polygon points="17.52,36.892 20.527,42.04 19.92,37.615 	"/>
</g>
</svg>
