<?xml version="1.0" encoding="utf-8"?>
<!-- Generator: Adobe Illustrator 16.0.0, SVG Export Plug-In . SVG Version: 6.00 Build 0)  -->
<!DOCTYPE svg PUBLIC "-//W3C//DTD SVG 1.1//EN" "http://www.w3.org/Graphics/SVG/1.1/DTD/svg11.dtd">
<svg version="1.1" id="Layer_1" xmlns="http://www.w3.org/2000/svg" xmlns:xlink="http://www.w3.org/1999/xlink" x="0px" y="0px"
	 width="48px" height="48px" viewBox="0 0 48 48" enable-background="new 0 0 48 48" xml:space="preserve">
<path d="M41.125,11.699L26.634,1.823c-0.951-0.647-2.129-0.896-3.265-0.68c-1.143,0.217-2.133,0.866-2.788,1.827l-2.617,3.84
	c-1.353,1.984-0.839,4.699,1.146,6.053l0.221,0.151l-2.891,4.241l0.043-9.86c0.657-0.3,1.183-0.872,1.378-1.625
	c0.345-1.328-0.452-2.683-1.78-3.027c-1.327-0.344-2.683,0.453-3.027,1.78c-0.312,1.204,0.32,2.423,1.429,2.897l-0.057,12.79
	l-3.488,5.118c-1.559,2.288-1.952,5.174-1.061,7.795l2.746,8.082c0.724,2.13,2.268,3.885,4.289,4.874s4.353,1.133,6.48,0.397
	c4.437-1.533,6.791-6.372,5.258-10.809l-1.083-3.136c-0.204-0.591-0.117-1.243,0.235-1.76l5.576-8.183l0.221,0.151
	c0.727,0.495,1.574,0.757,2.451,0.757c1.442,0,2.789-0.711,3.602-1.902l2.617-3.841C43.623,15.768,43.109,13.052,41.125,11.699z
	 M38.965,15.498l-2.617,3.841c-0.096,0.141-0.239,0.156-0.296,0.156c-0.071,0-0.137-0.021-0.198-0.062l-14.49-9.875
	c-0.101-0.069-0.137-0.162-0.149-0.228c-0.013-0.066-0.013-0.166,0.056-0.266l2.617-3.841c0.054-0.079,0.135-0.132,0.293-0.156
	c0.072,0,0.141,0.021,0.201,0.062l14.49,9.875c0.101,0.069,0.137,0.162,0.149,0.228C39.033,15.298,39.034,15.397,38.965,15.498z"/>
</svg>
