<?xml version="1.0" encoding="utf-8"?>
<!-- Generator: Adobe Illustrator 16.0.0, SVG Export Plug-In . SVG Version: 6.00 Build 0)  -->
<!DOCTYPE svg PUBLIC "-//W3C//DTD SVG 1.1//EN" "http://www.w3.org/Graphics/SVG/1.1/DTD/svg11.dtd">
<svg version="1.1" id="Layer_1" xmlns="http://www.w3.org/2000/svg" xmlns:xlink="http://www.w3.org/1999/xlink" x="0px" y="0px"
	 width="48px" height="48px" viewBox="0 0 48 48" enable-background="new 0 0 48 48" xml:space="preserve">
<g>
	<path d="M29.42,41.49c-1.466,1.421-3.356,2.276-5.42,2.276c-2.064,0-3.955-0.855-5.421-2.276c0.095,1.407-0.186,2.818-1.262,4.074
		c1.779,0.461,3.976,0.71,6.685,0.71c2.706,0,4.9-0.249,6.68-0.708C29.605,44.309,29.325,42.899,29.42,41.49z"/>
	<path d="M9.559,33.217c-0.566,0-1.135,0.091-1.69,0.28c-3.098,1.054-4.629,4.782-3.42,8.328c0.94,2.764,1.743,5.12,4.707,5.12
		c0.837,0,1.85-0.188,3.082-0.609c5.605-1.91,4.628-4.782,3.42-8.33C14.668,35.1,12.143,33.217,9.559,33.217z M11.597,44.545
		c-1.964,0.63-3.982-0.185-4.505-1.818c-0.526-1.633,0.642-3.472,2.605-4.102c1.964-0.631,3.979,0.184,4.504,1.817
		C14.727,42.077,13.561,43.914,11.597,44.545z"/>
	<path d="M40.133,33.497c-0.558-0.189-1.126-0.28-1.692-0.28c-2.584,0-5.108,1.883-6.099,4.789c-1.207,3.548-2.186,6.42,3.421,8.33
		c1.233,0.422,2.244,0.609,3.082,0.609c2.963,0,3.767-2.356,4.706-5.12C44.76,38.279,43.229,34.551,40.133,33.497z M40.907,42.727
		c-0.522,1.634-2.54,2.448-4.505,1.818c-1.964-0.631-3.129-2.468-2.604-4.103c0.524-1.634,2.54-2.448,4.506-1.817
		C40.266,39.255,41.435,41.094,40.907,42.727z"/>
	<path d="M41.872,19.13h-8.469c-0.245-0.28-0.757-0.694-0.757-0.694c1.195-1.717,1.913-3.808,1.913-6.063
		c0-0.125-0.004-0.25-0.008-0.376c2.46-0.558,4.304-2.762,4.304-5.39c0-3.05-2.48-5.529-5.53-5.529
		c-1.718,0-3.255,0.788-4.271,2.022C27.553,2.278,25.832,1.813,24,1.813S20.447,2.278,18.945,3.1
		c-1.015-1.234-2.554-2.022-4.271-2.022c-3.048,0-5.528,2.479-5.528,5.529c0,2.627,1.842,4.832,4.302,5.39
		c-0.003,0.126-0.002,0.251-0.002,0.376c0,2.256,0.728,4.347,1.921,6.063v0.018c-0.28,0.212-0.524,0.396-0.77,0.677h-8.47
		c-2.308,0-4.178,2.306-4.178,5.174c0,2.776,1.813,5.013,4.05,5.013h3.752c-0.042,0.492-0.075,0.975-0.075,1.465
		c0,0.143,0,0.285,0,0.426c2.248,0.038,4.322,1.054,5.865,2.733c0.023-5.376,3.803-9.726,8.457-9.726
		c4.652,0,8.441,4.35,8.465,9.726c1.544-1.68,3.627-2.695,5.874-2.733c0-0.141,0-0.283,0-0.426c0-0.49-0.047-0.973-0.089-1.465H42
		c2.238,0,4.05-2.236,4.05-5.013C46.05,21.436,44.18,19.13,41.872,19.13z M6.009,27.314c-1.433,0-2.596-1.387-2.596-3.102
		c0-1.71,1.163-3.1,2.596-3.1c1.431,0,2.594,1.39,2.594,3.1C8.603,25.928,7.439,27.314,6.009,27.314z M33.325,4.096
		c1.385,0,2.511,1.126,2.511,2.511c0,1.146-0.771,2.112-1.821,2.412c-0.522-1.563-1.401-2.964-2.541-4.105
		C31.934,4.41,32.594,4.096,33.325,4.096z M27.885,7.578c0.169-0.059,0.351-0.09,0.54-0.09c0.917,0,1.661,0.745,1.661,1.662
		c0,0.554-0.271,1.043-0.687,1.346c-0.272,0.199-0.61,0.317-0.975,0.317c-0.919,0-1.662-0.745-1.662-1.663
		C26.763,8.423,27.23,7.803,27.885,7.578z M24,9.634c1.149,0,2.081,0.691,2.081,1.542c0,0.852-0.932,1.544-2.081,1.544
		c-1.15,0-2.084-0.692-2.084-1.544C21.916,10.325,22.85,9.634,24,9.634z M24,13.726c1.418,0,2.586-0.753,2.959-1.812
		c0.849,0.588,1.38,1.421,1.38,2.348c0,1.774-1.943,3.214-4.339,3.214c-2.398,0-4.338-1.439-4.338-3.214
		c0-0.927,0.529-1.76,1.375-2.348C21.413,12.974,22.579,13.726,24,13.726z M19.575,7.488c0.189,0,0.371,0.031,0.541,0.09
		c0.652,0.225,1.122,0.845,1.122,1.572c0,0.918-0.744,1.663-1.663,1.663c-0.365,0-0.701-0.118-0.976-0.317
		c-0.416-0.303-0.687-0.792-0.687-1.346C17.913,8.233,18.658,7.488,19.575,7.488z M13.984,9.019c-1.05-0.3-1.82-1.268-1.82-2.412
		c0-1.385,1.125-2.511,2.51-2.511c0.733,0,1.394,0.314,1.853,0.817C15.386,6.055,14.508,7.456,13.984,9.019z M41.99,27.314
		c-1.431,0-2.594-1.387-2.594-3.102c0-1.71,1.163-3.1,2.594-3.1c1.433,0,2.595,1.39,2.595,3.1
		C44.585,25.928,43.423,27.314,41.99,27.314z"/>
</g>
</svg>
