<?xml version="1.0" encoding="utf-8"?>
<!-- Generator: Adobe Illustrator 16.0.0, SVG Export Plug-In . SVG Version: 6.00 Build 0)  -->
<!DOCTYPE svg PUBLIC "-//W3C//DTD SVG 1.1//EN" "http://www.w3.org/Graphics/SVG/1.1/DTD/svg11.dtd">
<svg version="1.1" id="Layer_1" xmlns="http://www.w3.org/2000/svg" xmlns:xlink="http://www.w3.org/1999/xlink" x="0px" y="0px"
	 width="48px" height="48px" viewBox="0 0 48 48" enable-background="new 0 0 48 48" xml:space="preserve">
<g>
	<path d="M43.009,31.673c-0.702-1.057-1.629-2.17-2.767-3.321c0.969-1.273,1.458-2.829,1.458-4.647c0-1.847-0.917-3.8-2.803-5.971
		c-1.09-1.258-2.514-2.588-4.245-3.966c0.45-0.771,0.682-1.672,0.682-2.669c0-1.619-1.003-3.332-3.066-5.239
		c-1.572-1.453-3.506-2.771-4.853-3.623c-0.893-0.564-1.923-0.862-2.979-0.862c-1.056,0-2.085,0.297-2.977,0.862
		c-1.346,0.85-3.281,2.17-4.853,3.623c-2.063,1.907-3.066,3.62-3.066,5.239c0,0.997,0.232,1.897,0.681,2.668
		c-1.731,1.379-3.154,2.709-4.245,3.966c-1.886,2.172-2.803,4.125-2.803,5.972c0,1.818,0.489,3.374,1.458,4.647
		c-1.138,1.151-2.066,2.265-2.767,3.321C4.707,33.416,4.12,35.08,4.12,36.616c0,2.179,0.612,4.044,1.819,5.545
		c1.081,1.343,2.66,2.407,4.696,3.16c3.114,1.153,7.37,1.668,13.802,1.668s10.688-0.515,13.802-1.668
		c2.035-0.753,3.615-1.817,4.695-3.16c1.207-1.501,1.82-3.366,1.82-5.545C44.754,35.08,44.167,33.416,43.009,31.673z M37.147,42.376
		c-3.522,1.305-8.643,1.473-12.71,1.473s-9.188-0.168-12.71-1.473c-3.088-1.145-4.466-2.919-4.466-5.76
		c0-1.264,0.808-3.517,4.655-7.07l1.331-1.229l-1.405-1.144c-1.042-0.846-1.527-1.949-1.527-3.47c0-1.994,2.597-5.075,7.125-8.453
		l1.691-1.261l-1.693-1.258c-0.53-0.395-0.756-0.883-0.756-1.634c0-1.06,1.997-3.39,6.457-6.209
		c0.389-0.245,0.838-0.376,1.299-0.376s0.911,0.131,1.301,0.377c4.46,2.819,6.455,5.149,6.455,6.208
		c0,0.751-0.225,1.239-0.755,1.634l-1.694,1.258l1.69,1.261c4.528,3.378,7.125,6.459,7.125,8.453c0,1.521-0.485,2.624-1.527,3.47
		l-1.405,1.144l1.331,1.229c3.848,3.553,4.655,5.806,4.655,7.069C41.613,39.457,40.235,41.231,37.147,42.376z"/>
	<path d="M26.537,14.604l-0.322-1.564l1.18-1.076c0.141-0.127,0.192-0.325,0.134-0.505c-0.059-0.183-0.218-0.31-0.407-0.331
		l-1.586-0.178l-0.659-1.454c-0.079-0.173-0.25-0.284-0.44-0.284c-0.19,0-0.362,0.111-0.44,0.284l-0.659,1.454l-1.586,0.178
		c-0.189,0.021-0.348,0.148-0.406,0.331c-0.059,0.18-0.006,0.378,0.134,0.505l1.18,1.076l-0.322,1.564
		c-0.039,0.187,0.036,0.378,0.19,0.489c0.153,0.111,0.358,0.123,0.522,0.029l1.388-0.789l1.387,0.789
		c0.165,0.094,0.37,0.082,0.523-0.029C26.501,14.981,26.575,14.79,26.537,14.604z"/>
	<path d="M27.821,24.826l1.388-0.789l1.389,0.789c0.165,0.094,0.37,0.083,0.523-0.029c0.153-0.11,0.227-0.302,0.188-0.488
		l-0.321-1.564l1.18-1.076c0.14-0.128,0.193-0.326,0.133-0.507c-0.058-0.18-0.216-0.311-0.405-0.33l-1.586-0.177l-0.659-1.455
		c-0.079-0.173-0.251-0.283-0.441-0.283s-0.362,0.11-0.44,0.283l-0.658,1.455l-1.587,0.177c-0.188,0.02-0.347,0.15-0.406,0.33
		c-0.059,0.181-0.006,0.379,0.134,0.507l1.179,1.076l-0.322,1.564c-0.038,0.187,0.036,0.378,0.19,0.488
		C27.452,24.909,27.657,24.92,27.821,24.826z"/>
	<path d="M20.912,23.817l-1.587-0.177l-0.659-1.453c-0.079-0.173-0.25-0.285-0.44-0.285s-0.361,0.112-0.44,0.285l-0.659,1.453
		l-1.586,0.177c-0.188,0.021-0.347,0.15-0.406,0.332c-0.059,0.18-0.006,0.378,0.134,0.507l1.179,1.075l-0.322,1.564
		c-0.038,0.187,0.036,0.377,0.189,0.488c0.154,0.112,0.359,0.123,0.523,0.029l1.388-0.789l1.388,0.789
		c0.165,0.094,0.369,0.083,0.522-0.029c0.154-0.111,0.228-0.302,0.189-0.488l-0.322-1.564l1.179-1.075
		c0.141-0.129,0.193-0.327,0.134-0.507C21.259,23.969,21.1,23.839,20.912,23.817z"/>
	<path d="M33.333,32.348l-1.586-0.177l-0.659-1.454c-0.079-0.174-0.25-0.284-0.44-0.284c-0.189,0-0.361,0.11-0.44,0.284
		l-0.658,1.454l-1.586,0.177c-0.188,0.021-0.348,0.15-0.407,0.33c-0.058,0.181-0.006,0.379,0.134,0.507l1.179,1.077l-0.322,1.563
		c-0.039,0.186,0.036,0.377,0.189,0.488s0.358,0.123,0.523,0.029l1.387-0.79l1.389,0.79c0.165,0.094,0.369,0.082,0.523-0.029
		s0.227-0.303,0.189-0.488l-0.322-1.563l1.181-1.077c0.14-0.128,0.192-0.326,0.133-0.507C33.681,32.498,33.522,32.368,33.333,32.348
		z"/>
	<path d="M20.271,36.046l-1.586-0.177l-0.659-1.455c-0.078-0.172-0.25-0.283-0.44-0.283s-0.362,0.111-0.44,0.283l-0.659,1.455
		L14.9,36.046c-0.189,0.021-0.348,0.15-0.406,0.331s-0.007,0.379,0.134,0.507l1.179,1.076l-0.322,1.564
		c-0.039,0.185,0.036,0.376,0.189,0.488c0.154,0.111,0.358,0.123,0.523,0.028l1.388-0.789l1.388,0.789
		c0.165,0.095,0.37,0.083,0.523-0.028c0.153-0.112,0.228-0.304,0.189-0.488l-0.322-1.564l1.18-1.076
		c0.14-0.128,0.192-0.326,0.134-0.507S20.46,36.067,20.271,36.046z"/>
</g>
</svg>
