<?xml version="1.0" encoding="utf-8"?>
<!-- Generator: Adobe Illustrator 16.0.0, SVG Export Plug-In . SVG Version: 6.00 Build 0)  -->
<!DOCTYPE svg PUBLIC "-//W3C//DTD SVG 1.1//EN" "http://www.w3.org/Graphics/SVG/1.1/DTD/svg11.dtd">
<svg version="1.1" id="Layer_1" xmlns="http://www.w3.org/2000/svg" xmlns:xlink="http://www.w3.org/1999/xlink" x="0px" y="0px"
	 width="48px" height="48px" viewBox="0 0 48 48" enable-background="new 0 0 48 48" xml:space="preserve">
<path fill="none" stroke="#FFFFFF" stroke-width="2" stroke-miterlimit="10" d="M6.917,37.001"/>
<g>
	<path d="M37.354,19.639c0-0.991-0.45-2.048-1.184-3.109l-25.637,4.994c0.299,0.879,0.821,1.591,1.528,2.167
		c-1.053,0.972-1.998,1.976-2.744,2.978l27.83-5.421C37.283,20.761,37.354,20.228,37.354,19.639z"/>
	<path d="M36.324,24.443L7.694,30.021c-0.047,0.261-0.072,0.517-0.072,0.771c0,1.615,0.441,2.896,1.242,3.909l30.655-5.972
		C38.905,27.316,37.746,25.856,36.324,24.443z"/>
	<path d="M30.908,6.574c-1.708-2.192-5.256-4.363-6.589-5.135c-0.322-0.187-0.719-0.187-1.041,0
		c-1.783,1.031-7.536,4.572-7.536,7.312c0,0.274,0.027,0.527,0.076,0.763L30.908,6.574z"/>
	<path d="M30.654,11.251c0.597-0.443,0.995-1.033,1.139-1.813l-16.669,3.247c-2.209,1.848-4.125,3.908-4.703,5.824l23.464-4.57
		C32.893,12.998,31.774,12.088,30.654,11.251z"/>
	<path d="M12.383,37.053c2.142,0.787,4.885,1.141,7.973,1.274v6.469c0,1.223,0.923,2.198,2.146,2.198h2.841
		c1.223,0,1.94-0.976,1.94-2.198v-6.469c6.873-0.3,12.111-1.717,12.664-6.645L12.383,37.053z"/>
</g>
</svg>
