<?xml version="1.0" encoding="utf-8"?>
<!-- Generator: Adobe Illustrator 16.0.0, SVG Export Plug-In . SVG Version: 6.00 Build 0)  -->
<!DOCTYPE svg PUBLIC "-//W3C//DTD SVG 1.1//EN" "http://www.w3.org/Graphics/SVG/1.1/DTD/svg11.dtd">
<svg version="1.1" id="Layer_1" xmlns="http://www.w3.org/2000/svg" xmlns:xlink="http://www.w3.org/1999/xlink" x="0px" y="0px"
	 width="48px" height="48px" viewBox="0 0 48 48" enable-background="new 0 0 48 48" xml:space="preserve">
<g>
	<path d="M34.484,28.606c1.063-0.865,1.681-2.059,1.681-3.716c0-2.491-3.072-5.408-6.165-7.715c0.699-0.52,1.11-1.252,1.11-2.293
		c0-2.982-7.405-6.993-7.405-6.993s-7.405,4.01-7.405,6.993c0,1.041,0.41,1.773,1.11,2.293c-3.093,2.307-6.165,5.224-6.165,7.715
		c0,1.657,0.618,2.851,1.681,3.716c-2.327,2.147-4.105,4.466-4.105,6.537c0,5.075,4.785,6.563,11.241,6.9v2.715
		c0,1.238,0.968,2.241,2.206,2.241h2.876c1.238,0,1.956-1.003,1.956-2.241v-2.701c6.583-0.313,11.491-1.773,11.491-6.914
		C38.589,33.072,36.811,30.753,34.484,28.606z M15.826,37.695c-1.422,0-2.576-1.153-2.576-2.575c0-1.422,1.153-2.575,2.576-2.575
		c1.422,0,2.575,1.153,2.575,2.575C18.401,36.542,17.248,37.695,15.826,37.695z M18.855,25.13c-1.266,0-2.292-1.026-2.292-2.292
		c0-1.266,1.026-2.292,2.292-2.292c1.266,0,2.292,1.026,2.292,2.292C21.147,24.104,20.121,25.13,18.855,25.13z M22.066,14.485
		c0-0.836,0.677-1.513,1.513-1.513s1.513,0.677,1.513,1.513c0,0.835-0.678,1.513-1.513,1.513S22.066,15.32,22.066,14.485z
		 M26.222,38.6c-0.547,0-0.992-0.444-0.992-0.992s0.444-0.992,0.992-0.992s0.992,0.444,0.992,0.992S26.77,38.6,26.222,38.6z
		 M26.077,31.172c-0.825,0-1.493-0.668-1.493-1.492c0-0.825,0.668-1.493,1.493-1.493c0.824,0,1.492,0.668,1.492,1.493
		C27.569,30.504,26.901,31.172,26.077,31.172z M29.063,24.509c-0.989,0-1.79-0.802-1.79-1.79c0-0.989,0.801-1.791,1.79-1.791
		c0.989,0,1.791,0.802,1.791,1.791C30.854,23.708,30.053,24.509,29.063,24.509z M33.781,37.065c-1.092,0-1.977-0.885-1.977-1.977
		c0-1.092,0.885-1.977,1.977-1.977c1.092,0,1.977,0.885,1.977,1.977C35.758,36.18,34.873,37.065,33.781,37.065z"/>
	<path d="M21.657,5.608l-0.364,2.123c-0.022,0.13,0.031,0.262,0.138,0.339c0.107,0.078,0.25,0.088,0.366,0.027l1.907-1.002
		l1.907,1.002c0.117,0.062,0.258,0.051,0.366-0.027c0.107-0.077,0.16-0.209,0.138-0.339l-0.364-2.123l1.543-1.504
		c0.095-0.093,0.129-0.23,0.088-0.356c-0.042-0.126-0.15-0.218-0.281-0.237l-2.132-0.31L24.016,1.27
		c-0.059-0.119-0.179-0.194-0.312-0.194c-0.133,0-0.253,0.075-0.312,0.193l-0.954,1.932l-2.132,0.31
		c-0.131,0.019-0.24,0.111-0.281,0.237s-0.007,0.264,0.088,0.356L21.657,5.608z"/>
</g>
</svg>
