<?xml version="1.0" encoding="utf-8"?>
<!-- Generator: Adobe Illustrator 16.0.0, SVG Export Plug-In . SVG Version: 6.00 Build 0)  -->
<!DOCTYPE svg PUBLIC "-//W3C//DTD SVG 1.1//EN" "http://www.w3.org/Graphics/SVG/1.1/DTD/svg11.dtd">
<svg version="1.1" id="Layer_1" xmlns="http://www.w3.org/2000/svg" xmlns:xlink="http://www.w3.org/1999/xlink" x="0px" y="0px"
	 width="48px" height="48px" viewBox="0 0 48 48" enable-background="new 0 0 48 48" xml:space="preserve">
<g>
	<path d="M45.112,5.038l0.479-0.597c0.515-0.644,0.412-1.582-0.229-2.096c-0.644-0.514-1.581-0.413-2.096,0.229l-0.479,0.597
		C39.61,1.512,35.6,2.267,33.27,5.168c-0.142,0.178-0.276,0.361-0.399,0.548c1.892,0.864,3.636,1.997,5.186,3.35
		c0.754,0.657,1.462,1.367,2.117,2.124c1.337,1.544,2.455,3.28,3.312,5.162c0.639-0.426,1.228-0.956,1.733-1.588
		C47.549,11.861,47.422,7.781,45.112,5.038z"/>
	<path d="M38.434,40.902c-1.245,1.138-2.625,2.132-4.109,2.954l0.751,1.639c0.419,0.912,1.318,1.45,2.259,1.45
		c0.347,0,0.7-0.072,1.034-0.229c1.247-0.571,1.794-2.046,1.223-3.291L38.434,40.902z"/>
	<path d="M9.994,9.068c1.548-1.352,3.292-2.485,5.185-3.352c-0.124-0.187-0.259-0.371-0.401-0.549
		c-2.331-2.901-6.34-3.656-9.519-1.997L4.78,2.574C4.267,1.933,3.327,1.832,2.684,2.346C2.042,2.859,1.94,3.798,2.455,4.441
		l0.479,0.597c-2.308,2.743-2.436,6.823-0.106,9.726c0.509,0.633,1.098,1.166,1.741,1.592c0.854-1.882,1.973-3.618,3.308-5.162
		C8.533,10.437,9.241,9.727,9.994,9.068z"/>
	<path d="M8.456,43.426c-0.572,1.245-0.023,2.72,1.224,3.291c0.334,0.156,0.686,0.229,1.032,0.229c0.942,0,1.842-0.538,2.26-1.45
		l0.754-1.644c-1.487-0.82-2.866-1.815-4.108-2.954L8.456,43.426z"/>
	<path d="M24.027,6.776c-10.15,0-18.375,8.228-18.375,18.376c0,10.149,8.225,18.374,18.375,18.374
		c10.148,0,18.374-8.225,18.374-18.374C42.401,15.004,34.176,6.776,24.027,6.776z M23.954,28.035c-1.593,0-2.885-1.29-2.885-2.886
		c0-0.129,0.009-0.255,0.026-0.379l-2.507-2.002c-0.643-0.515-0.746-1.453-0.233-2.094c0.517-0.644,1.451-0.748,2.095-0.235
		l2.036,1.628l0.051-7.611c0.006-0.82,0.672-1.495,1.491-1.495c0.002,0,0.007,0,0.01,0c0.823,0.072,1.486,0.692,1.48,1.515
		l-0.058,8.206c0.827,0.507,1.381,1.424,1.381,2.464C26.842,26.741,25.549,28.035,23.954,28.035z"/>
</g>
</svg>
