<?xml version="1.0" encoding="utf-8"?>
<!-- Generator: Adobe Illustrator 16.0.0, SVG Export Plug-In . SVG Version: 6.00 Build 0)  -->
<!DOCTYPE svg PUBLIC "-//W3C//DTD SVG 1.1//EN" "http://www.w3.org/Graphics/SVG/1.1/DTD/svg11.dtd">
<svg version="1.1" id="Layer_1" xmlns="http://www.w3.org/2000/svg" xmlns:xlink="http://www.w3.org/1999/xlink" x="0px" y="0px"
	 width="48px" height="48px" viewBox="0 0 48 48" enable-background="new 0 0 48 48" xml:space="preserve">
<g>
	<path d="M46.143,31.305l-3.28-10.6c-0.825-2.668-2.898-4.793-5.546-5.685c-2.191-0.737-4.577-0.563-6.621,0.439
		c0.034-0.313,0.051-0.633,0.051-0.957c0-4.246-2.961-7.7-6.602-7.7s-6.603,3.454-6.603,7.7c0,0.318,0.017,0.632,0.05,0.941
		c-2.035-0.988-4.408-1.156-6.589-0.423c-2.647,0.892-4.721,3.017-5.545,5.685l-3.281,10.6c-0.288,0.938-0.026,1.938,0.683,2.611
		c0.486,0.462,1.113,0.706,1.754,0.706c0.299,0,0.599-0.053,0.89-0.16c0.505-0.187,1.044-0.399,1.598-0.639
		c0.084,0.048,0.175,0.088,0.27,0.121c0.907,0.3,2.176,0.532,3.622,0.532c1.724,0,3.699-0.331,5.611-1.273l-2.491,9.357
		c-0.29,1.087-0.057,2.235,0.629,3.126c0.686,0.893,1.746,1.402,2.871,1.402h13.065c1.125,0,2.187-0.51,2.872-1.402
		c0.686-0.892,0.918-2.045,0.629-3.133l-2.495-9.37c1.922,0.955,3.91,1.291,5.645,1.291c1.445,0,2.715-0.232,3.621-0.531
		c0.095-0.032,0.186-0.072,0.271-0.12c0.553,0.24,1.092,0.453,1.598,0.639c0.291,0.108,0.591,0.161,0.888,0.161
		c0.643,0,1.27-0.244,1.756-0.706C46.17,33.242,46.432,32.243,46.143,31.305z M24.145,9.785c1.996,0,3.62,2.116,3.62,4.717
		c0,2.602-1.624,4.719-3.62,4.719c-1.995,0-3.619-2.117-3.619-4.719C20.525,11.9,22.149,9.785,24.145,9.785z M11.23,31.478
		c0.748-0.575,1.414-1.214,1.929-1.921c0.482-0.667,0.335-1.599-0.332-2.083c-0.666-0.484-1.598-0.335-2.083,0.331
		c-0.9,1.241-2.823,2.486-5.459,3.546l3.021-9.764c0.542-1.755,1.906-3.153,3.648-3.739c1.74-0.586,3.674-0.297,5.166,0.773
		l2.823,2.022l-2.133,8.019C15.682,30.892,13.146,31.449,11.23,31.478z M37.574,27.804c-0.484-0.666-1.416-0.815-2.081-0.331
		c-0.668,0.484-0.815,1.417-0.332,2.083c0.515,0.707,1.181,1.347,1.929,1.921c-1.929-0.028-4.484-0.593-6.623-2.86l-2.118-7.958
		l2.851-2.04c1.492-1.07,3.426-1.359,5.166-0.773c1.742,0.586,3.105,1.984,3.648,3.739l3.021,9.764
		C40.398,30.29,38.475,29.044,37.574,27.804z"/>
	<path d="M24.209,6.467c3.202,0,6.942-0.727,6.942-2.777c0-2.049-3.74-2.776-6.942-2.776c-3.203,0-6.943,0.727-6.943,2.776
		C17.266,5.74,21.006,6.467,24.209,6.467z M24.209,2.902c2.433,0,4.074,0.444,4.727,0.788c-0.652,0.345-2.294,0.789-4.727,0.789
		s-4.076-0.444-4.727-0.789C20.134,3.346,21.776,2.902,24.209,2.902z"/>
</g>
</svg>
