<?xml version="1.0" encoding="utf-8"?>
<!-- Generator: Adobe Illustrator 16.0.0, SVG Export Plug-In . SVG Version: 6.00 Build 0)  -->
<!DOCTYPE svg PUBLIC "-//W3C//DTD SVG 1.1//EN" "http://www.w3.org/Graphics/SVG/1.1/DTD/svg11.dtd">
<svg version="1.1" id="Layer_1" xmlns="http://www.w3.org/2000/svg" xmlns:xlink="http://www.w3.org/1999/xlink" x="0px" y="0px"
	 width="48px" height="48px" viewBox="0 0 48 48" enable-background="new 0 0 48 48" xml:space="preserve">
<g>
	<path d="M7.695,10.117c0.604,0.522,1.408,0.758,2.197,0.646l8.529-1.218c0.105-0.368,0.288-0.718,0.471-1.045
		c-0.024-0.168-0.003-0.34-0.003-0.516V3.807c0-0.52,0.074-1.014,0.273-1.461L9.915,1.027C9.126,0.916,8.307,1.15,7.704,1.674
		C7.103,2.196,6.738,2.955,6.738,3.753v4.284C6.738,8.835,7.093,9.594,7.695,10.117z"/>
	<path d="M18.259,11.44c-4.939,1.987-8.433,6.856-8.433,12.45c0,6.321-1.828,8.836-1.793,9.798h30.614
		c0.036-0.962-1.793-3.477-1.793-9.798c0-5.594-3.492-10.464-8.432-12.451c-0.431-0.172-0.872-0.324-1.322-0.454
		c0-0.014,0.001-0.026,0.001-0.04c0-2.054-1.665-3.718-3.719-3.718c-2.053,0-3.718,1.665-3.718,3.718
		c0,0.004,0.001,0.009,0.001,0.014C19.185,11.095,18.716,11.257,18.259,11.44z"/>
	<path d="M39.693,36.136H6.988c-1.155,0-2.173,0.877-2.173,2.033v2.353c0,1.155,1.018,2.083,2.173,2.083H27.13
		c0.039,2.365,1.969,4.271,4.343,4.271c2.376,0,4.304-1.906,4.343-4.271h3.878c1.155,0,2.185-0.928,2.185-2.083v-2.353
		C41.878,37.013,40.849,36.136,39.693,36.136z"/>
	<path d="M27.804,7.983c0,0.176,0.015,0.347-0.009,0.516c0.183,0.328,0.368,0.678,0.474,1.045l8.524,1.218
		c0.79,0.112,1.598-0.123,2.201-0.646c0.604-0.523,0.961-1.282,0.961-2.08V3.753c0-0.798-0.372-1.557-0.975-2.079
		c-0.603-0.523-1.428-0.758-2.217-0.646l-9.237,1.319c0.198,0.447,0.277,0.941,0.277,1.461V7.983z"/>
	<path d="M25.532,6.363V3.807c0-0.699-0.6-1.326-1.299-1.326h-1.785c-0.698,0-1.286,0.627-1.286,1.326v2.556
		C22.381,5.736,24.492,5.767,25.532,6.363z"/>
</g>
</svg>
