<?xml version="1.0" encoding="utf-8"?>
<!-- Generator: Adobe Illustrator 16.0.0, SVG Export Plug-In . SVG Version: 6.00 Build 0)  -->
<!DOCTYPE svg PUBLIC "-//W3C//DTD SVG 1.1//EN" "http://www.w3.org/Graphics/SVG/1.1/DTD/svg11.dtd">
<svg version="1.1" id="Layer_1" xmlns="http://www.w3.org/2000/svg" xmlns:xlink="http://www.w3.org/1999/xlink" x="0px" y="0px"
	 width="48px" height="48px" viewBox="0 0 48 48" enable-background="new 0 0 48 48" xml:space="preserve">
<path d="M36.124,0.844H16.091c-1.02,0-2.015,0.291-2.877,0.84c0,0-3.417,2.173-4.648,2.963c-0.642,0.411-1.49,1.182-1.49,2.079
	c0,9.343,0,37.364,0,37.364c0,1.558,1.282,2.803,2.839,2.803c0,0,23.671,0.045,23.892,0.045c0.861,0,1.695-0.36,2.285-0.989
	l3.922-4.201c0.934-0.999,1.429-2.299,1.429-3.666V6.204C41.441,3.25,39.078,0.844,36.124,0.844z M28.992,22.059
	c0,1.128-0.886,2.065-2.012,2.065h-2.765v8.353c0,1.127-0.882,2.052-2.008,2.052h-1.869c-1.128,0-2.007-0.925-2.007-2.052v-8.353
	h-2.766c-1.127,0-2.01-0.938-2.01-2.065V20.19c0-1.128,0.883-2.036,2.01-2.036h2.766v-3.915c0-1.126,0.879-2.055,2.007-2.055h1.869
	c1.126,0,2.008,0.929,2.008,2.055v3.915h2.765c1.126,0,2.012,0.908,2.012,2.036V22.059z M38.542,38.081
	c0,0.606-0.249,1.188-0.661,1.631l-1.556,1.639V8.221c0-1.44-0.778-2.004-2.218-2.004H11.641l3.169-2.019
	c0.384-0.243,0.827-0.37,1.281-0.37h20.033c1.316,0,2.418,1.062,2.418,2.376V38.081z"/>
</svg>
