<?xml version="1.0" encoding="utf-8"?>
<!-- Generator: Adobe Illustrator 16.0.0, SVG Export Plug-In . SVG Version: 6.00 Build 0)  -->
<!DOCTYPE svg PUBLIC "-//W3C//DTD SVG 1.1//EN" "http://www.w3.org/Graphics/SVG/1.1/DTD/svg11.dtd">
<svg version="1.1" id="Layer_1" xmlns="http://www.w3.org/2000/svg" xmlns:xlink="http://www.w3.org/1999/xlink" x="0px" y="0px"
	 width="48px" height="48px" viewBox="0 0 48 48" enable-background="new 0 0 48 48" xml:space="preserve">
<g>
	<path d="M45.156,10.354c0-5.172-4.187-9.398-9.358-9.398H12.17c-5.172,0-9.327,4.227-9.327,9.398l-0.079,25.14
		c0,6.219,5.021,11.261,11.24,11.261h19.959c6.219,0,11.272-5.042,11.272-11.261L45.156,10.354z M35.185,6.772
		c1.642,0,2.975,1.332,2.975,2.975c0,1.642-1.333,2.974-2.975,2.974c-1.644,0-2.976-1.332-2.976-2.974
		C32.209,8.104,33.541,6.772,35.185,6.772z M12.783,6.772c1.643,0,2.975,1.332,2.975,2.975c0,1.642-1.332,2.974-2.975,2.974
		s-2.975-1.332-2.975-2.974C9.808,8.104,11.14,6.772,12.783,6.772z M41.432,35.494c0,4.108-3.36,7.458-7.469,7.458H14.004
		c-4.108,0-7.437-3.349-7.437-7.458V16.565h34.865V35.494z"/>
	<path d="M23.762,33.918h-5.943v-0.042l1.446-1.216c2.287-2.044,4.203-4.162,4.203-6.814c0-2.871-1.974-4.963-5.552-4.963
		c-2.141,0-3.992,0.73-5.185,1.63l1.046,2.653c0.827-0.633,2.019-1.314,3.382-1.314c1.825,0,2.603,1.022,2.603,2.312
		c-0.049,1.85-1.74,3.626-5.195,6.716l-2.056,1.849v2.201h11.251V33.918z"/>
	<path d="M36.013,31.687c0-1.849-0.729-3.164-1.922-3.967c-1.119-0.803-2.652-1.144-4.161-1.144c-0.389,0-0.681-0.01-1.022,0.039
		l0.341-2.443h6.162v-3.011h-8.742l-1.045,8.292c0.656-0.098,1.265-0.149,2.141-0.149c3.164,0,4.454,0.997,4.454,2.627
		c0,1.679-1.631,2.408-3.163,2.408c-1.436,0-2.872-0.438-3.578-0.779l-0.657,2.774c0.876,0.463,2.482,0.901,4.404,0.901
		C33.482,37.235,36.013,34.631,36.013,31.687z"/>
</g>
</svg>
