<?xml version="1.0" encoding="utf-8"?>
<!-- Generator: Adobe Illustrator 16.0.0, SVG Export Plug-In . SVG Version: 6.00 Build 0)  -->
<!DOCTYPE svg PUBLIC "-//W3C//DTD SVG 1.1//EN" "http://www.w3.org/Graphics/SVG/1.1/DTD/svg11.dtd">
<svg version="1.1" id="Layer_1" xmlns="http://www.w3.org/2000/svg" xmlns:xlink="http://www.w3.org/1999/xlink" x="0px" y="0px"
	 width="48px" height="48px" viewBox="0 0 48 48" enable-background="new 0 0 48 48" xml:space="preserve">
<g>
	<path d="M21.089,46.661h5.832c1.393,0,2.525-1.105,2.525-2.499v-3.014l-10.236,4.698C19.676,46.349,20.348,46.661,21.089,46.661z"
		/>
	<polygon points="18.545,34.012 29.445,29.009 29.445,25.45 18.545,30.451 	"/>
	<path d="M24.005,0.825c-4.101,0-7.434,3.324-7.434,7.423c0,1.952,0.755,3.728,1.974,5.053v4.889l10.909-4.889
		c1.28-1.41,1.974-3.193,1.974-5.053C31.429,4.149,28.105,0.825,24.005,0.825z M18.895,9.713c-0.627,0-1.135-0.508-1.135-1.135
		s0.508-1.136,1.135-1.136c0.627,0,1.135,0.509,1.135,1.136S19.522,9.713,18.895,9.713z M21.808,6.541
		c-0.987,0-1.788-0.801-1.788-1.788s0.8-1.788,1.788-1.788s1.788,0.801,1.788,1.788S22.795,6.541,21.808,6.541z"/>
	<polygon points="18.545,26.1 29.445,21.099 29.445,17.538 18.545,22.541 	"/>
	<polygon points="18.545,41.799 29.445,36.797 29.445,33.36 18.545,38.363 	"/>
</g>
</svg>
