<?xml version="1.0" encoding="utf-8"?>
<!-- Generator: Adobe Illustrator 16.0.0, SVG Export Plug-In . SVG Version: 6.00 Build 0)  -->
<!DOCTYPE svg PUBLIC "-//W3C//DTD SVG 1.1//EN" "http://www.w3.org/Graphics/SVG/1.1/DTD/svg11.dtd">
<svg version="1.1" id="Layer_1" xmlns="http://www.w3.org/2000/svg" xmlns:xlink="http://www.w3.org/1999/xlink" x="0px" y="0px"
	 width="48px" height="48px" viewBox="0 0 48 48" enable-background="new 0 0 48 48" xml:space="preserve">
<g>
	<g>
		<path d="M43.723,41.181c0,0,0.01-17.594,0.01-17.83c0-3.8-8.764-5.925-13.178-6.36v3.069c6.157,0.67,9.684,2.615,10.027,3.21
			c1.324,2.304-3.827,6.298-5.855,6.435c-0.024,0.002-0.049,0.004-0.073,0.004c-1.596,0-2.175-3.535-5.053-3.535
			c-1.404,0-1.908,1.402-3.937,1.402c-2.514,0-2.982-1.439-4.281-1.439c-2.12,0-4.043,7.198-6.918,7.198
			c-2.531,0-1.908-7.862-4.169-7.862c-0.775,0-0.951,1.109-1.672,1.109c-1.116,0-1.824-1.684-0.651-3.23
			c1.136-1.497,4.931-2.501,9.774-3.21v-3.055c-8.712,0.996-12.892,3.545-12.892,6.611c0,4.587,0,17.483,0,17.483h0.011
			c0,0-0.001,0.006-0.001,0.017c0,2.086,7.741,5.803,19.43,5.803c11.705,0,19.438-3.722,19.438-5.807
			c0-0.011-0.002-0.013-0.002-0.013H43.723z"/>
	</g>
	<path d="M29.911,11.158c0-1.363-1.105-2.456-2.468-2.456h-0.216c0.134-0.475,0.202-1.016,0.202-1.638
		c0-3.128-2.495-5.592-2.602-5.695c-0.297-0.29-0.771-0.291-1.068-0.002c-0.106,0.103-2.601,2.57-2.601,5.697
		c0,0.537,0.055,1.104,0.212,1.638h-0.227c-1.363,0-2.468,1.093-2.468,2.456V14.5c0,0.189,0.089,0.368,0.241,0.482
		c0.151,0.113,0.348,0.148,0.53,0.096l-0.095,6.79c0,1.783,1.446,3.223,3.229,3.223h3.236c1.783,0,3.229-1.439,3.229-3.223
		l0.095-9.633c0.457-0.133,0.771-0.551,0.771-1.026V11.158z M22.69,7.064c0-1.386,0.665-2.657,1.253-3.51
		c0.08-0.115,0.211-0.185,0.352-0.185c0.141,0,0.272,0.068,0.353,0.185c0.587,0.85,1.25,2.119,1.25,3.511
		c0,0.806-0.127,1.311-0.322,1.637h-0.566l-0.375-2.001c-0.031-0.163-0.174-0.282-0.34-0.282s-0.31,0.119-0.34,0.282l-0.375,2.001
		h-0.557C22.823,8.376,22.69,7.87,22.69,7.064z M27.505,21.868c0,0.938-0.75,1.711-1.688,1.711h-3.235
		c-0.938,0-1.688-0.772-1.688-1.711l0.095-7.238l6.611-1.946L27.505,21.868z"/>
</g>
</svg>
