<?xml version="1.0" encoding="utf-8"?>
<!-- Generator: Adobe Illustrator 16.0.0, SVG Export Plug-In . SVG Version: 6.00 Build 0)  -->
<!DOCTYPE svg PUBLIC "-//W3C//DTD SVG 1.1//EN" "http://www.w3.org/Graphics/SVG/1.1/DTD/svg11.dtd">
<svg version="1.1" id="Layer_1" xmlns="http://www.w3.org/2000/svg" xmlns:xlink="http://www.w3.org/1999/xlink" x="0px" y="0px"
	 width="48px" height="48px" viewBox="0 0 48 48" enable-background="new 0 0 48 48" xml:space="preserve">
<g>
	<path d="M44.087,3.617c-0.611-0.601-1.594-0.591-2.191,0.021l-5.958,6.071c-0.601,0.61-0.591,1.592,0.02,2.191
		c0.301,0.297,0.694,0.444,1.085,0.444c0.402,0,0.803-0.156,1.106-0.464l5.959-6.071C44.708,5.199,44.699,4.218,44.087,3.617z"/>
	<path d="M33.854,8.972c0.856,0,1.393-0.693,1.393-1.549V2.257c0-0.856-0.537-1.551-1.393-1.551c-0.856,0-1.393,0.694-1.393,1.551
		v5.166C32.461,8.278,32.998,8.972,33.854,8.972z"/>
	<path d="M33.201,12.381c-0.227-0.227-0.526-0.359-0.846-0.359c-0.319,0-0.623,0.122-0.85,0.349l-9.119,9.103l-3.696,1.051
		c-4.77,1.357-9.114,3.908-12.624,7.41L1.64,34.35c-0.318,0.319-0.497,0.75-0.497,1.2c0,0.449,0.18,0.874,0.497,1.191l9.391,9.4
		c0.317,0.316,0.751,0.497,1.201,0.496c0.449,0,0.881-0.178,1.201-0.496l4.417-4.426c3.501-3.51,6.053-7.854,7.411-12.624
		l1.052-3.696l9.104-9.121c0.227-0.226,0.346-0.526,0.346-0.846c0-0.32-0.133-0.62-0.36-0.847L33.201,12.381z M18.172,39.028
		l-0.423,0.425c-0.468,0.47-1.093,0.334-1.563-0.137l-1.295-1.295c-2.411,1.8-4.614,1.966-5.854,0.725
		c-1.241-1.24-1.075-3.443,0.725-5.854l-1.295-1.295c-0.47-0.47-0.605-1.095-0.136-1.563l0.424-0.423
		c0.225-0.226,0.497-0.318,0.815-0.317c0.319,0,0.607,0.145,0.833,0.369l1.286,1.306c2.096-1.479,4.473-1.811,5.705-0.579
		c1.231,1.231,0.901,3.609-0.579,5.705l1.305,1.285c0.226,0.226,0.37,0.514,0.37,0.833C18.49,38.532,18.397,38.804,18.172,39.028z"
		/>
	<path d="M45.531,12.346h-5.167c-0.855,0-1.549,0.77-1.549,1.626c0,0.855,0.693,1.624,1.549,1.624h5.167
		c0.856,0,1.55-0.769,1.55-1.624C47.082,13.115,46.387,12.346,45.531,12.346z"/>
</g>
</svg>
