<?xml version="1.0" encoding="utf-8"?>
<!-- Generator: Adobe Illustrator 16.0.0, SVG Export Plug-In . SVG Version: 6.00 Build 0)  -->
<!DOCTYPE svg PUBLIC "-//W3C//DTD SVG 1.1//EN" "http://www.w3.org/Graphics/SVG/1.1/DTD/svg11.dtd">
<svg version="1.1" id="Layer_1" xmlns="http://www.w3.org/2000/svg" xmlns:xlink="http://www.w3.org/1999/xlink" x="0px" y="0px"
	 width="48px" height="48px" viewBox="0 0 48 48" enable-background="new 0 0 48 48" xml:space="preserve">
<path d="M42.804,22.277h-1.563c-1.137-5.706-5.084-10.439-10.349-12.646c-0.004-3.703-3.008-6.704-6.712-6.704
	s-6.708,3.001-6.712,6.704c-5.268,2.204-9.211,6.94-10.349,12.646H5.558c-2.436,0-4.415,2.005-4.415,4.44
	c0,2.435,1.979,4.44,4.415,4.44h1.953c1.548,4.799,5.099,8.633,9.66,10.602l-2.403-4.909c-0.635-0.303-1.073-0.949-1.073-1.699
	c0-1.039,0.843-1.881,1.882-1.881c1.037,0,1.879,0.841,1.879,1.88c0,0.139-0.015,0.273-0.044,0.402l3.534,7.339
	c1.017,0.184,2.064,0.282,3.133,0.282h0.204c1.07,0,2.117-0.098,3.134-0.282l3.534-7.339c-0.028-0.129-0.044-0.264-0.044-0.402
	c0-1.039,0.842-1.881,1.88-1.881c1.039,0,1.881,0.844,1.881,1.882c0,0.749-0.439,1.396-1.074,1.699l-2.401,4.908
	c4.561-1.969,8.109-5.803,9.659-10.602h1.953c2.437,0,4.415-2.006,4.415-4.44C47.219,24.282,45.24,22.277,42.804,22.277z
	 M31.272,17.36l1.701-0.248l0.761-1.542c0.074-0.153,0.23-0.25,0.402-0.25c0.17,0,0.325,0.097,0.4,0.25l0.762,1.542l1.702,0.248
	c0.168,0.025,0.308,0.143,0.36,0.306c0.054,0.162,0.008,0.339-0.112,0.458l-1.233,1.201l0.292,1.695
	c0.03,0.168-0.039,0.338-0.178,0.438c-0.137,0.1-0.32,0.113-0.473,0.033l-1.521-0.8l-1.523,0.8c-0.15,0.08-0.333,0.066-0.471-0.033
	c-0.139-0.1-0.207-0.27-0.178-0.438l0.289-1.695l-1.23-1.201c-0.121-0.119-0.166-0.296-0.113-0.458
	C30.963,17.503,31.104,17.385,31.272,17.36z M26.168,18.075c0.027,0.168-0.04,0.338-0.179,0.438
	c-0.139,0.101-0.344,0.114-0.494,0.035l-1.351-0.703l-1.315,0.703c-0.15,0.08-0.326,0.066-0.464-0.035
	c-0.14-0.1-0.202-0.27-0.174-0.438l0.291-1.695l-1.229-1.199c-0.122-0.12-0.165-0.297-0.113-0.46
	c0.054-0.162,0.194-0.28,0.362-0.305l1.701-0.248l0.762-1.542c0.046-0.094,0.113-0.206,0.217-0.206c0.101,0,0.17,0.112,0.216,0.206
	l0.761,1.542l1.702,0.248c0.168,0.024,0.309,0.143,0.361,0.305c0.052,0.163,0.009,0.34-0.115,0.46l-1.229,1.199L26.168,18.075z
	 M24.181,5.782c1.813,0,3.33,1.252,3.742,2.939c-1.159-0.247-2.496-0.413-3.743-0.418v0l-0.084,0
	c-1.167,0.005-2.498,0.16-3.661,0.407C20.851,7.029,22.371,5.782,24.181,5.782z M11,17.666c0.053-0.163,0.192-0.281,0.36-0.306
	l1.703-0.248l0.759-1.542c0.078-0.153,0.233-0.25,0.401-0.25c0.173,0,0.328,0.097,0.404,0.25l0.76,1.542l1.701,0.248
	c0.17,0.025,0.31,0.143,0.361,0.306c0.054,0.162,0.01,0.339-0.112,0.458l-1.231,1.201l0.291,1.695
	c0.028,0.168-0.04,0.338-0.178,0.438c-0.14,0.1-0.321,0.113-0.472,0.033l-1.524-0.8l-1.52,0.8c-0.151,0.08-0.334,0.066-0.474-0.033
	c-0.138-0.1-0.206-0.27-0.177-0.438l0.29-1.695l-1.23-1.201C10.99,18.005,10.946,17.828,11,17.666z M42.804,28.21H5.558
	c-0.813,0-1.472-0.68-1.472-1.492c0-0.813,0.658-1.494,1.472-1.494h37.246c0.813,0,1.472,0.68,1.472,1.494
	C44.275,27.53,43.617,28.21,42.804,28.21z"/>
</svg>
