<?xml version="1.0" encoding="utf-8"?>
<!-- Generator: Adobe Illustrator 16.0.0, SVG Export Plug-In . SVG Version: 6.00 Build 0)  -->
<!DOCTYPE svg PUBLIC "-//W3C//DTD SVG 1.1//EN" "http://www.w3.org/Graphics/SVG/1.1/DTD/svg11.dtd">
<svg version="1.1" id="Layer_1" xmlns="http://www.w3.org/2000/svg" xmlns:xlink="http://www.w3.org/1999/xlink" x="0px" y="0px"
	 width="48px" height="48px" viewBox="0 0 48 48" enable-background="new 0 0 48 48" xml:space="preserve">
<g>
	<path d="M21.458,5.885c-5.465,0-10.603,2.128-14.466,5.992C3.128,15.741,1,20.879,1,26.343s2.126,10.602,5.991,14.465
		c3.863,3.865,9.002,5.993,14.467,5.993s10.602-2.127,14.466-5.991c7.976-7.977,7.976-20.957-0.002-28.933
		C32.059,8.013,26.923,5.885,21.458,5.885z M14.549,15.773c-0.684,0.683-1.791,0.683-2.474,0c-0.685-0.684-0.685-1.792,0-2.474
		c0.683-0.684,1.79-0.684,2.474,0C15.232,13.981,15.232,15.089,14.549,15.773z M28.769,12.769c-0.301,0.634-0.932,1.006-1.59,1.006
		c-0.251,0-0.505-0.054-0.747-0.167c-0.039-0.019-4.164-1.899-8.132-0.306c-0.896,0.357-1.926-0.075-2.287-0.977
		c-0.361-0.901,0.076-1.925,0.977-2.287c5.418-2.176,10.722,0.283,10.943,0.389C28.812,10.843,29.185,11.892,28.769,12.769z"/>
	<path d="M45.513,3.129c-1.535-1.535-4.105-1.678-5.833-0.427c-1.638-0.738-3.629-0.436-4.975,0.91l-2.571,2.571
		c1.981,1.052,3.816,2.405,5.446,4.036c1.821,1.821,3.269,3.876,4.344,6.069l2.729-2.728c1.188-1.188,1.563-2.879,1.126-4.385
		C47.254,7.415,47.166,4.782,45.513,3.129z M42.346,4.162c0.57,0,1.106,0.222,1.51,0.625c0.593,0.593,0.762,1.449,0.511,2.194
		L41.66,4.275C41.878,4.202,42.108,4.162,42.346,4.162z"/>
</g>
</svg>
