<?xml version="1.0" encoding="utf-8"?>
<!-- Generator: Adobe Illustrator 16.0.0, SVG Export Plug-In . SVG Version: 6.00 Build 0)  -->
<!DOCTYPE svg PUBLIC "-//W3C//DTD SVG 1.1//EN" "http://www.w3.org/Graphics/SVG/1.1/DTD/svg11.dtd">
<svg version="1.1" id="Layer_1" xmlns="http://www.w3.org/2000/svg" xmlns:xlink="http://www.w3.org/1999/xlink" x="0px" y="0px"
	 width="48px" height="48px" viewBox="0 0 48 48" enable-background="new 0 0 48 48" xml:space="preserve">
<g>
	<path d="M37.769,22.188h-4.706c0.093-3.829-2.251-6.188-5.232-6.184H13.842c-2.871,0-5.196,2.318-5.196,5.188v20.35
		c0,2.87,2.326,5.197,5.196,5.197h13.989c2.87,0,5.216-2.327,5.216-5.197v-0.244c5.867-0.11,10.591-4.919,10.591-10.816v-2.418
		C43.638,24.828,41.007,22.188,37.769,22.188z M39.692,30.483c0,3.709-2.959,6.738-6.646,6.848V26.187h4.722
		c1.05,0,1.923,0.829,1.923,1.878V30.483z"/>
	<path d="M21.063,13.413c0.668,0.505,1.566-0.17,1.289-0.96c-0.313-0.891-0.906-1.835-1.883-2.701
		c-2.246-1.991-1.673-4.149-0.41-6.224c0.463-0.76-0.419-1.639-1.161-1.146c-1.53,1.017-3.092,2.704-3.092,5.357
		C15.805,10.904,18.954,11.818,21.063,13.413z"/>
	<path d="M14.208,13.464c0.473,0.357,1.108-0.121,0.912-0.679c-0.222-0.63-0.641-1.298-1.332-1.91
		C12.2,9.467,12.605,7.94,13.498,6.474c0.328-0.538-0.296-1.16-0.82-0.811c-1.083,0.719-2.188,1.913-2.188,3.789
		C10.49,11.69,12.717,12.336,14.208,13.464z"/>
	<path d="M27.216,13.464c0.472,0.357,1.108-0.121,0.911-0.679c-0.222-0.63-0.641-1.298-1.332-1.91
		c-1.589-1.408-1.184-2.935-0.291-4.401c0.328-0.538-0.296-1.16-0.82-0.811c-1.082,0.719-2.188,1.913-2.188,3.789
		C23.497,11.69,25.724,12.336,27.216,13.464z"/>
</g>
</svg>
