<?xml version="1.0" encoding="utf-8"?>
<!-- Generator: Adobe Illustrator 16.0.0, SVG Export Plug-In . SVG Version: 6.00 Build 0)  -->
<!DOCTYPE svg PUBLIC "-//W3C//DTD SVG 1.1//EN" "http://www.w3.org/Graphics/SVG/1.1/DTD/svg11.dtd">
<svg version="1.1" id="Layer_1" xmlns="http://www.w3.org/2000/svg" xmlns:xlink="http://www.w3.org/1999/xlink" x="0px" y="0px"
	 width="48px" height="48px" viewBox="0 0 48 48" enable-background="new 0 0 48 48" xml:space="preserve">
<g>
	<path d="M31.324,32.944C30.264,39.157,24.841,43.9,18.33,43.9c-7.268,0-13.182-5.913-13.182-13.182
		c0-6.135,4.212-11.304,9.896-12.768c-0.133-0.87-0.201-1.758-0.201-2.663c0-0.159,0.003-0.318,0.007-0.477
		c-7.311,1.599-12.8,8.124-12.8,15.907C2.05,39.696,9.354,47,18.33,47c8.245,0,15.077-6.159,16.139-14.118
		c-0.634,0.069-1.276,0.105-1.928,0.105C32.133,32.987,31.727,32.973,31.324,32.944z"/>
	<path d="M43.667,17.346c-1.045-1.065-1.426-2.535-1.146-3.894c0.188-0.914-0.479-1.771-1.39-1.971
		c-1.118-0.246-2.179-0.809-3.04-1.688c-0.863-0.879-1.405-1.952-1.63-3.076c-0.183-0.915-1.025-1.597-1.943-1.427
		c-1.363,0.252-2.824-0.157-3.868-1.222c-0.425-0.433-0.739-0.933-0.944-1.464c-0.35-0.904-1.367-1.334-2.276-0.994
		c-5.979,2.235-10.102,8.281-9.412,15.181c0.68,6.792,6.185,12.317,12.974,13.017c6.832,0.704,12.833-3.308,15.142-9.176
		c0.355-0.904-0.063-1.937-0.967-2.292C44.617,18.125,44.105,17.793,43.667,17.346z M29.872,8.092c0.698,0,1.267,0.566,1.267,1.268
		c0,0.699-0.568,1.268-1.267,1.268c-0.7,0-1.269-0.568-1.269-1.268C28.604,8.658,29.172,8.092,29.872,8.092z M30.839,15.991
		c0,0.393-0.319,0.711-0.713,0.711s-0.712-0.318-0.712-0.711c0-0.395,0.318-0.714,0.712-0.714S30.839,15.597,30.839,15.991z
		 M25.45,23.072c-0.357,0-0.648-0.29-0.648-0.647s0.291-0.649,0.648-0.649s0.648,0.292,0.648,0.649S25.808,23.072,25.45,23.072z
		 M24.802,18.06c-1.146,0-2.074-0.928-2.074-2.074c0-1.146,0.929-2.072,2.074-2.072s2.074,0.927,2.074,2.072
		C26.876,17.132,25.947,18.06,24.802,18.06z M25.069,10.959c-0.998,0-1.807-0.81-1.807-1.808s0.809-1.807,1.807-1.807
		c0.997,0,1.807,0.809,1.807,1.807S26.066,10.959,25.069,10.959z M30.439,27.521c-1.252,0-2.267-1.016-2.267-2.268
		c0-1.25,1.015-2.265,2.267-2.265s2.267,1.015,2.267,2.265C32.706,26.505,31.691,27.521,30.439,27.521z M36.137,21.351
		c-0.928,0-1.679-0.751-1.679-1.678c0-0.928,0.751-1.678,1.679-1.678s1.679,0.75,1.679,1.678
		C37.815,20.6,37.064,21.351,36.137,21.351z M36.617,13.861c-0.812,0-1.472-0.657-1.472-1.47c0-0.813,0.66-1.473,1.472-1.473
		c0.813,0,1.473,0.659,1.473,1.473C38.09,13.204,37.431,13.861,36.617,13.861z"/>
	<circle cx="13.729" cy="24.391" r="1.966"/>
	<circle cx="9.631" cy="32.21" r="1.492"/>
	<circle cx="18.38" cy="32.572" r="2.685"/>
	<circle cx="13.931" cy="38.788" r="2.027"/>
	<circle cx="25.423" cy="36.725" r="2.161"/>
</g>
</svg>
