<?xml version="1.0" encoding="utf-8"?>
<!-- Generator: Adobe Illustrator 16.0.0, SVG Export Plug-In . SVG Version: 6.00 Build 0)  -->
<!DOCTYPE svg PUBLIC "-//W3C//DTD SVG 1.1//EN" "http://www.w3.org/Graphics/SVG/1.1/DTD/svg11.dtd">
<svg version="1.1" id="Layer_1" xmlns="http://www.w3.org/2000/svg" xmlns:xlink="http://www.w3.org/1999/xlink" x="0px" y="0px"
	 width="48px" height="48px" viewBox="0 0 48 48" enable-background="new 0 0 48 48" xml:space="preserve">
<g>
	<path d="M44.34,36.865c-0.386-0.812-1.204-1.322-2.104-1.322h-1.18v-27.6c0-3.602-2.917-6.516-6.52-6.516H13.528
		c-3.19,0-5.794,2.578-5.794,5.768v34.19c0,3.007,2.455,5.448,5.462,5.448h22.089c3.124,0,5.416-3.112,5.416-3.112l3.341-4.389
		C44.609,38.635,44.727,37.677,44.34,36.865z M10.786,7.195c0-1.496,1.246-2.717,2.742-2.717h21.009
		c1.908,0,3.469,1.557,3.469,3.464v27.6H20.12c-2.048,0-3.987,0.914-5.28,2.503L11.124,42.6c-0.214-0.355-0.338-0.774-0.338-1.214
		V7.195z"/>
	<path d="M15.438,12.718h8.035c0.849,0,1.537-0.708,1.537-1.557c0-0.849-0.688-1.556-1.537-1.556h-8.035
		c-0.849,0-1.536,0.708-1.536,1.556C13.902,12.01,14.59,12.718,15.438,12.718z"/>
	<path d="M15.438,18.699h18.437c0.849,0,1.537-0.708,1.537-1.557s-0.688-1.556-1.537-1.556H15.438c-0.849,0-1.536,0.708-1.536,1.556
		S14.59,18.699,15.438,18.699z"/>
	<path d="M15.438,24.68h13.979c0.848,0,1.536-0.677,1.536-1.526c0-0.849-0.688-1.526-1.536-1.526H15.438
		c-0.849,0-1.536,0.677-1.536,1.526C13.902,24.002,14.59,24.68,15.438,24.68z"/>
</g>
</svg>
