<?xml version="1.0" encoding="utf-8"?>
<!-- Generator: Adobe Illustrator 16.0.0, SVG Export Plug-In . SVG Version: 6.00 Build 0)  -->
<!DOCTYPE svg PUBLIC "-//W3C//DTD SVG 1.1//EN" "http://www.w3.org/Graphics/SVG/1.1/DTD/svg11.dtd">
<svg version="1.1" id="Layer_1" xmlns="http://www.w3.org/2000/svg" xmlns:xlink="http://www.w3.org/1999/xlink" x="0px" y="0px"
	 width="48px" height="48px" viewBox="0 0 48 48" enable-background="new 0 0 48 48" xml:space="preserve">
<path d="M43.504,5.585c0-1.38-0.633-2.683-1.717-3.536c-1.085-0.853-2.502-1.161-3.842-0.836L16.65,6.375
	c-2.02,0.488-3.444,2.296-3.444,4.372v20.646c-0.674-0.183-1.367-0.28-2.092-0.28c-4.391,0-7.946,3.559-7.946,7.948
	c0,4.388,3.559,7.946,7.949,7.946c3.989,0,7.121-2.974,7.895-6.77c0.049-0.238,0.052-1.014,0.052-1.27V18.813
	c0-1.243,0.854-2.324,2.062-2.617l13.194-3.197c0.803-0.195,1.65-0.01,2.298,0.5c0.65,0.511,1.029,1.291,1.029,2.116v9.774
	c-0.673-0.185-1.382-0.284-2.113-0.284c-4.389,0-7.948,3.559-7.948,7.949c0,4.388,3.56,7.945,7.949,7.945
	c4.334,0,7.623-3.483,7.944-7.786c0.009-0.125,0.025-0.252,0.025-0.381V5.585z"/>
</svg>
