<?xml version="1.0" encoding="utf-8"?>
<!-- Generator: Adobe Illustrator 16.0.0, SVG Export Plug-In . SVG Version: 6.00 Build 0)  -->
<!DOCTYPE svg PUBLIC "-//W3C//DTD SVG 1.1//EN" "http://www.w3.org/Graphics/SVG/1.1/DTD/svg11.dtd">
<svg version="1.1" id="Layer_1" xmlns="http://www.w3.org/2000/svg" xmlns:xlink="http://www.w3.org/1999/xlink" x="0px" y="0px"
	 width="48px" height="48px" viewBox="0 0 48 48" enable-background="new 0 0 48 48" xml:space="preserve">
<path d="M38.992,31.959c-0.702-6.471-3.841-15.587-8.156-20.451c0.64-1.058,1.022-2.293,1.022-3.616
	c0-3.877-3.156-7.031-7.039-7.031c-3.884,0-7.042,3.154-7.042,7.031c0,1.324,0.377,2.559,1.017,3.617
	c-4.316,4.864-7.501,13.98-8.204,20.45c-2.349,0.538-4.141,2.632-4.141,5.138v4.671c0,2.912,2.436,5.373,5.353,5.373h26.042
	c2.917,0,5.226-2.461,5.226-5.373v-4.671C43.069,34.59,41.341,32.497,38.992,31.959z M24.823,3.912c2.201,0,3.991,1.785,3.991,3.979
	c0,0.535-0.11,1.045-0.303,1.512c-1.178-0.8-2.412-1.264-3.688-1.264c-1.277,0-2.512,0.464-3.689,1.265
	c-0.193-0.467-0.304-0.977-0.304-1.512C20.831,5.697,22.621,3.912,24.823,3.912z M40.018,41.767c0,1.229-0.939,2.321-2.174,2.321
	H11.802c-1.234,0-2.301-1.092-2.301-2.321v-4.671c0-1.229,1.066-2.163,2.301-2.163h26.042c1.234,0,2.174,0.934,2.174,2.163V41.767z"
	/>
</svg>
