<?xml version="1.0" encoding="utf-8"?>
<!-- Generator: Adobe Illustrator 16.0.0, SVG Export Plug-In . SVG Version: 6.00 Build 0)  -->
<!DOCTYPE svg PUBLIC "-//W3C//DTD SVG 1.1//EN" "http://www.w3.org/Graphics/SVG/1.1/DTD/svg11.dtd">
<svg version="1.1" id="Layer_1" xmlns="http://www.w3.org/2000/svg" xmlns:xlink="http://www.w3.org/1999/xlink" x="0px" y="0px"
	 width="48px" height="48px" viewBox="0 0 48 48" enable-background="new 0 0 48 48" xml:space="preserve">
<path d="M36.828,9.342c-0.404-2.159-0.604-3.807-0.653-4.549c-0.168-2.506-2.335-4.401-4.843-4.232
	c-2.762,0.186-4.806,2.81-4.1,5.666c1.313,5.105,0.221,6.774,2.861,9.415c7.229,6.02,2.566,17.366-5.818,17.366
	c-10.266,0-12.906-11.875-6.326-17.366c2.641-2.641,1.55-4.31,2.862-9.415c0.705-2.856-1.338-5.48-4.1-5.666
	c-2.508-0.169-4.674,1.727-4.843,4.232c-0.05,0.742-0.249,2.39-0.653,4.549C-3.12,20.484,2.388,47,24.179,47
	C45.426,47,51.164,20.484,36.828,9.342z M12.444,17.456c0,2.229-3.364,2.229-3.364,0C9.08,15.227,12.444,15.227,12.444,17.456z
	 M6.195,25.9c0-3.43,5.172-3.43,5.172,0C11.367,29.287,6.195,29.287,6.195,25.9z M13.411,38.939c-1.808,0-3.271-1.465-3.271-3.271
	s1.464-3.271,3.271-3.271s3.271,1.465,3.271,3.271S15.219,38.939,13.411,38.939z M38.965,17.456c0,2.229-3.365,2.229-3.365,0
	C35.6,15.227,38.965,15.227,38.965,17.456z M34.634,38.939c-1.808,0-3.272-1.465-3.272-3.271s1.465-3.271,3.272-3.271
	c1.807,0,3.271,1.465,3.271,3.271S36.44,38.939,34.634,38.939z M36.677,25.9c0-3.43,5.173-3.43,5.173,0
	C41.85,29.287,36.677,29.287,36.677,25.9z"/>
</svg>
