<?xml version="1.0" encoding="utf-8"?>
<!-- Generator: Adobe Illustrator 16.0.0, SVG Export Plug-In . SVG Version: 6.00 Build 0)  -->
<!DOCTYPE svg PUBLIC "-//W3C//DTD SVG 1.1//EN" "http://www.w3.org/Graphics/SVG/1.1/DTD/svg11.dtd">
<svg version="1.1" id="Layer_1" xmlns="http://www.w3.org/2000/svg" xmlns:xlink="http://www.w3.org/1999/xlink" x="0px" y="0px"
	 width="48px" height="48px" viewBox="0 0 48 48" enable-background="new 0 0 48 48" xml:space="preserve">
<path d="M41.157,15.621l-8.75-5.855l-0.004-3.029c0-1.938-1.599-3.505-3.537-3.505H12.702C12.702,1.999,11.703,1,10.47,1H7.537
	C6.305,1,5.306,1.999,5.306,3.231v26.671c0,0.599,0.241,1.173,0.669,1.593c0.428,0.419,1.006,0.649,1.605,0.638l2.933-0.057
	c1.215-0.023,2.188-1.016,2.188-2.23V6.766l16.13-0.029v3.136c0,0.008-0.027,0.016-0.039,0.023l-8.413,5.727
	c-1.031,0.701-1.616,1.91-1.528,3.154l1.621,22.694c0.104,1.451,1.069,2.669,2.459,3.104l6.895,2.149
	c0.339,0.105,0.69,0.159,1.043,0.159c0.365,0,0.726-0.058,1.071-0.167l6.685-2.14c1.376-0.439,2.333-1.655,2.436-3.097l1.622-22.703
	C42.773,17.532,42.188,16.323,41.157,15.621z M29.406,18.788v5.292h-6.628l-0.384-5.292H29.406z M32.083,18.788h7.04L38.75,24.08
	h-6.666V18.788z M22.972,26.758h6.435v16.128l-5.404-1.669L22.972,26.758z M32.083,42.934V26.758h6.478l-1.024,14.434L32.083,42.934
	z"/>
</svg>
