<?xml version="1.0" encoding="utf-8"?>
<!-- Generator: Adobe Illustrator 16.0.0, SVG Export Plug-In . SVG Version: 6.00 Build 0)  -->
<!DOCTYPE svg PUBLIC "-//W3C//DTD SVG 1.1//EN" "http://www.w3.org/Graphics/SVG/1.1/DTD/svg11.dtd">
<svg version="1.1" id="Layer_1" xmlns="http://www.w3.org/2000/svg" xmlns:xlink="http://www.w3.org/1999/xlink" x="0px" y="0px"
	 width="48px" height="48px" viewBox="0 0 48 48" enable-background="new 0 0 48 48" xml:space="preserve">
<g>
	<path d="M44.024,24.434c-1.312-2.222-3.072-3.762-4.487-4.086C38.962,10.542,35.918,1.641,24.2,1.641
		c-11.525,0-14.531,8.926-15.096,18.75c-1.387,0.401-3.064,1.907-4.327,4.044C2.99,27.46,2.714,30.606,4.16,31.459
		c1.196,0.706,3.201-0.382,4.87-2.498c0.111,4.271,0.555,8.044,2.333,10.857c-2.932,0.483-5.021,1.744-5.021,3.224
		c0,1.896,3.436,3.433,7.675,3.433c2.793,0,5.238-0.668,6.58-1.667c1.129,0.139,2.367,0.211,3.726,0.211
		c1.414,0,2.695-0.078,3.86-0.229c1.339,1.008,3.795,1.684,6.604,1.684c4.238,0,7.675-1.537,7.675-3.433
		c0-1.504-2.16-2.782-5.168-3.247c1.795-2.854,2.222-6.692,2.323-11.035c1.698,2.247,3.792,3.427,5.026,2.699
		C46.09,30.606,45.813,27.46,44.024,24.434z M21.365,17.461c0.077-0.146,0.229-0.245,0.392-0.245h5.159
		c0.165,0,0.314,0.099,0.394,0.245c0.077,0.145,0.068,0.325-0.022,0.461l-2.58,3.872c-0.082,0.124-0.222,0.2-0.37,0.2
		c-0.149,0-0.288-0.074-0.37-0.198l-2.58-3.875C21.295,17.786,21.286,17.606,21.365,17.461z M15.062,12.769
		c0-2.019,1.317-3.655,2.942-3.655s2.942,1.637,2.942,3.655s-1.317,3.656-2.942,3.656S15.062,14.787,15.062,12.769z M24.32,42.578
		c-3.974,0-7.196-4.064-7.196-9.077c0-5.014,3.223-9.078,7.196-9.078c3.975,0,7.197,4.064,7.197,9.078
		C31.518,38.514,28.295,42.578,24.32,42.578z M30.896,16.424c-1.626,0-2.942-1.637-2.942-3.656s1.316-3.655,2.942-3.655
		c1.624,0,2.942,1.637,2.942,3.655S32.521,16.424,30.896,16.424z"/>
	<ellipse cx="18.005" cy="12.758" rx="0.864" ry="0.944"/>
	<ellipse cx="30.677" cy="12.758" rx="0.865" ry="0.944"/>
</g>
</svg>
