<?xml version="1.0" encoding="utf-8"?>
<!-- Generator: Adobe Illustrator 16.0.0, SVG Export Plug-In . SVG Version: 6.00 Build 0)  -->
<!DOCTYPE svg PUBLIC "-//W3C//DTD SVG 1.1//EN" "http://www.w3.org/Graphics/SVG/1.1/DTD/svg11.dtd">
<svg version="1.1" id="Layer_1" xmlns="http://www.w3.org/2000/svg" xmlns:xlink="http://www.w3.org/1999/xlink" x="0px" y="0px"
	 width="48px" height="48px" viewBox="0 0 48 48" enable-background="new 0 0 48 48" xml:space="preserve">
<g>
	<path d="M8.582,11.117l8.021-2.374L6.669,5.806c-3.397,1.107-5.57,2.652-5.57,4.641c0,6.597-0.739,7.025,1.827,8.085
		c0,0,0.021,19.424,0.032,19.428c0.005,2.26,1.97,4.024,5.04,5.301l0.057-21.354l-0.646-1.051c-0.207-0.333-0.305-0.716-0.305-1.107
		v-6.635C7.104,12.191,7.696,11.379,8.582,11.117z"/>
	<path d="M32.316,4.095c-2.32-0.236-4.773-0.367-7.246-0.39c0,0.002,0,0.006,0.001,0.008c-3.227-0.055-6.483,0.072-9.512,0.381
		l8.379,2.479L32.316,4.095z"/>
	<path d="M46.872,14.954c0.026-0.963-0.032-2.299-0.026-4.33c0-0.354-0.067-0.69-0.199-1.016c-0.522-1.59-2.531-2.856-5.436-3.802
		l-9.932,2.937l8.047,2.374c0.885,0.262,1.508,1.074,1.508,1.996v6.635c0,0.392-0.128,0.774-0.335,1.107l-0.667,1.051l0.053,21.346
		c3.059-1.274,5.009-3.038,5.015-5.293c0.011-0.004,0.048-18.846,0.05-19.414c0.01-0.009,0.023-0.019,0.034-0.026
		C46.735,17.79,46.924,17.348,46.872,14.954z"/>
	<path d="M11.976,14.451c-0.436,0.129-0.734,0.528-0.734,0.982v5.301c0,0.271,0.076,0.537,0.221,0.767l0.439,0.702
		c0.21,0.333,0.319,0.719,0.319,1.113L12.17,44.556c3.846,0.892,8.426,1.288,13.008,1.195v0.002
		c3.691-0.069,7.402-0.469,10.557-1.201l-0.077-21.235c-0.001-0.395,0.112-0.78,0.32-1.113l0.438-0.703
		c0.144-0.229,0.219-0.494,0.219-0.764v-5.303c0-0.454-0.299-0.854-0.734-0.982l-11.962-3.538L11.976,14.451z"/>
</g>
</svg>
