<?xml version="1.0" encoding="utf-8"?>
<!-- Generator: Adobe Illustrator 16.0.0, SVG Export Plug-In . SVG Version: 6.00 Build 0)  -->
<!DOCTYPE svg PUBLIC "-//W3C//DTD SVG 1.1//EN" "http://www.w3.org/Graphics/SVG/1.1/DTD/svg11.dtd">
<svg version="1.1" id="Layer_1" xmlns="http://www.w3.org/2000/svg" xmlns:xlink="http://www.w3.org/1999/xlink" x="0px" y="0px"
	 width="48px" height="48px" viewBox="0 0 48 48" enable-background="new 0 0 48 48" xml:space="preserve">
<path d="M47.076,10.559C46.69,9.506,45.521,8.97,44.47,9.353l-2.253,0.828c0.184-2.444-0.325-5.1-1.56-7.954
	c-0.446-1.03-1.642-1.505-2.671-1.058c-1.029,0.445-1.504,1.641-1.059,2.67c1.557,3.598,1.682,6.659,0.372,9.1
	c-1.366,2.546-4.055,4.11-6.277,5.021c-1.93-1.532-4.367-2.454-7.022-2.454s-5.093,0.922-7.022,2.454
	c-2.224-0.912-4.911-2.475-6.278-5.021c-1.31-2.441-1.185-5.502,0.372-9.1c0.445-1.029-0.029-2.225-1.059-2.67
	c-1.03-0.448-2.225,0.028-2.671,1.058c-1.234,2.854-1.743,5.51-1.56,7.954L3.529,9.353c-1.052-0.385-2.221,0.153-2.606,1.206
	c-0.387,1.053,0.152,2.221,1.206,2.607l5.101,1.874c0.596,1.063,1.332,1.991,2.15,2.803c-0.151-0.015-0.303-0.03-0.456-0.027
	c-3.404,0.055-6.095,4.363-6.095,4.363s2.83,4.218,6.233,4.163c1.469-0.023,2.803-0.84,3.848-1.76
	c-0.145,0.723-0.224,1.471-0.224,2.237c0,3.671,3.691,11.13,3.691,12.329c0,4.21,3.412,7.623,7.622,7.623
	c4.211,0,7.623-3.413,7.623-7.623c0-1.199,3.689-8.657,3.689-12.329c0-0.766-0.079-1.513-0.224-2.237
	c1.045,0.92,2.379,1.736,3.848,1.76c3.403,0.055,6.233-4.163,6.233-4.163s-2.69-4.308-6.095-4.363
	c-0.153-0.002-0.305,0.013-0.456,0.027c0.818-0.812,1.555-1.74,2.15-2.803l5.101-1.874C46.924,12.78,47.463,11.612,47.076,10.559z
	 M18.376,31.719c-1.189,0-2.151-0.802-2.151-2.021c0-0.42,0.12-0.937,0.319-0.937h3.663c0.199,0,0.319,0.526,0.319,0.947
	C20.526,30.926,19.563,31.719,18.376,31.719z M24,44.012c0,0-2.617-1.171-2.617-2.616c0-1.446,1.173-0.23,2.617-0.23
	c1.445,0,2.616-1.216,2.616,0.23C26.616,42.841,24,44.012,24,44.012z M29.623,31.719c-1.188,0-2.15-0.792-2.15-2.012
	c0-0.42,0.12-0.947,0.319-0.947h3.663c0.199,0,0.319,0.517,0.319,0.937C31.774,30.917,30.813,31.719,29.623,31.719z"/>
</svg>
