<?xml version="1.0" encoding="utf-8"?>
<!-- Generator: Adobe Illustrator 16.0.0, SVG Export Plug-In . SVG Version: 6.00 Build 0)  -->
<!DOCTYPE svg PUBLIC "-//W3C//DTD SVG 1.1//EN" "http://www.w3.org/Graphics/SVG/1.1/DTD/svg11.dtd">
<svg version="1.1" id="Layer_1" xmlns="http://www.w3.org/2000/svg" xmlns:xlink="http://www.w3.org/1999/xlink" x="0px" y="0px"
	 width="48px" height="48px" viewBox="0 0 48 48" enable-background="new 0 0 48 48" xml:space="preserve">
<g>
	<path d="M42.654,19.769c0-5.073-1.971-9.842-5.558-13.429C33.51,2.752,28.742,0.776,23.67,0.776c-5.073,0-9.844,1.976-13.434,5.563
		C4.022,12.555,3.02,22.042,7.241,29.309v-0.42c0-1.234,0.591-2.426,1.575-3.19c0.97-0.753,2.288-1.028,3.482-0.724l8.419,2.145
		c0.155-0.097,0.318-0.183,0.486-0.259c-1.057-0.366-2.024-0.97-2.838-1.784c-2.925-2.926-2.925-7.686,0-10.612
		c1.416-1.417,3.301-2.198,5.307-2.198c2.003,0,3.889,0.781,5.306,2.198s2.197,3.301,2.197,5.305c0,2.004-0.78,3.889-2.199,5.307
		c-0.813,0.813-1.778,1.416-2.833,1.782c0.17,0.078,0.334,0.165,0.492,0.263l8.416-2.146c1.19-0.303,2.498-0.029,3.471,0.724
		c0.984,0.765,1.561,1.957,1.561,3.19v0.416C41.76,26.439,42.653,23.172,42.654,19.769z M10.36,22.205
		c-1.331,0-2.409-1.08-2.408-2.41c-0.001-1.33,1.077-2.408,2.408-2.409s2.409,1.079,2.41,2.41
		C12.77,21.126,11.691,22.205,10.36,22.205z M15.956,12.104c-0.94,0.941-2.466,0.941-3.408,0c-0.939-0.941-0.939-2.467,0-3.408
		c0.94-0.94,2.468-0.941,3.408,0S16.896,11.164,15.956,12.104z M23.646,8.919c-1.331,0-2.41-1.079-2.41-2.41
		c0-1.33,1.079-2.409,2.41-2.408c1.33,0,2.408,1.078,2.408,2.408S24.977,8.918,23.646,8.919z M31.336,12.104
		c-0.94-0.94-0.94-2.466,0-3.407c0.941-0.941,2.467-0.941,3.406-0.001c0.942,0.941,0.942,2.467,0,3.408
		C33.803,13.045,32.276,13.045,31.336,12.104z M36.93,22.204c-1.33,0-2.409-1.078-2.409-2.41c0-1.33,1.079-2.408,2.409-2.409
		c1.332,0,2.409,1.079,2.409,2.41C39.339,21.126,38.262,22.205,36.93,22.204z"/>
	<path d="M32.289,38.741l-5.584-1.424c-0.381,0.32-0.828,0.565-1.318,0.712l3.823,8.626c0.114,0.253,0.368,0.413,0.646,0.404
		s0.521-0.184,0.617-0.444l0.672-1.825c0.065-0.172,0.194-0.312,0.362-0.387c0.17-0.074,0.359-0.077,0.53-0.009l1.804,0.728
		c0.257,0.103,0.552,0.041,0.744-0.159c0.191-0.199,0.245-0.495,0.132-0.749L32.289,38.741z"/>
	<path d="M15.063,38.741l-2.428,5.473c-0.111,0.254-0.06,0.549,0.133,0.749c0.191,0.199,0.486,0.262,0.744,0.159l1.804-0.727
		c0.171-0.068,0.361-0.065,0.53,0.009c0.167,0.076,0.299,0.215,0.36,0.387l0.675,1.825c0.096,0.259,0.339,0.435,0.617,0.444
		c0.276,0.009,0.532-0.151,0.644-0.404l3.824-8.626c-0.491-0.146-0.939-0.392-1.319-0.712L15.063,38.741z"/>
	<path d="M19.285,34.468v-3.63c0-0.718,0.221-1.39,0.574-1.959l-8.037-2.049c-0.638-0.162-1.312-0.021-1.828,0.381
		c-0.519,0.402-0.829,1.021-0.829,1.677v7.33c0,0.656,0.313,1.275,0.832,1.678c0.517,0.401,1.196,0.543,1.831,0.381l7.928-2.023
		C19.464,35.724,19.285,35.114,19.285,34.468z"/>
	<path d="M37.374,27.211c-0.519-0.402-1.205-0.543-1.843-0.381l-8.045,2.049c0.354,0.57,0.553,1.241,0.553,1.959v3.63
		c0,0.646-0.165,1.256-0.457,1.786l7.937,2.023c0.636,0.162,1.336,0.021,1.855-0.381c0.517-0.402,0.847-1.022,0.847-1.678v-7.33
		C38.221,28.232,37.892,27.613,37.374,27.211z"/>
	<path d="M26.798,34.477v-3.626c0-1.365-1.1-2.488-2.463-2.488h-1.316c-1.364,0-2.491,1.123-2.491,2.488v3.626
		c0,1.364,1.127,2.454,2.491,2.454h1.316C25.698,36.931,26.798,35.841,26.798,34.477z"/>
</g>
</svg>
