<?xml version="1.0" encoding="utf-8"?>
<!-- Generator: Adobe Illustrator 16.0.0, SVG Export Plug-In . SVG Version: 6.00 Build 0)  -->
<!DOCTYPE svg PUBLIC "-//W3C//DTD SVG 1.1//EN" "http://www.w3.org/Graphics/SVG/1.1/DTD/svg11.dtd">
<svg version="1.1" id="Layer_1" xmlns="http://www.w3.org/2000/svg" xmlns:xlink="http://www.w3.org/1999/xlink" x="0px" y="0px"
	 width="48px" height="48px" viewBox="0 0 48 48" enable-background="new 0 0 48 48" xml:space="preserve">
<g>
	<path d="M19.273,8.816c1.41-0.566,2.873-0.876,4.375-0.876c1.501,0,2.965,0.312,4.374,0.879l2.355-4.373
		c0.392-0.728,0.372-1.601-0.052-2.31C29.901,1.428,29.138,1,28.312,1h-9.327c-0.827,0-1.591,0.428-2.014,1.136
		c-0.424,0.709-0.443,1.585-0.052,2.313L19.273,8.816z"/>
	<path d="M43.53,41.727c-0.453-0.813-1.217-1.602-2.207-2.25c0.258-0.995,0.395-2.127,0.395-3.42c0-9.98-8.09-25.637-18.07-25.637
		c-9.981,0-18.072,15.656-18.072,25.637c0,1.292,0.137,2.425,0.396,3.42c-0.99,0.648-1.754,1.438-2.207,2.25
		c-0.48,0.858-0.612,1.743-0.295,2.515c0.458,1.108,1.741,1.728,3.342,1.779c1.064,0.034,2.269-0.183,3.465-0.676
		c0.213-0.087,0.418-0.182,0.62-0.282c3.268,1.368,7.774,1.499,12.751,1.499c4.976,0,9.482-0.131,12.75-1.499
		c0.201,0.1,0.407,0.194,0.62,0.282c1.197,0.493,2.401,0.71,3.465,0.676c1.602-0.052,2.885-0.671,3.342-1.779
		C44.142,43.47,44.01,42.585,43.53,41.727z M12.594,27.877c-0.879,0-1.592-0.713-1.592-1.592c0-0.88,0.712-1.593,1.592-1.593
		c0.88,0,1.593,0.713,1.593,1.593C14.187,27.164,13.475,27.877,12.594,27.877z M21.257,16.771c-0.039,0.029-3.948,2.927-5.586,5.962
		c-0.292,0.542-0.851,0.851-1.428,0.851c-0.261,0-0.524-0.062-0.768-0.195c-0.788-0.425-1.082-1.408-0.657-2.197
		c1.988-3.683,6.337-6.9,6.521-7.035c0.721-0.529,1.733-0.374,2.265,0.347C22.133,15.226,21.979,16.241,21.257,16.771z"/>
</g>
</svg>
