<?xml version="1.0" encoding="utf-8"?>
<!-- Generator: Adobe Illustrator 16.0.0, SVG Export Plug-In . SVG Version: 6.00 Build 0)  -->
<!DOCTYPE svg PUBLIC "-//W3C//DTD SVG 1.1//EN" "http://www.w3.org/Graphics/SVG/1.1/DTD/svg11.dtd">
<svg version="1.1" id="Layer_1" xmlns="http://www.w3.org/2000/svg" xmlns:xlink="http://www.w3.org/1999/xlink" x="0px" y="0px"
	 width="48px" height="48px" viewBox="0 0 48 48" enable-background="new 0 0 48 48" xml:space="preserve">
<g>
	<path d="M23.409,22.546l1.453-5.804c0.148-0.594,0.401-1.142,0.724-1.64L12.258,1.327c-0.32-0.331-0.815-0.42-1.231-0.223
		c-0.416,0.196-0.66,0.636-0.608,1.093l0.97,8.398c0.027,0.229-0.048,0.457-0.206,0.626c-0.157,0.169-0.381,0.259-0.611,0.248
		l-8.444-0.403c-0.461-0.023-0.884,0.25-1.052,0.679s-0.045,0.917,0.307,1.214l14.49,12.253c0.533-0.417,1.138-0.75,1.808-0.95
		L23.409,22.546z"/>
	<path d="M46.601,23.85c-0.413-0.766-1.212-1.24-2.074-1.24c-0.055,0-0.109,0.002-0.163,0.007l-7.766,0.535l-4.43-6.405
		c-0.444-0.644-1.174-1.017-1.938-1.017c-0.141,0-0.282,0.013-0.422,0.038c-0.911,0.165-1.641,0.85-1.866,1.748l-1.891,7.554
		l-7.462,2.233c-0.886,0.265-1.535,1.026-1.659,1.942c-0.124,0.918,0.3,1.823,1.084,2.314l6.598,4.133l-0.18,7.784
		c-0.021,0.926,0.501,1.778,1.335,2.18c0.326,0.156,0.674,0.232,1.021,0.232c0.544,0,1.081-0.188,1.514-0.551l5.974-4.999
		l7.347,2.576c0.256,0.089,0.52,0.133,0.78,0.133c0.635,0,1.253-0.255,1.706-0.729c0.639-0.669,0.827-1.65,0.481-2.51l-2.911-7.221
		l4.722-6.191C46.96,25.662,47.039,24.665,46.601,23.85z"/>
</g>
</svg>
