<?xml version="1.0" encoding="utf-8"?>
<!-- Generator: Adobe Illustrator 16.0.0, SVG Export Plug-In . SVG Version: 6.00 Build 0)  -->
<!DOCTYPE svg PUBLIC "-//W3C//DTD SVG 1.1//EN" "http://www.w3.org/Graphics/SVG/1.1/DTD/svg11.dtd">
<svg version="1.1" id="Layer_1" xmlns="http://www.w3.org/2000/svg" xmlns:xlink="http://www.w3.org/1999/xlink" x="0px" y="0px"
	 width="48px" height="48px" viewBox="0 0 48 48" enable-background="new 0 0 48 48" xml:space="preserve">
<path d="M45.247,14.964l-8.148-9.107c-0.819-0.916-2.321-1.23-3.47-0.792c-1.146,0.438-2.11,1.539-2.11,2.766v1.617h-0.638
	c-0.028-0.468-0.121-0.929-0.279-1.37c-1.476-4.152-7.101-5.698-10.297-5.698c-0.237,0-0.466,0.006-0.688,0.022
	c-1.971,0.129-3.446,0.843-4.522,1.365c-0.286,0.138-0.662,0.32-0.865,0.392c-0.399-0.094-1.274-0.495-1.869-0.765
	C10.867,2.708,9.32,2,7.696,2C7.389,2,7.085,2.027,6.797,2.077c-3.073,0.549-5.18,3.002-5.499,6.399
	c-0.249,2.624,0.716,7.649,2.819,10.603v7.252c0,1.637,0.927,2.617,2.563,2.617h15.845v13.68c0,1.637,1.354,2.963,2.989,2.963l0,0
	c1.604,0,2.895-1.3,2.895-2.902v-13.74h3.109v1.658c0,1.229,0.964,2.329,2.11,2.769c1.148,0.438,2.547,0.123,3.367-0.793
	l8.197-9.107C47.361,21.052,47.416,17.387,45.247,14.964z M4.216,8.756c0.196-2.101,1.386-3.485,3.096-3.791
	c0.123-0.021,0.251-0.034,0.385-0.034c1.881,0,4.692,2.07,6.458,2.171c0.037,0.003,0.075,0.004,0.112,0.004
	c1.471,0,2.998-1.611,5.543-1.78c0.159-0.011,0.324-0.015,0.495-0.015c2.723,0,6.678,1.339,7.534,3.747
	c0.524,1.477-0.658,3.827-4.088,3.827c-0.253,0-0.521-0.012-0.799-0.04c-0.03-0.002-0.061-0.004-0.093-0.004
	c-1.271,0-3.069,2.447-4.306,2.631c-0.058,0.009-0.118,0.012-0.179,0.012c-1.396,0-3.648-2.136-5.051-2.136
	c-0.071,0-0.143,0.007-0.208,0.02c-1.732,0.303-2.755,5.409-4.51,5.409c-0.003,0-0.008,0-0.011,0
	C5.727,18.692,3.946,11.612,4.216,8.756z"/>
</svg>
