<?xml version="1.0" encoding="utf-8"?>
<!-- Generator: Adobe Illustrator 16.0.0, SVG Export Plug-In . SVG Version: 6.00 Build 0)  -->
<!DOCTYPE svg PUBLIC "-//W3C//DTD SVG 1.1//EN" "http://www.w3.org/Graphics/SVG/1.1/DTD/svg11.dtd">
<svg version="1.1" id="Layer_1" xmlns="http://www.w3.org/2000/svg" xmlns:xlink="http://www.w3.org/1999/xlink" x="0px" y="0px"
	 width="48px" height="48px" viewBox="0 0 48 48" enable-background="new 0 0 48 48" xml:space="preserve">
<path d="M39.631,24.712h-2.919c-2.415,0-4.379,1.982-4.379,4.397c0,2.415,1.964,4.397,4.379,4.397h2.433
	c0.807,0,1.459-0.672,1.459-1.479c0-0.806-0.652-1.479-1.459-1.479h-2.433c-0.805,0-1.459-0.634-1.459-1.439
	c0-0.805,0.654-1.439,1.459-1.439h2.919c2.415,0,4.379,1.943,4.379,4.357s-1.964,4.358-4.379,4.358H27.459v-7.439
	c3.312-0.512,5.837-3.375,5.837-6.831l0,0c0-0.688,0.567-1.241,1.254-1.241h6.587c0.972,0,1.76-0.787,1.76-1.759
	s-0.788-1.759-1.76-1.759H14.684c-1.54,0-2.787-1.232-2.787-2.772c0-2.76-2.238-4.983-4.998-4.983h-3.76
	c-1.075,0-1.946,0.844-1.946,1.919c0,1.074,0.871,1.918,1.946,1.918h1.674c0.688,0,1.218,0.577,1.218,1.265v7.412
	c0,3.796,3.088,6.877,6.876,6.911v7.359h-3.93c-2.683,0-4.865-2.168-4.865-4.851c0-0.807-0.653-1.445-1.46-1.445
	c-0.806,0-1.459,0.657-1.459,1.463c0,4.292,3.492,7.791,7.785,7.791h30.653c4.024,0,7.298-3.291,7.298-7.316
	C46.929,28.004,43.655,24.712,39.631,24.712z M15.786,29.03h8.795v7.356h-8.795V29.03z"/>
</svg>
