<?xml version="1.0" encoding="utf-8"?>
<!-- Generator: Adobe Illustrator 16.0.0, SVG Export Plug-In . SVG Version: 6.00 Build 0)  -->
<!DOCTYPE svg PUBLIC "-//W3C//DTD SVG 1.1//EN" "http://www.w3.org/Graphics/SVG/1.1/DTD/svg11.dtd">
<svg version="1.1" id="Layer_1" xmlns="http://www.w3.org/2000/svg" xmlns:xlink="http://www.w3.org/1999/xlink" x="0px" y="0px"
	 width="48px" height="48px" viewBox="0 0 48 48" enable-background="new 0 0 48 48" xml:space="preserve">
<g>
	<path d="M46.378,39.64l-1.793-2.395c-0.346-0.461-0.346-1.096,0-1.556l1.791-2.386c0.294-0.394,0.342-0.901,0.122-1.342
		c-0.22-0.439-0.669-0.699-1.16-0.699h-8.323c0.42-1.321,0.647-2.712,0.647-4.169c0-1.496-0.24-2.984-0.68-4.273h2.563
		c1.376,0,2.492-1.127,2.492-2.503c0-1.377-1.116-2.503-2.492-2.503h-4.751v-0.859h3.288c1.539,0,2.792-1.268,2.792-2.807V8.766
		c0-1.539-1.253-2.826-2.792-2.826h-3.266c-0.127-1.646-1.516-2.934-3.214-2.934H16.032c-1.78,0-3.198,1.435-3.198,3.216v11.593
		H8.091c-1.377,0-2.492,1.126-2.492,2.503c0,1.376,1.115,2.503,2.492,2.503h2.563c-0.441,1.289-0.68,2.777-0.68,4.273
		c0,1.457,0.228,2.848,0.646,4.169H2.298c-0.49,0-0.94,0.26-1.16,0.699c-0.22,0.44-0.171,0.957,0.123,1.35l1.791,2.382
		c0.345,0.46,0.346,1.093,0,1.553L1.258,39.64c-0.295,0.394-0.341,0.914-0.121,1.354c0.219,0.439,0.667,0.713,1.159,0.713h4.815
		v-4.008c0-2.877,2.373-5.22,5.251-5.22h2.034c-0.91-1.574-1.432-3.425-1.432-5.387c0-1.522,0.313-2.982,0.88-4.271h19.946
		c0.566,1.289,0.881,2.749,0.881,4.271c0,1.962-0.521,3.813-1.432,5.387h2.033c2.878,0,5.244,2.343,5.244,5.22v4.008h4.822
		c0.492,0,0.94-0.274,1.159-0.714C46.72,40.554,46.672,40.031,46.378,39.64z M34.795,8.943h3.076v5.008h-3.076V8.943z"/>
	<path d="M35.22,34.48H12.338c-1.779,0-3.224,1.443-3.224,3.225v5.069c0,1.781,1.444,3.224,3.224,3.224H35.22
		c1.78,0,3.224-1.442,3.224-3.224v-5.069C38.443,35.924,37,34.48,35.22,34.48z"/>
</g>
</svg>
