<?xml version="1.0" encoding="utf-8"?>
<!-- Generator: Adobe Illustrator 16.0.0, SVG Export Plug-In . SVG Version: 6.00 Build 0)  -->
<!DOCTYPE svg PUBLIC "-//W3C//DTD SVG 1.1//EN" "http://www.w3.org/Graphics/SVG/1.1/DTD/svg11.dtd">
<svg version="1.1" id="Layer_1" xmlns="http://www.w3.org/2000/svg" xmlns:xlink="http://www.w3.org/1999/xlink" x="0px" y="0px"
	 width="48px" height="48px" viewBox="0 0 48 48" enable-background="new 0 0 48 48" xml:space="preserve">
<g>
	<path d="M22.915,10.379l-0.216,1.257c-0.013,0.077,0.018,0.155,0.082,0.201c0.063,0.046,0.147,0.052,0.216,0.016l1.129-0.593
		l1.128,0.593c0.07,0.037,0.154,0.031,0.217-0.016c0.063-0.046,0.095-0.124,0.082-0.201l-0.216-1.257l0.913-0.89
		c0.056-0.055,0.077-0.137,0.052-0.211c-0.024-0.074-0.089-0.129-0.167-0.14l-1.261-0.183l-0.565-1.145
		c-0.035-0.07-0.106-0.114-0.185-0.114s-0.15,0.044-0.185,0.114l-0.564,1.145l-1.262,0.183c-0.077,0.011-0.142,0.066-0.166,0.14
		c-0.024,0.075-0.004,0.157,0.052,0.211L22.915,10.379z"/>
	<path d="M39.081,34.605c3.268-3.594,5.267-8.365,5.267-13.594c0-11.153-9.071-20.226-20.223-20.226
		C12.972,0.785,3.9,9.858,3.9,21.011c0,5.229,1.99,10.001,5.259,13.595c-1.593,0.857-2.681,2.539-2.681,4.475v2.946
		c0,2.805,2.284,5.096,5.088,5.096h25.121c2.805,0,5.061-2.292,5.061-5.096V39.08C41.748,37.145,40.673,35.462,39.081,34.605z
		 M24.127,3.809c9.485,0,17.202,7.704,17.202,17.189c0,5.182-2.303,9.862-5.938,12.978h-9.31c0.037-0.105,0.038-0.259,0.038-0.413
		v-1.598c3.907-0.185,6.813-1.052,6.813-4.096c0-1.226-1.046-2.597-2.422-3.867c0.63-0.513,0.992-1.223,0.992-2.205
		c0-1.474-1.815-3.201-3.646-4.566c0.414-0.308,0.654-0.744,0.654-1.36c0-1.766-4.385-4.141-4.385-4.141s-4.385,2.375-4.385,4.141
		c0,0.616,0.239,1.053,0.653,1.361c-1.831,1.365-3.647,3.091-3.647,4.565c0,0.982,0.36,1.693,0.99,2.205
		c-1.376,1.271-2.437,2.641-2.437,3.867c0,3.006,2.845,3.889,6.646,4.088v1.605c0,0.154,0.046,0.307,0.093,0.413h-9.178
		c-3.636-3.115-5.938-7.796-5.938-12.978C6.924,11.512,14.642,3.809,24.127,3.809z"/>
	<circle cx="14.94" cy="10.403" r="1.05"/>
	<circle cx="15.615" cy="16.574" r="1.049"/>
	<circle cx="11.383" cy="14.623" r="1.05"/>
	<circle cx="10.878" cy="19.545" r="1.049"/>
	<circle cx="14.565" cy="23.114" r="1.05"/>
	<circle cx="10.878" cy="25.486" r="1.05"/>
	<circle cx="13.482" cy="29.633" r="1.05"/>
	<circle cx="19.259" cy="11.73" r="1.05"/>
	<circle cx="33.314" cy="10.403" r="1.05"/>
	<circle cx="32.639" cy="16.574" r="1.05"/>
	<circle cx="36.871" cy="14.623" r="1.05"/>
	<circle cx="37.375" cy="19.545" r="1.049"/>
	<circle cx="33.689" cy="23.113" r="1.05"/>
	<circle cx="37.376" cy="25.486" r="1.05"/>
	<circle cx="34.771" cy="29.632" r="1.05"/>
	<circle cx="28.995" cy="6.645" r="1.05"/>
	<circle cx="28.995" cy="11.73" r="1.05"/>
	<circle cx="19.253" cy="6.645" r="1.05"/>
</g>
</svg>
