<?xml version="1.0" encoding="utf-8"?>
<!-- Generator: Adobe Illustrator 16.0.0, SVG Export Plug-In . SVG Version: 6.00 Build 0)  -->
<!DOCTYPE svg PUBLIC "-//W3C//DTD SVG 1.1//EN" "http://www.w3.org/Graphics/SVG/1.1/DTD/svg11.dtd">
<svg version="1.1" id="Layer_1" xmlns="http://www.w3.org/2000/svg" xmlns:xlink="http://www.w3.org/1999/xlink" x="0px" y="0px"
	 width="48px" height="48px" viewBox="0 0 48 48" enable-background="new 0 0 48 48" xml:space="preserve">
<g>
	<circle cx="21.653" cy="9.129" r="1.151"/>
	<circle cx="26.702" cy="9.129" r="1.151"/>
	<path d="M24.179,15.059c0.635,0,1.149-2.442,1.149-3.078s-0.515-1.151-1.149-1.151c-0.638,0-1.152,0.516-1.152,1.151
		S23.541,15.059,24.179,15.059z"/>
	<circle cx="24.18" cy="23.492" r="1.477"/>
	<circle cx="24.18" cy="28.431" r="1.477"/>
	<circle cx="24.18" cy="39.659" r="1.477"/>
	<path d="M43.973,11.854l-2.934-0.632l1.55-1.383c0.39-0.35,0.425-0.951,0.075-1.343c-0.351-0.393-0.952-0.424-1.344-0.076
		l-3.401,3.037l-0.885-3.031c-0.146-0.504-0.675-0.794-1.18-0.646c-0.505,0.147-0.792,0.675-0.646,1.179l1.14,3.901l-2.372,2.118
		c-0.439-0.55-0.922-1.063-1.446-1.532c0.423-1.041,0.655-2.176,0.655-3.367c0-4.966-4.04-9.007-9.006-9.007
		c-4.968,0-9.008,4.041-9.008,9.007c0,1.19,0.233,2.326,0.655,3.367c-0.535,0.479-1.027,1.003-1.473,1.566l-2.411-2.152l1.138-3.901
		c0.147-0.504-0.141-1.032-0.645-1.179c-0.508-0.148-1.033,0.142-1.181,0.646l-0.884,3.031L6.968,8.419
		C6.577,8.071,5.976,8.103,5.626,8.496C5.276,8.887,5.31,9.488,5.701,9.838l1.55,1.383l-2.936,0.632
		c-0.512,0.11-0.839,0.616-0.729,1.13c0.097,0.446,0.491,0.75,0.93,0.75c0.065,0,0.134-0.007,0.202-0.021l4.289-0.924l4.272,3.814
		c-1.036,1.823-1.63,3.93-1.63,6.172c0,0.127,0.002,0.254,0.006,0.381c-1.727,2.474-2.741,5.479-2.741,8.718
		c0,8.417,6.847,15.265,15.265,15.265c8.416,0,15.264-6.848,15.264-15.265c0-3.239-1.015-6.244-2.741-8.718
		c0.004-0.126,0.007-0.253,0.007-0.381c0-2.259-0.604-4.38-1.654-6.212l4.229-3.775l4.29,0.924c0.067,0.014,0.136,0.021,0.201,0.021
		c0.438,0,0.833-0.304,0.929-0.75C44.813,12.469,44.485,11.964,43.973,11.854z M24.179,3.925c3.394,0,6.153,2.761,6.153,6.154
		c0,0.575-0.081,1.131-0.229,1.66c-0.264,0.942-0.744,1.792-1.388,2.494c-1.126,1.229-2.742,2.001-4.536,2.001
		s-3.411-0.772-4.537-2.001c-0.643-0.702-1.125-1.552-1.389-2.494c-0.148-0.529-0.229-1.085-0.229-1.66
		C18.023,6.686,20.785,3.925,24.179,3.925z M15.016,19.675c0.128-0.383,0.282-0.754,0.457-1.113l1.366,1.219
		c0.179,0.162,0.407,0.241,0.632,0.241c0.261,0,0.522-0.107,0.71-0.317c0.35-0.392,0.316-0.993-0.076-1.342l-1.618-1.446
		c0.264-0.346,0.549-0.674,0.855-0.981c0.506,0.59,1.086,1.113,1.727,1.556c1.453,1.005,3.214,1.596,5.11,1.596
		s3.656-0.59,5.108-1.596c0.641-0.443,1.221-0.966,1.727-1.556c0.297,0.296,0.574,0.613,0.83,0.946l-1.658,1.481
		c-0.393,0.35-0.427,0.95-0.077,1.342c0.188,0.21,0.449,0.317,0.709,0.317c0.227,0,0.452-0.08,0.634-0.241l1.412-1.26
		c0.184,0.372,0.343,0.757,0.478,1.154c0.331,0.974,0.514,2.017,0.514,3.102c0,0.418-0.03,0.83-0.082,1.234
		c-0.608,4.754-4.678,8.441-9.594,8.441c-4.917,0-8.987-3.687-9.596-8.441c-0.052-0.405-0.082-0.816-0.082-1.234
		C14.501,21.691,14.684,20.648,15.016,19.675z M35.787,27.486c0.518,1.365,0.803,2.844,0.803,4.388
		c0,6.844-5.568,12.412-12.411,12.412c-6.844,0-12.412-5.568-12.412-12.412c0-1.544,0.284-3.023,0.802-4.388
		c1.866,4.581,6.366,7.818,11.61,7.818C29.422,35.305,33.922,32.067,35.787,27.486z"/>
</g>
</svg>
