<?xml version="1.0" encoding="utf-8"?>
<!-- Generator: Adobe Illustrator 16.0.0, SVG Export Plug-In . SVG Version: 6.00 Build 0)  -->
<!DOCTYPE svg PUBLIC "-//W3C//DTD SVG 1.1//EN" "http://www.w3.org/Graphics/SVG/1.1/DTD/svg11.dtd">
<svg version="1.1" id="Layer_1" xmlns="http://www.w3.org/2000/svg" xmlns:xlink="http://www.w3.org/1999/xlink" x="0px" y="0px"
	 width="48px" height="48px" viewBox="0 0 48 48" enable-background="new 0 0 48 48" xml:space="preserve">
<g>
	<path d="M8.426,12.496l9.919-1.418c0.122-0.425,0.29-0.831,0.5-1.21C18.817,9.669,18.8,9.467,18.8,9.262V4.4
		c0-0.604,0.127-1.179,0.357-1.7L8.415,1.166C7.496,1.035,6.588,1.309,5.887,1.917c-0.702,0.609-1.081,1.492-1.081,2.42v4.988
		c0,0.929,0.378,1.811,1.08,2.42C6.588,12.353,7.506,12.628,8.426,12.496z"/>
	<path d="M42.088,1.917c-0.701-0.608-1.633-0.883-2.551-0.751L28.726,2.709c0.227,0.518,0.345,1.09,0.345,1.691v4.861
		c0,0.175-0.002,0.347-0.023,0.517c0.235,0.405,0.427,0.84,0.559,1.3l9.928,1.418c0.918,0.132,1.852-0.143,2.553-0.751
		c0.702-0.608,1.106-1.492,1.106-2.42V4.337C43.193,3.409,42.791,2.525,42.088,1.917z"/>
	<path d="M26.375,7.348V4.4c0-0.813-0.696-1.474-1.509-1.474h-1.843c-0.813,0-1.526,0.661-1.526,1.474v2.976
		c0.771-0.336,1.605-0.525,2.472-0.525C24.809,6.851,25.604,7.029,26.375,7.348z"/>
	<path d="M37.821,22.36l-6.879-0.767l-2.393-5.284l-0.463-1.022c-0.279-0.615-0.688-1.147-1.184-1.57
		c0.12-0.326,0.185-0.678,0.185-1.043c0-1.694-1.396-3.073-3.111-3.073s-3.112,1.378-3.112,3.073c0,0.366,0.065,0.717,0.185,1.042
		c-0.497,0.423-0.907,0.955-1.187,1.571L19.4,16.308l-2.393,5.286l-6.879,0.767c-1.757,0.196-3.245,1.41-3.792,3.09
		c-0.545,1.682-0.055,3.538,1.251,4.73l5.114,4.664l-1.396,6.779c-0.357,1.732,0.338,3.523,1.768,4.561
		c1.409,1.023,3.374,1.133,4.885,0.272l6.017-3.422l6.016,3.422c0.679,0.387,1.451,0.591,2.231,0.591
		c0.96,0,1.878-0.298,2.653-0.862c1.431-1.039,2.125-2.83,1.769-4.562l-1.396-6.779l5.114-4.664c1.307-1.192,1.798-3.049,1.252-4.73
		C41.067,23.77,39.578,22.556,37.821,22.36z M37.582,27.132l-6.848,6.246l1.869,9.078c0.031,0.149-0.029,0.303-0.153,0.393
		c-0.183,0.133-0.31,0.085-0.42,0.023l-8.056-4.583l-8.056,4.583c-0.112,0.061-0.236,0.111-0.421-0.024
		c-0.123-0.089-0.183-0.243-0.152-0.392l1.87-9.078l-6.849-6.246c-0.112-0.102-0.154-0.262-0.107-0.407
		c0.047-0.144,0.175-0.249,0.325-0.266l9.212-1.027l3.179-7.022l0.643-1.421c0.126-0.277,0.584-0.276,0.708,0l0.644,1.421
		l3.179,7.022l9.211,1.027c0.151,0.018,0.279,0.122,0.327,0.267C37.736,26.87,37.694,27.03,37.582,27.132z"/>
</g>
</svg>
