<?xml version="1.0" encoding="utf-8"?>
<!-- Generator: Adobe Illustrator 16.0.0, SVG Export Plug-In . SVG Version: 6.00 Build 0)  -->
<!DOCTYPE svg PUBLIC "-//W3C//DTD SVG 1.1//EN" "http://www.w3.org/Graphics/SVG/1.1/DTD/svg11.dtd">
<svg version="1.1" id="Layer_1" xmlns="http://www.w3.org/2000/svg" xmlns:xlink="http://www.w3.org/1999/xlink" x="0px" y="0px"
	 width="48px" height="48px" viewBox="0 0 48 48" enable-background="new 0 0 48 48" xml:space="preserve">
<path d="M23.09,1.934c0.066-0.43,0.437-0.748,0.872-0.748s0.806,0.317,0.872,0.748l2.034,13.193c0.047,0.305,0.25,0.563,0.534,0.681
	c0.285,0.118,0.61,0.079,0.859-0.104l10.77-7.891c0.352-0.257,0.838-0.22,1.146,0.088c0.308,0.308,0.346,0.794,0.088,1.146
	l-7.892,10.769c-0.182,0.249-0.221,0.574-0.104,0.859c0.118,0.285,0.376,0.487,0.681,0.535l13.196,2.035
	c0.43,0.066,0.747,0.437,0.747,0.872s-0.317,0.806-0.747,0.872L32.95,27.022c-0.305,0.047-0.563,0.25-0.681,0.535
	c-0.117,0.285-0.078,0.61,0.104,0.859l7.892,10.77c0.258,0.351,0.221,0.837-0.088,1.145c-0.308,0.308-0.794,0.345-1.145,0.088
	l-10.771-7.891c-0.249-0.182-0.574-0.221-0.859-0.103c-0.284,0.118-0.487,0.376-0.534,0.681l-2.034,13.192
	c-0.066,0.43-0.437,0.748-0.872,0.748s-0.806-0.317-0.872-0.748l-2.033-13.192c-0.047-0.305-0.25-0.563-0.534-0.681
	c-0.285-0.118-0.61-0.079-0.859,0.103L8.892,40.419c-0.352,0.257-0.838,0.22-1.146-0.088c-0.308-0.308-0.345-0.794-0.088-1.145
	l7.893-10.77c0.182-0.249,0.221-0.574,0.104-0.859c-0.118-0.285-0.376-0.487-0.681-0.535L1.778,24.988
	c-0.431-0.066-0.748-0.437-0.748-0.872s0.317-0.806,0.748-0.872l13.195-2.035c0.305-0.047,0.563-0.25,0.681-0.535
	c0.117-0.285,0.078-0.61-0.104-0.859L7.659,9.046C7.401,8.695,7.438,8.208,7.746,7.9c0.309-0.308,0.795-0.345,1.146-0.088
	l10.771,7.892c0.249,0.183,0.574,0.222,0.859,0.104c0.284-0.118,0.487-0.376,0.534-0.681L23.09,1.934z"/>
</svg>
