<?xml version="1.0" encoding="utf-8"?>
<!-- Generator: Adobe Illustrator 16.0.0, SVG Export Plug-In . SVG Version: 6.00 Build 0)  -->
<!DOCTYPE svg PUBLIC "-//W3C//DTD SVG 1.1//EN" "http://www.w3.org/Graphics/SVG/1.1/DTD/svg11.dtd">
<svg version="1.1" id="Layer_1" xmlns="http://www.w3.org/2000/svg" xmlns:xlink="http://www.w3.org/1999/xlink" x="0px" y="0px"
	 width="48px" height="48px" viewBox="0 0 48 48" enable-background="new 0 0 48 48" xml:space="preserve">
<g>
	<path d="M32,28.353V8.825c0-4.291-3.495-7.781-7.786-7.781c-4.29,0-7.785,3.491-7.785,7.78v19.529
		c-1.902,1.949-3.05,4.603-3.05,7.522c0,5.971,4.857,10.828,10.829,10.828c5.97,0,10.834-4.857,10.834-10.828
		C35.042,32.956,33.901,30.302,32,28.353z M24.206,43.704c-4.316,0-7.824-3.512-7.824-7.828c0-2.528,1.174-4.779,3.077-6.211V17.281
		h3.372c0.552,0,1-0.47,1-1.022c0-0.553-0.448-1.021-1-1.021h-3.372v-2.466h3.372c0.552,0,1-0.434,1-0.986s-0.448-0.986-1-0.986
		h-3.372V8.824c0-2.636,2.119-4.78,4.754-4.78c2.637,0,4.756,2.144,4.756,4.781v20.871c1.903,1.434,3.046,3.671,3.046,6.18
		C32.016,40.192,28.522,43.704,24.206,43.704z"/>
	<path d="M26.715,31.507V19.676h-5.002v11.831c-1.549,0.874-2.537,2.502-2.537,4.369c0,2.788,2.251,5.046,5.038,5.046
		c2.788,0,5.034-2.258,5.034-5.046C29.248,34.01,28.265,32.381,26.715,31.507z"/>
</g>
</svg>
