<?xml version="1.0" encoding="utf-8"?>
<!-- Generator: Adobe Illustrator 16.0.0, SVG Export Plug-In . SVG Version: 6.00 Build 0)  -->
<!DOCTYPE svg PUBLIC "-//W3C//DTD SVG 1.1//EN" "http://www.w3.org/Graphics/SVG/1.1/DTD/svg11.dtd">
<svg version="1.1" id="Layer_1" xmlns="http://www.w3.org/2000/svg" xmlns:xlink="http://www.w3.org/1999/xlink" x="0px" y="0px"
	 width="48px" height="48px" viewBox="0 0 48 48" enable-background="new 0 0 48 48" xml:space="preserve">
<g>
	<g>
		<path d="M23.042,17.02l0.57-1.313l-12.187-5.015l-0.52,1.334c-2.101,5.391-3.551,13.308-1.088,16.199l-3.633,8.828l-3.221-1.325
			c-0.717-0.294-1.539,0.047-1.833,0.765c-0.295,0.717,0.047,1.538,0.764,1.833l9.042,3.72c0.175,0.072,0.355,0.106,0.534,0.106
			c0.552,0,1.076-0.329,1.3-0.871c0.295-0.717-0.047-1.538-0.765-1.833l-3.221-1.326l3.632-8.828
			C16.413,28.971,21.028,21.664,23.042,17.02z M19.867,17.204c-0.667,1.381-1.388,2.643-2.117,3.761l-5.862-2.412
			c0.269-1.305,0.643-2.709,1.142-4.163L19.867,17.204z"/>
		<path d="M23.816,13.024c0.517,0,0.934-0.42,0.934-0.937V6.468c0-0.518-0.417-0.937-0.934-0.937c-0.518,0-0.935,0.419-0.935,0.937
			v5.619C22.882,12.604,23.299,13.024,23.816,13.024z"/>
		<path d="M17.055,11.148l3.548,2.097c0.149,0.088,0.313,0.131,0.476,0.131c0.32,0,0.632-0.165,0.807-0.46
			c0.263-0.445,0.116-1.019-0.33-1.282l-3.548-2.098c-0.445-0.262-1.019-0.115-1.283,0.33C16.461,10.31,16.609,10.885,17.055,11.148
			z"/>
		<path d="M23.816,19.55c-0.518,0-0.935,0.419-0.935,0.937v5.62c0,0.517,0.417,0.937,0.935,0.937c0.517,0,0.934-0.42,0.934-0.937
			v-5.62C24.75,19.969,24.333,19.55,23.816,19.55z"/>
	</g>
	<g>
		<path d="M35.217,29.294l3.632,8.828l-3.221,1.326c-0.718,0.295-1.06,1.117-0.765,1.833c0.224,0.542,0.748,0.871,1.3,0.871
			c0.178,0,0.359-0.034,0.534-0.106l9.042-3.72c0.717-0.295,1.06-1.116,0.764-1.833c-0.295-0.718-1.116-1.059-1.833-0.765
			l-3.221,1.325l-3.633-8.828c2.463-2.891,1.013-10.809-1.088-16.199l-0.52-1.334l-12.187,5.015l0.57,1.313
			C26.604,21.664,31.219,28.971,35.217,29.294z M34.602,14.391c0.499,1.454,0.874,2.858,1.142,4.163l-5.862,2.412
			c-0.729-1.119-1.45-2.38-2.117-3.761L34.602,14.391z"/>
		<path d="M30.578,11.148l-3.548,2.097c-0.149,0.088-0.313,0.131-0.476,0.131c-0.32,0-0.632-0.165-0.807-0.46
			c-0.263-0.445-0.116-1.019,0.33-1.282l3.548-2.098c0.445-0.262,1.019-0.115,1.283,0.33C31.171,10.31,31.023,10.885,30.578,11.148z
			"/>
	</g>
</g>
</svg>
