<?xml version="1.0" encoding="utf-8"?>
<!-- Generator: Adobe Illustrator 16.0.0, SVG Export Plug-In . SVG Version: 6.00 Build 0)  -->
<!DOCTYPE svg PUBLIC "-//W3C//DTD SVG 1.1//EN" "http://www.w3.org/Graphics/SVG/1.1/DTD/svg11.dtd">
<svg version="1.1" id="Layer_1" xmlns="http://www.w3.org/2000/svg" xmlns:xlink="http://www.w3.org/1999/xlink" x="0px" y="0px"
	 width="48px" height="48px" viewBox="0 0 48 48" enable-background="new 0 0 48 48" xml:space="preserve">
<g>
	<path d="M28.01,3.534c0-0.676-0.565-1.226-1.241-1.226H20.91c-0.676,0-1.244,0.55-1.244,1.226v4.338h8.344V3.534z"/>
	<path d="M26.873,22.48V9.642h-6.068V22.48l-1.709,3.06c-2.191,3.947-3.349,8.388-3.349,12.903v5.692
		c0,0.854,0.714,1.538,1.567,1.538h13.052c0.853,0,1.563-0.685,1.563-1.538v-5.692c0-4.517-1.157-8.956-3.352-12.903L26.873,22.48z
		 M29.971,35.85v0.636c0,0.604-0.505,1.098-1.109,1.098H27.21c-0.397,2.339-1.756,4.057-3.37,4.057
		c-1.613,0-2.971-1.718-3.368-4.057H18.82c-0.604,0-1.114-0.494-1.114-1.098V35.85c0-0.604,0.511-1.111,1.114-1.111h1.651
		c0.398-2.339,1.755-4.055,3.368-4.055c1.614,0,2.972,1.716,3.37,4.055h1.651C29.466,34.738,29.971,35.246,29.971,35.85z"/>
	<path d="M1.079,17.823c0.115,5.801,1.804,13.716,5.2,15.457l0.012,9.592l-3.499,0.005c-0.781,0-1.411,0.629-1.411,1.409
		c0.002,0.772,0.626,1.397,1.398,1.405c0.004,0,0.01,0,0.015,0l9.822-0.008c0.778,0,1.41-0.625,1.41-1.404
		c-0.001-0.773-0.626-1.392-1.398-1.399c-0.004,0-0.01,0-0.015,0l-3.5-0.003l-0.012-9.595c3.391-1.75,5.059-9.662,5.161-15.474
		l0.025-1.438L1.05,16.388L1.079,17.823z M11.385,19.195c-0.09,1.542-0.277,2.988-0.524,4.304l-6.363,0.008
		c-0.252-1.315-0.443-2.762-0.538-4.303L11.385,19.195z"/>
	<circle cx="7.627" cy="21.198" r="0.902"/>
	<circle cx="4.802" cy="12.081" r="1.899"/>
	<circle cx="11.356" cy="12.876" r="1.169"/>
	<circle cx="9.102" cy="8.313" r="1.098"/>
	<path d="M46.565,17.823l0.03-1.436L33.357,16.37l0.025,1.438c0.102,5.812,1.77,13.724,5.161,15.474l-0.013,9.595l-3.499,0.003
		c-0.006,0-0.011,0-0.015,0c-0.772,0.008-1.397,0.626-1.398,1.399c0,0.779,0.631,1.404,1.41,1.404l9.821,0.008
		c0.006,0,0.011,0,0.015,0c0.772-0.008,1.397-0.633,1.399-1.405c0-0.78-0.631-1.409-1.411-1.409l-3.499-0.005l0.012-9.592
		C44.763,31.539,46.45,23.624,46.565,17.823z M36.784,23.499c-0.246-1.315-0.435-2.762-0.524-4.304l7.426,0.009
		c-0.094,1.541-0.285,2.987-0.537,4.303L36.784,23.499z"/>
	<circle cx="40.018" cy="21.198" r="0.902"/>
	<circle cx="42.844" cy="12.081" r="1.899"/>
	<circle cx="36.289" cy="12.876" r="1.169"/>
	<circle cx="38.544" cy="8.313" r="1.098"/>
</g>
</svg>
